<svg id="OBJECTS" xmlns="http://www.w3.org/2000/svg" viewBox="0 0 455.09 353.15"><defs><style>.cls-1{fill:#fdeeeb;}.cls-2{fill:#0088de;}.cls-12,.cls-13,.cls-24,.cls-25,.cls-3,.cls-30,.cls-37,.cls-38,.cls-6,.cls-7{fill:none;stroke-miterlimit:10;}.cls-3{stroke:#0088de;}.cls-4{fill:#ff8b2e;}.cls-5{fill:#fdfefd;}.cls-6,.cls-7{stroke:#212b3b;}.cls-13,.cls-24,.cls-25,.cls-6{stroke-width:2px;}.cls-8{fill:#212b3b;}.cls-9{fill:#fff;}.cls-10{fill:#0a4494;}.cls-11{fill:#82e600;}.cls-12,.cls-13{stroke:#093;}.cls-12,.cls-13,.cls-24,.cls-25,.cls-37,.cls-38{stroke-linecap:round;}.cls-14{fill:#fe761b;}.cls-15{fill:#6b2e40;}.cls-16{fill:#fac8bf;}.cls-17{fill:#eda19f;}.cls-18{fill:#fe7b23;}.cls-19{fill:#e45c01;}.cls-20{fill:#0387d9;}.cls-21{fill:#904b57;}.cls-22{fill:#bd7d81;}.cls-23{fill:#75c0e0;}.cls-24{stroke:#904b57;}.cls-25,.cls-37{stroke:#b35267;}.cls-26{fill:#363857;}.cls-27{fill:#b35267;}.cls-28{fill:#ffedef;}.cls-29{fill:#e6919d;}.cls-30{stroke:#363857;}.cls-31{fill:#1b2e34;}.cls-32{opacity:0.95;}.cls-33{fill:#12252b;}.cls-34{fill:#597375;}.cls-35{fill:#324b4f;}.cls-36{fill:#bf4753;}.cls-38{stroke:#eb6e6a;}</style></defs><path class="cls-1" d="M409.1,413.18c31.74-41.41,55.59-90.32,59.76-142.33S455.45,163.71,416,129.61s-101.71-42.46-145-13.4c-39.4,26.42-59.67,78.22-103.87,95.44-22.28,8.68-47.28,7-70.3,13.41-40.61,11.38-71.87,50.36-74.15,92.47S47.16,401.77,88.4,415.2C190.79,413,293.18,410.71,409.1,413.18Z" transform="translate(-22.46 -73.43)"/><path class="cls-1" d="M226.54,122.93c-10.42,40.89-51.57,71.7-93.74,70.18-22.3-.81-45.36-11-56.47-30.32S70.26,114.84,90,104.39c16.93-9,38.09-3,56.4-8.69,17.27-5.35,31-20.75,49-22.18a33.86,33.86,0,0,1,27.34,10.86C229.57,91.92,231.76,102.44,226.54,122.93Z" transform="translate(-22.46 -73.43)"/><path class="cls-2" d="M144.09,239.63l2.29-11.26-9.15-1.86a25.52,25.52,0,0,0-1.64-8.36l7.79-5.16-6.33-9.58-7.79,5.16a25.56,25.56,0,0,0-7.08-4.77l1.87-9.16-11.26-2.29-1.86,9.16a25.2,25.2,0,0,0-8.36,1.63l-5.16-7.79-9.58,6.34L93,209.48a25.64,25.64,0,0,0-4.76,7.06l-9.16-1.86-2.29,11.26,9.16,1.86a25.61,25.61,0,0,0,1.62,8.37l-7.79,5.16,6.35,9.57,7.79-5.15a25.53,25.53,0,0,0,7.06,4.77l-1.86,9.15L110.36,262l1.86-9.15a25.42,25.42,0,0,0,8.37-1.64l5.16,7.79,9.57-6.33-5.16-7.79a25.69,25.69,0,0,0,4.78-7.07Zm-35.41,1.73A14.5,14.5,0,1,1,125.78,230,14.48,14.48,0,0,1,108.68,241.36Z" transform="translate(-22.46 -73.43)"/><path class="cls-3" d="M182.08,277.59l2.61-7.91-6.43-2.12a18.38,18.38,0,0,0-.46-6.16l6-3-3.74-7.43-6,3a18.78,18.78,0,0,0-4.69-4l2.12-6.44-7.9-2.6-2.13,6.43a18.08,18.08,0,0,0-6.15.46l-3.05-6.05-7.44,3.75,3.05,6a18.77,18.77,0,0,0-4,4.68l-6.43-2.12L134.79,262l6.44,2.12a18.4,18.4,0,0,0,.45,6.16l-6.05,3.05,3.75,7.43,6.05-3a18.55,18.55,0,0,0,4.67,4L148,288.17l7.91,2.61,2.12-6.42a19,19,0,0,0,6.17-.46l3,6,7.43-3.74-3-6.05a18.57,18.57,0,0,0,4-4.68Zm-25.63-1.78a10.51,10.51,0,1,1,13.27-6.68A10.5,10.5,0,0,1,156.45,275.81Z" transform="translate(-22.46 -73.43)"/><path class="cls-3" d="M196.14,226.7l1-5.27-4.28-.82a12.1,12.1,0,0,0-.8-3.89l3.61-2.45-3-4.44-3.61,2.45a11.8,11.8,0,0,0-3.33-2.19l.83-4.28-5.27-1-.82,4.29a11.89,11.89,0,0,0-3.9.8l-2.44-3.61-4.44,3,2.44,3.61a11.87,11.87,0,0,0-2.18,3.32l-4.29-.82-1,5.26,4.29.83a12,12,0,0,0,.8,3.9l-3.61,2.44,3,4.44,3.61-2.45a11.68,11.68,0,0,0,3.32,2.19l-.82,4.28,5.26,1,.82-4.29a11.64,11.64,0,0,0,3.9-.8l2.45,3.61,4.44-3-2.45-3.61a11.9,11.9,0,0,0,2.19-3.32Zm-16.51,1a6.77,6.77,0,1,1,7.92-5.37A6.76,6.76,0,0,1,179.63,227.69Z" transform="translate(-22.46 -73.43)"/><path class="cls-2" d="M477.54,248.23l-1-11.94-9.71.78a26.44,26.44,0,0,0-4.05-7.91l6.31-7.42L460,214l-6.31,7.42a26.79,26.79,0,0,0-8.47-2.73l-.78-9.72-11.95,1,.78,9.72a26.77,26.77,0,0,0-7.91,4L418,217.35l-7.77,9.13,7.42,6.32a26.51,26.51,0,0,0-2.73,8.45l-9.72.78,1,11.95,9.72-.78a26.73,26.73,0,0,0,4.05,7.92l-6.32,7.42,9.13,7.76,6.32-7.42a26.59,26.59,0,0,0,8.46,2.74l.78,9.71,11.94-1-.78-9.71a26.64,26.64,0,0,0,7.92-4.06l7.42,6.32,7.77-9.12-7.43-6.32a26.47,26.47,0,0,0,2.74-8.47Zm-35,12a15.12,15.12,0,1,1,13.86-16.29A15.12,15.12,0,0,1,442.56,260.21Z" transform="translate(-22.46 -73.43)"/><path class="cls-3" d="M364.47,133.67l1-5.27-4.28-.82a12.1,12.1,0,0,0-.8-3.89l3.6-2.45-3-4.44-3.61,2.45a12.09,12.09,0,0,0-3.33-2.19l.83-4.29-5.27-1-.82,4.29a11.89,11.89,0,0,0-3.9.8l-2.44-3.61-4.44,3,2.44,3.61a11.87,11.87,0,0,0-2.18,3.32l-4.29-.82-1,5.26,4.29.83a11.69,11.69,0,0,0,.8,3.9l-3.61,2.44,3,4.44,3.61-2.45A11.68,11.68,0,0,0,344.4,139l-.82,4.28,5.26,1,.82-4.28a11.64,11.64,0,0,0,3.9-.8l2.45,3.61,4.43-3L358,136.17a11.9,11.9,0,0,0,2.19-3.32Zm-16.52,1a6.77,6.77,0,1,1,7.93-5.37A6.77,6.77,0,0,1,348,134.66Z" transform="translate(-22.46 -73.43)"/><circle class="cls-4" cx="145.93" cy="52.63" r="36.59"/><circle class="cls-5" cx="145.93" cy="52.63" r="31.37"/><line class="cls-6" x1="145.94" y1="22.83" x2="145.9" y2="26.99"/><line class="cls-6" x1="145.96" y1="78.26" x2="145.92" y2="82.42"/><line class="cls-6" x1="116.13" y1="52.62" x2="120.29" y2="52.65"/><line class="cls-6" x1="171.56" y1="52.6" x2="175.72" y2="52.64"/><line class="cls-7" x1="124.87" y1="31.55" x2="127.78" y2="34.52"/><line class="cls-7" x1="164.08" y1="70.74" x2="166.99" y2="73.7"/><line class="cls-7" x1="124.85" y1="73.69" x2="127.82" y2="70.77"/><line class="cls-7" x1="164.04" y1="34.48" x2="167" y2="31.57"/><circle class="cls-8" cx="145.93" cy="52.63" r="2.51"/><path class="cls-9" d="M351.47,178.05V160.8a13.63,13.63,0,0,1,13.63-13.63h69.11a13.63,13.63,0,0,1,13.63,13.63v17.25a13.63,13.63,0,0,1-13.63,13.63H365.1A13.64,13.64,0,0,1,351.47,178.05Z" transform="translate(-22.46 -73.43)"/><polygon class="cls-9" points="371 111.15 367.88 140.7 395.69 111.62 371 111.15"/><ellipse class="cls-10" cx="349.68" cy="97.91" rx="5.12" ry="4.83"/><ellipse class="cls-10" cx="377.57" cy="97.91" rx="5.12" ry="4.83"/><ellipse class="cls-10" cx="404.7" cy="97.91" rx="5.12" ry="4.83"/><ellipse class="cls-1" cx="250.43" cy="48.68" rx="40.48" ry="40.83"/><ellipse class="cls-9" cx="253.12" cy="51.92" rx="40.48" ry="40.83"/><path class="cls-2" d="M264.57,136.11a7.11,7.11,0,0,0-10.13-.12,7.28,7.28,0,0,0-.05,10.22,7.11,7.11,0,0,0,10.13.1A7.25,7.25,0,0,0,264.57,136.11ZM258.15,146l-3.54-3.63,1.33-4.88,4.86-1.26,3.54,3.63L263,144.78Z" transform="translate(-22.46 -73.43)"/><path class="cls-2" d="M298.6,107.55,293,113.13a2.19,2.19,0,0,1-3.11,0l-1.76-1.8a2.23,2.23,0,0,1,0-3.14l5.61-5.58A7.61,7.61,0,0,0,286.15,115a7.3,7.3,0,0,0,10.38-.14A7.66,7.66,0,0,0,298.6,107.55Z" transform="translate(-22.46 -73.43)"/><path class="cls-2" d="M265.24,140.44l-4.63-4.75a294.52,294.52,0,0,1,24.18-24l4.64,4.75A334.11,334.11,0,0,1,265.24,140.44Z" transform="translate(-22.46 -73.43)"/><polygon class="cls-9" points="259.21 85.12 273.97 101.54 273.8 74.05 259.21 85.12"/><path class="cls-11" d="M359.26,410c4.32-23.09,10.32-46.1,20.25-67.93S403.43,299.6,422.27,283c7.12-6.29,16.85-12.38,26.12-9.74s12.87,12.87,12.07,21.69c-1.39,15.39-11.75,29.14-22.58,41.44C414.93,362.43,388.34,385.76,359.26,410Z" transform="translate(-22.46 -73.43)"/><path class="cls-12" d="M450,281.9A756.42,756.42,0,0,0,361,407" transform="translate(-22.46 -73.43)"/><path class="cls-12" d="M435.49,277.07a66.24,66.24,0,0,1,4.19,17,43.69,43.69,0,0,1,18.79,1.14" transform="translate(-22.46 -73.43)"/><path class="cls-12" d="M408,301.08a41.46,41.46,0,0,1,9,20.73,55.25,55.25,0,0,1,28.83,1.62" transform="translate(-22.46 -73.43)"/><path class="cls-12" d="M386.15,336.33a38.46,38.46,0,0,1,6.45,18.72,101,101,0,0,1,27.16-1.71" transform="translate(-22.46 -73.43)"/><path class="cls-12" d="M372.65,369.3a26.47,26.47,0,0,1,4.24,10.18,77.33,77.33,0,0,1,14.71-4.23" transform="translate(-22.46 -73.43)"/><path class="cls-11" d="M352.49,415.2C374,394.93,396,374.3,423.93,360.4c7.17-3.56,15-6.72,23.23-6.94s16.9,3.23,19.44,9.53c2.48,6.15-1.5,13.27-7.6,17.75s-14,6.91-21.59,9.22C409.63,398.39,381.85,406.81,352.49,415.2Z" transform="translate(-22.46 -73.43)"/><path class="cls-12" d="M460.66,364.9c-38.11,9.12-73.9,25.54-104.13,47.77" transform="translate(-22.46 -73.43)"/><path class="cls-12" d="M446.65,357.29a31.68,31.68,0,0,1-2,11.61,17.49,17.49,0,0,1,8.69,9.84" transform="translate(-22.46 -73.43)"/><path class="cls-12" d="M424.17,363.83A51.66,51.66,0,0,1,421,377.22a26.89,26.89,0,0,1,9.23,10.56" transform="translate(-22.46 -73.43)"/><path class="cls-12" d="M398,377.31a27.49,27.49,0,0,1-.07,10.58A18.4,18.4,0,0,1,409,394.55" transform="translate(-22.46 -73.43)"/><path class="cls-12" d="M377.71,393.71a11.59,11.59,0,0,1-.88,6,17,17,0,0,1,10.41,4.18" transform="translate(-22.46 -73.43)"/><path class="cls-11" d="M356.05,415.2q28.63-73.47,52.4-149.72c3.63-11.63,7.05-25.4,1.88-35.84C405,218.76,392,217.4,383.11,223.81s-14.53,18.38-18.52,30.4C346.8,307.72,353,368.17,356.05,415.2Z" transform="translate(-22.46 -73.43)"/><path class="cls-12" d="M397.88,227.56C374.79,271,364.07,334.85,357.38,414" transform="translate(-22.46 -73.43)"/><path class="cls-12" d="M366.62,262.06a54.52,54.52,0,0,1,11.46,17.31,55.52,55.52,0,0,1,24.3-8.78" transform="translate(-22.46 -73.43)"/><path class="cls-12" d="M356.13,302.27a75,75,0,0,1,13.74,15.54,57.76,57.76,0,0,1,21.49-13" transform="translate(-22.46 -73.43)"/><path class="cls-12" d="M355.87,343a31.91,31.91,0,0,1,7.63,8.46A52.55,52.55,0,0,1,378.08,342" transform="translate(-22.46 -73.43)"/><path class="cls-12" d="M379.4,232.8A28,28,0,0,1,388,250.32a25.19,25.19,0,0,1,20.74-3.48" transform="translate(-22.46 -73.43)"/><path class="cls-13" d="M228.92,238.31a467.42,467.42,0,0,1,41.7,136.94" transform="translate(-22.46 -73.43)"/><path class="cls-11" d="M229.4,240.1a27.51,27.51,0,0,1-19.92-17.54c-.88-2.6-1.07-6,1.3-7.65s5.67-.4,8,1.2C226.76,221.65,231.61,231,229.4,240.1Z" transform="translate(-22.46 -73.43)"/><path class="cls-11" d="M233.37,247a51.29,51.29,0,0,1,.31-26,10.38,10.38,0,0,1,1.45-3.4,4,4,0,0,1,3.11-1.78,3.93,3.93,0,0,1,3.09,1.78,8.43,8.43,0,0,1,1.25,3.46,26.72,26.72,0,0,1-1.7,13.76A38,38,0,0,1,233.37,247Z" transform="translate(-22.46 -73.43)"/><path class="cls-11" d="M239.83,260.26a48.74,48.74,0,0,1,4.46-23.64,21.11,21.11,0,0,1,5.89-8.05c1.4-1.08,3.31-1.88,4.91-1.12a3.94,3.94,0,0,1,2,3.42,10.16,10.16,0,0,1-.87,4A75.18,75.18,0,0,1,239.83,260.26Z" transform="translate(-22.46 -73.43)"/><path class="cls-11" d="M245,272.59a25.71,25.71,0,0,1,13.2-24.14c1.85-1,4.2-1.72,6-.57a4.48,4.48,0,0,1,1.67,4.43,11.21,11.21,0,0,1-2.08,4.5C259.07,263.74,252.76,269.59,245,272.59Z" transform="translate(-22.46 -73.43)"/><path class="cls-11" d="M249.65,287.92a30.71,30.71,0,0,1,16.47-25c1.48-.75,3.32-1.35,4.71-.45s1.58,2.77,1.35,4.36c-.54,3.65-2.76,6.81-5.18,9.6C262.37,281.8,256.79,286.32,249.65,287.92Z" transform="translate(-22.46 -73.43)"/><path class="cls-11" d="M254.63,300.54a33.63,33.63,0,0,1,19.51-22.43c1.57-.64,3.38-1.16,4.93-.45a4.46,4.46,0,0,1,2.31,4.19,9.47,9.47,0,0,1-1.69,4.71,30.33,30.33,0,0,1-11.4,10.12C263.77,299.14,258.89,300.81,254.63,300.54Z" transform="translate(-22.46 -73.43)"/><path class="cls-11" d="M234.11,251.29a29.74,29.74,0,0,0-21.64-13.23,6.23,6.23,0,0,0-3.56.41c-2,1.07-2.46,4-1.41,6,1.36,2.63,4.39,3.89,7.23,4.73C220.13,250.81,225.77,251.62,234.11,251.29Z" transform="translate(-22.46 -73.43)"/><path class="cls-11" d="M241.52,265a22.7,22.7,0,0,0-21.79-10.81,10,10,0,0,0-5.72,2.27c-1.52,1.43-2.26,3.85-1.26,5.67,1.13,2,3.78,2.57,6.11,2.81A110.58,110.58,0,0,0,241.52,265Z" transform="translate(-22.46 -73.43)"/><path class="cls-11" d="M247.05,280.48a28,28,0,0,0-24.49-9.17,9.15,9.15,0,0,0-4.24,1.46,4,4,0,0,0-1.7,3.92,4.12,4.12,0,0,0,2.61,2.69,12.38,12.38,0,0,0,3.83.61C230.82,280.37,238.58,280.75,247.05,280.48Z" transform="translate(-22.46 -73.43)"/><path class="cls-11" d="M252.82,296.71a30.13,30.13,0,0,0-11.94-10.27,19,19,0,0,0-15.46-.31c-1.39.64-2.8,1.66-3.06,3.16a3.78,3.78,0,0,0,2.08,3.68,11,11,0,0,0,4.33,1.08Z" transform="translate(-22.46 -73.43)"/><path class="cls-11" d="M256.54,309.67a29.39,29.39,0,0,0-22-10.43,10.38,10.38,0,0,0-6.31,1.56c-1.78,1.31-2.75,3.91-1.62,5.81s3.67,2.3,5.87,2.49A170.57,170.57,0,0,0,256.54,309.67Z" transform="translate(-22.46 -73.43)"/><path class="cls-11" d="M259.16,320.27c-5.79-5.34-14.48-6.22-22.27-5.07-2,.3-4.13.77-5.59,2.19s-1.86,4.09-.33,5.42c1.13,1,2.8.91,4.29.79A157.83,157.83,0,0,0,259.16,320.27Z" transform="translate(-22.46 -73.43)"/><path class="cls-11" d="M262.87,333.07a16.53,16.53,0,0,0-11.23-5.45,32.27,32.27,0,0,0-12.6,1.77,10.62,10.62,0,0,0-4.37,2.26,4.14,4.14,0,0,0-1.13,4.51c1,2.15,3.92,2.39,6.28,2.19C246.51,337.78,253.1,336.05,262.87,333.07Z" transform="translate(-22.46 -73.43)"/><path class="cls-11" d="M265.92,346.69c-7.89-4.3-17.55-6.32-25.93-3.1-2.08.8-4.33,2.39-4.19,4.62a4,4,0,0,0,2.41,3.14,9.83,9.83,0,0,0,4.07.68C249.33,352.06,256.23,350.14,265.92,346.69Z" transform="translate(-22.46 -73.43)"/><path class="cls-11" d="M267.32,358.92a29.93,29.93,0,0,0-21.23-1.9,10.49,10.49,0,0,0-5.25,2.92c-1.32,1.55-1.76,4-.54,5.62s3.67,1.88,5.77,1.83C252.14,367.21,258.14,366.05,267.32,358.92Z" transform="translate(-22.46 -73.43)"/><path class="cls-11" d="M259,314.51a25,25,0,0,1,15.33-17.63,11.17,11.17,0,0,1,6.18-.79,5.42,5.42,0,0,1,4.32,4.08,5.6,5.6,0,0,1-1.6,4.52,14.71,14.71,0,0,1-4,2.83A65,65,0,0,1,259,314.51Z" transform="translate(-22.46 -73.43)"/><path class="cls-11" d="M261.9,329.59a30,30,0,0,1,20.58-20,4.37,4.37,0,0,1,3.62.17c1.46,1,1.26,3.26.55,4.89-1.77,4-5.54,6.84-9.43,8.92S269.15,327.18,261.9,329.59Z" transform="translate(-22.46 -73.43)"/><path class="cls-11" d="M264.43,340.67a20.47,20.47,0,0,1,8.23-9.33,30.58,30.58,0,0,1,11.88-4.06,10.29,10.29,0,0,1,4.59.15,3.73,3.73,0,0,1,1.55,6.6,10.1,10.1,0,0,1-3.26,1.88C280.86,338.57,273.77,339.54,264.43,340.67Z" transform="translate(-22.46 -73.43)"/><path class="cls-11" d="M267.35,354.06c5.24-8.12,13.79-14.72,23.44-15.11,2.44-.1,5.39.57,6.16,2.89a4.27,4.27,0,0,1-1.26,4.22,10.13,10.13,0,0,1-4,2.19C283.45,351,273.93,350.7,267.35,354.06Z" transform="translate(-22.46 -73.43)"/><path class="cls-13" d="M41,377.26a360,360,0,0,1,171.36,29.36" transform="translate(-22.46 -73.43)"/><path class="cls-11" d="M50.88,376.29a21.88,21.88,0,0,0-25.39.81A8.16,8.16,0,0,0,23,379.93a3.75,3.75,0,0,0,.09,3.62c1,1.53,3.16,1.75,5,1.66C36.56,384.78,44.49,381.19,50.88,376.29Z" transform="translate(-22.46 -73.43)"/><path class="cls-11" d="M65.4,376.26a25.05,25.05,0,0,0-15.46,11.08,9.67,9.67,0,0,0-1.55,3.86,4,4,0,0,0,5.36,4.55,9.29,9.29,0,0,0,3.63-2.3C63.11,388.07,66,379.54,65.4,376.26Z" transform="translate(-22.46 -73.43)"/><path class="cls-11" d="M87.43,377.25a28.51,28.51,0,0,0-20.65,19.54c-.56,1.95-.7,4.48,1,5.58s4.22-.29,5.81-1.79A47.3,47.3,0,0,0,87.43,377.25Z" transform="translate(-22.46 -73.43)"/><path class="cls-11" d="M106.35,378c-8.88,3.47-15.75,10.79-21,18.73a11.94,11.94,0,0,0-2.16,4.69,4,4,0,0,0,6.16,4.27,11.91,11.91,0,0,0,3.23-3.14C97.79,395.8,102.05,388.4,106.35,378Z" transform="translate(-22.46 -73.43)"/><path class="cls-11" d="M119.2,379.92a24.07,24.07,0,0,0-15.5,19,9.25,9.25,0,0,0,.14,4,4.22,4.22,0,0,0,2.6,2.86,4.45,4.45,0,0,0,4.47-1.59,13,13,0,0,0,2.21-4.47C115.42,393,117.71,386.31,119.2,379.92Z" transform="translate(-22.46 -73.43)"/><path class="cls-11" d="M130.83,381.28c-2.82,3.59-5.67,7.22-7.57,11.37s-2.8,8.93-1.55,13.31c.37,1.29,1.12,2.7,2.44,2.91a3.67,3.67,0,0,0,3-1.48,22.33,22.33,0,0,0,5.43-11.28C133.39,392,133.32,387.68,130.83,381.28Z" transform="translate(-22.46 -73.43)"/><path class="cls-11" d="M151.09,385.24a18.12,18.12,0,0,0-8,7.25,42.87,42.87,0,0,0-4.28,10.07,11.84,11.84,0,0,0-.76,4.31,3.85,3.85,0,0,0,6.89,2.55,10.86,10.86,0,0,0,2.41-4.59C149.16,399.08,150,393,151.09,385.24Z" transform="translate(-22.46 -73.43)"/><path class="cls-11" d="M58.51,375.29a24.54,24.54,0,0,1-14.68-12.58,4.3,4.3,0,0,1-.59-2.43,3.51,3.51,0,0,1,3-2.64,8,8,0,0,1,7.16,2.89,19.37,19.37,0,0,1,3.61,7.14A24.34,24.34,0,0,1,58.51,375.29Z" transform="translate(-22.46 -73.43)"/><path class="cls-11" d="M77.17,376.88a30.77,30.77,0,0,1-12-12.75A10.14,10.14,0,0,1,64,360.34a3.89,3.89,0,0,1,5.56-4.1,9.39,9.39,0,0,1,3.5,2.63C76.74,362.93,79,368.29,77.17,376.88Z" transform="translate(-22.46 -73.43)"/><path class="cls-11" d="M97.14,377.28a22.62,22.62,0,0,1-10.85-20.43c.07-1.09.33-2.34,1.3-2.83a2.29,2.29,0,0,1,2.33.36,6.16,6.16,0,0,1,1.51,1.95C94.5,361.69,96.66,367.57,97.14,377.28Z" transform="translate(-22.46 -73.43)"/><path class="cls-11" d="M114.88,378.69a19.72,19.72,0,0,1-9.6-16.27c0-2.16.49-4.66,2.41-5.66a4.47,4.47,0,0,1,4.36.42,9.9,9.9,0,0,1,3,3.43C118.29,366.14,119.36,372.9,114.88,378.69Z" transform="translate(-22.46 -73.43)"/><path class="cls-11" d="M129.21,381.83a11.88,11.88,0,0,1-5.51-7.67,30.67,30.67,0,0,1-.48-9.66,12.72,12.72,0,0,1,1.24-5.53c.94-1.66,2.88-2.9,4.73-2.45s3,2.57,3.66,4.49A21.83,21.83,0,0,1,129.21,381.83Z" transform="translate(-22.46 -73.43)"/><path class="cls-11" d="M145.17,384.44a21.24,21.24,0,0,1-.68-22.27c.79-1.33,2-2.7,3.55-2.54s2.33,1.54,2.9,2.84A18.25,18.25,0,0,1,145.17,384.44Z" transform="translate(-22.46 -73.43)"/><path class="cls-14" d="M287.55,303.84l-5.14-17.51s-13.82,6-18.21,15.14c-9.94,20.8-16.2,61.22-20.23,66.86s-53.63,12.36-53.63,12.36l5.08,25.57s60.66-4.37,68.78-11.54c11-9.71,24.27-51.94,24.27-51.94Z" transform="translate(-22.46 -73.43)"/><path class="cls-15" d="M320.43,198.87c1.73-7.17,9.46-12,16.81-11.43s13.83,6,16.78,12.75,2.65,14.65.26,21.63c-1.62,4.72-4.17,9.78-2.35,14.43,1.35,3.46,4.81,5.61,8.21,7.12s7.07,2.66,9.83,5.15,4.3,6.88,2.24,10c-3,4.49-11.21,3.63-13.06,8.68-.95,2.57.39,5.41.23,8.15-.19,3.44-2.8,6.39-5.9,7.89s-6.63,1.8-10.08,1.88c-6.06.15-12.38-.36-17.63-3.38s-9.11-9.15-7.85-15.08c1-4.86,5.25-9.36,3.78-14.1-1.06-3.43-4.66-5.27-7.24-7.77-5.46-5.29-6.32-14-4.11-21.28S317.72,210.14,320.43,198.87Z" transform="translate(-22.46 -73.43)"/><path class="cls-16" d="M327.91,273.66C319.27,287,304,302,298.5,301.31c-4.51-.6-9.12-6.93-9.12-18.1a8.13,8.13,0,0,0,1.87-1.08,10.32,10.32,0,0,0,3.22-4.34,8.12,8.12,0,0,0,.43-1.4,10.43,10.43,0,0,0-2.08-8.85c-.1-.11-.19-.22-.29-.32,7.31-6.64,14.61-11.34,21.9-16a33.6,33.6,0,0,0,2.8,11.9,21.58,21.58,0,0,0,1.23,2.34A19.19,19.19,0,0,0,327.91,273.66Z" transform="translate(-22.46 -73.43)"/><path class="cls-17" d="M317.21,263.06c-5.37,7.45-14.65,19.23-26,19.06a10.32,10.32,0,0,0,3.22-4.34,8.12,8.12,0,0,0,.43-1.4,10.43,10.43,0,0,0-2.08-8.85c-.1-.11-.19-.22-.29-.32,7.31-6.64,14.61-11.34,21.9-16A33.71,33.71,0,0,0,317.21,263.06Z" transform="translate(-22.46 -73.43)"/><path class="cls-18" d="M324.74,271.57s-12.35,26.27-27.08,27c-8.42.41-7-17.74-7-17.74s-14,6.59-18.1,11.62c-4.67,5.79-10.44,41-9.94,50.21.9,16.6,9.63,27.43,9.63,36.45s-6.55,30.68-6.55,30.68l89.26-.24a233.17,233.17,0,0,1-5.63-39.59c-.92-20.38,9.47-65.91,5.72-78.74C352.38,282.18,324.74,271.57,324.74,271.57Z" transform="translate(-22.46 -73.43)"/><path class="cls-19" d="M297.33,298.59s19.35-7.46,26.65-28.07c0,0,10.58,3.05,11.26,4.79,1.14,2.91-3.84,23.88-10.11,27C319.74,305,297.33,298.59,297.33,298.59Z" transform="translate(-22.46 -73.43)"/><path class="cls-19" d="M297.33,298.57s-6.37-9.13-3.88-19.92c0,0-5.64,1.94-8.68,4.69-4.46,4-12.2,20-10,21.53C276.23,306,297.33,298.57,297.33,298.57Z" transform="translate(-22.46 -73.43)"/><circle class="cls-19" cx="273.66" cy="234.23" r="2.67"/><circle class="cls-19" cx="271.77" cy="250.66" r="2.67"/><ellipse class="cls-20" cx="265.36" cy="240.95" rx="11.53" ry="16.49" transform="translate(-60.04 -24.04) rotate(-9.93)"/><path class="cls-16" d="M329.74,234.81c2.8-22.29-10.06-42.31-28.73-44.72s-38.86,13.54-38.86,36c0,30.27,12.08,49.64,30.18,46.1C309.7,268.81,326.94,257.1,329.74,234.81Z" transform="translate(-22.46 -73.43)"/><path class="cls-17" d="M326.25,232a20.43,20.43,0,0,1-14.44-10.38,9.87,9.87,0,0,1-3.65,9.41,4,4,0,0,1-3.75.91,4.32,4.32,0,0,1-2-2.28,16.69,16.69,0,0,1-1.26-10.71A21.19,21.19,0,0,1,286,231.08c-1.8.35-3.91.36-5.15-1a4.25,4.25,0,0,1-.59-4.26,12.45,12.45,0,0,1,2.5-3.74,30.55,30.55,0,0,1-21.47,5.23c2.49-10.25,8.73-19.74,17.73-25.25s20.79-6.63,30.28-2,16.05,15.16,15,25.67" transform="translate(-22.46 -73.43)"/><path class="cls-21" d="M327.2,245.13a74.78,74.78,0,0,0-3.43-12.38c-5.69-4.23-10-10.28-13-16.75,0,.24,0,.45,0,.69-.14,5.15-3.78,15-5.39,14-2.62-1.63-2.22-19.52-3.33-29.28A29.45,29.45,0,0,1,299.1,219a20.81,20.81,0,0,1-13.94,10.66,2.46,2.46,0,0,1-2.24-.38c-.66-.73-.33-1.87.05-2.76,3-7,5.95-14,8.88-21-2.32,5.41-5,10.7-9.55,14.2-5.1,3.95-11.91,5.69-19.49,5.62a42.94,42.94,0,0,0-.07,12A34.69,34.69,0,0,1,259,226a37.42,37.42,0,0,1,44.5-42.48,36.61,36.61,0,0,1,32.14,23.37A37.2,37.2,0,0,1,327.2,245.13Z" transform="translate(-22.46 -73.43)"/><path class="cls-22" d="M312,185c-11.7-.78-23.58,1.65-33.39,8-11.18,7.21-19.07,19.82-19.61,33a37.42,37.42,0,0,1,44.5-42.48A36.38,36.38,0,0,1,312,185Z" transform="translate(-22.46 -73.43)"/><path class="cls-10" d="M322.72,230.69s2.09-24-11.75-35c-16.75-13.28-39.29-4-39.29-4s-1.36-3.17,12.51-7.5c6.79-2.12,23.28-4.19,34.62,6.33,13.52,12.54,12.7,34.52,12.7,34.52Z" transform="translate(-22.46 -73.43)"/><path class="cls-20" d="M316.58,238.48c1.19-9,7.27-15.67,13.58-14.84s10.47,8.82,9.28,17.85-7.26,15.68-13.58,14.85S315.39,247.51,316.58,238.48Z" transform="translate(-22.46 -73.43)"/><path class="cls-23" d="M324.77,239.56c1.05-8.06,5.23-14.15,9.33-13.61s6.56,7.5,5.5,15.56-5.24,14.15-9.34,13.61S323.71,247.61,324.77,239.56Z" transform="translate(-22.46 -73.43)"/><path class="cls-24" d="M303.15,233.84a11.51,11.51,0,0,0-12.51-2.58" transform="translate(-22.46 -73.43)"/><path class="cls-24" d="M276.41,231.74c-3.9-3-9-1.91-11.18.7" transform="translate(-22.46 -73.43)"/><path class="cls-25" d="M279.62,242a30.46,30.46,0,0,0,.93,8.8" transform="translate(-22.46 -73.43)"/><ellipse class="cls-26" cx="272.71" cy="168.58" rx="1.73" ry="2.63"/><ellipse class="cls-26" cx="248.36" cy="168.58" rx="1.73" ry="2.63"/><path class="cls-27" d="M293.58,262.09a6.6,6.6,0,0,1-7-1.53,11.52,11.52,0,0,1-2.74-4.83l.43-.12,12.9-3.82a12.18,12.18,0,0,1,.6,1.75,8.93,8.93,0,0,1,.26,1.31C298.39,257.38,298,260.77,293.58,262.09Z" transform="translate(-22.46 -73.43)"/><path class="cls-28" d="M297.77,253.54a75.58,75.58,0,0,1-11.66,3.21,2.88,2.88,0,0,1-1.83-1.14l12.9-3.82A11.55,11.55,0,0,1,297.77,253.54Z" transform="translate(-22.46 -73.43)"/><path class="cls-29" d="M293.58,262.09a6.6,6.6,0,0,1-7-1.53A16.75,16.75,0,0,1,298,254.84C298.39,257.38,298,260.77,293.58,262.09Z" transform="translate(-22.46 -73.43)"/><path class="cls-30" d="M282.59,274.71a19.33,19.33,0,0,1-11.77-4.81A16.2,16.2,0,0,1,265,257" transform="translate(-22.46 -73.43)"/><ellipse class="cls-26" cx="262.23" cy="201.29" rx="5.34" ry="3.25"/><polygon class="cls-31" points="13.11 346.07 13.11 352.42 357.74 353.15 433.9 336.75 433.9 330.63 13.11 346.07"/><polygon class="cls-9" points="137.53 330.74 433.9 330.63 357.19 346.19 13.11 346.07 137.53 330.74"/><g class="cls-32"><path class="cls-33" d="M192.29,405.82c-6.42.79-13.66,1.29-21.27,1.55-7.37.29-15.08.39-22.85.39a27.08,27.08,0,0,1,11.74-15.61,23,23,0,0,1,5.69-2.45,22.25,22.25,0,0,1,13.53.39C185.39,392.39,191.08,399.26,192.29,405.82Z" transform="translate(-22.46 -73.43)"/><path class="cls-34" d="M171,407.37c-7.37.29-15.08.39-22.85.39a27.08,27.08,0,0,1,11.74-15.61,23,23,0,0,1,5.69-2.45,14.09,14.09,0,0,1,5.05,7.84A26.22,26.22,0,0,1,171,407.37Z" transform="translate(-22.46 -73.43)"/><path class="cls-16" d="M195.92,400a21.06,21.06,0,0,1-11.79,1.91c-1.66,2.17-10,9.21-12.16,7.34-1.66-1.44,4.38-7.33,5.6-9.57a12.09,12.09,0,0,0,1.64-5.37c-2.05-2.45-6.13-4.8-8.76-4.14-4.1,1-9.13,7-14.26,11.36a6.85,6.85,0,0,1-2.28,1.47,2.16,2.16,0,0,1-2.41-.68c-1-1.35-.18-3.42.7-4.88A66.72,66.72,0,0,1,169.91,378c8.66,1.07,14.55,3.24,22.37,6.72C194.38,389.31,196,395.42,195.92,400Z" transform="translate(-22.46 -73.43)"/></g><polygon class="cls-31" points="158.31 331.6 158.31 336.36 294.99 336.36 325.19 330.44 325.19 327.44 158.31 331.6"/><polygon class="cls-35" points="207.65 327.47 325.19 327.44 294.76 331.64 158.31 331.6 207.65 327.47"/><path class="cls-36" d="M340.15,374.6s-9.39,9.31-.17,24.51c0,0,8.13-1.57,8.86-11.11C349.3,381.9,340.15,374.6,340.15,374.6Z" transform="translate(-22.46 -73.43)"/><path class="cls-16" d="M345.71,389.94c-.31.56-4.24,1.1-7.08,1.38-.73.05-3.46,0-4,0,.44,3.2-1.27,5.38-3.06,5.82-2.2.56-4.46-.74-5.94-2.1-2.15,1.63-4.22,2.07-6.19,1s-3.73-4-4-6.95c-.43,2-.81,3.68-.54,4.66.36,1.34,5.18,7.93,1.7,9-1.6.51-6.88-5.17-7.48-7.66-.75-3.12-.62-6.82,1-11.51-3,3.63-4.1,5.43-4.42,7-.83,3.93-.18,10.92-2.95,10.69-3.3,0-3.92-10-2.57-14.24,1-3.08,7.12-12.79,10.43-13.61,3.06-.76,19.68-.08,22.8.38,1.56.24,3.11.4,4.54.53,3.92.34,7,.32,7.19.46C347.2,376.89,346.56,388.28,345.71,389.94Z" transform="translate(-22.46 -73.43)"/><path class="cls-17" d="M345.71,389.94c-.31.56-4.24,1.1-7.08,1.38A19.71,19.71,0,0,0,340,386.2a21,21,0,0,0-1.94-11.82c3.92.34,7,.32,7.19.46C347.2,376.89,346.56,388.28,345.71,389.94Z" transform="translate(-22.46 -73.43)"/><path class="cls-37" d="M321.45,383.08a20.88,20.88,0,0,0,3.76,11.18" transform="translate(-22.46 -73.43)"/><path class="cls-37" d="M334.3,391.17a6.09,6.09,0,0,1-2.09-1.27" transform="translate(-22.46 -73.43)"/><path class="cls-37" d="M332.14,388a6.66,6.66,0,0,1-.63,3.85" transform="translate(-22.46 -73.43)"/><path class="cls-18" d="M364.33,298.32c-2.61-6-10.55-11.53-18-15.63-.24.14-.48.27-.72.42-4.22,2.71-7.72,6.44-11,10.22-.14.16-.27.34-.4.5,2.05,13.51,4.64,30.68,5.58,37.06,2,13.34,16.75,39.11,16.55,41.81s-16.55,1.3-16.55,1.3c6.53,9.08,5,18.73-.1,24.87,0,0,42.33,2.42,47.43-4.25S368.14,307.06,364.33,298.32Z" transform="translate(-22.46 -73.43)"/><path class="cls-38" d="M346.6,292.7a92.52,92.52,0,0,0,2.63,63.55" transform="translate(-22.46 -73.43)"/><path class="cls-38" d="M332.07,327.79a46.7,46.7,0,0,0,15.36,24" transform="translate(-22.46 -73.43)"/><path class="cls-38" d="M340.79,373.87a28.92,28.92,0,0,0,7.36.71" transform="translate(-22.46 -73.43)"/><path class="cls-38" d="M352.31,399.33c-4.55,0-7.48-.14-11.91-.37" transform="translate(-22.46 -73.43)"/><polygon class="cls-31" points="45.8 315.59 40.34 191.05 211.09 191.05 216.54 315.59 45.8 315.59"/><polygon class="cls-35" points="210.69 315.59 205.24 191.05 211.09 191.05 216.54 315.59 210.69 315.59"/><polygon class="cls-33" points="95 340.28 110.92 273.4 141.88 273.4 125.94 340.28 95 340.28"/><polygon class="cls-35" points="123.95 340.28 139.88 273.4 141.88 273.4 125.94 340.28 123.95 340.28"/><rect class="cls-33" x="80.31" y="333.29" width="63.11" height="6.99"/><rect class="cls-35" x="139.35" y="333.29" width="4.07" height="6.99"/></svg>