<svg xmlns="http://www.w3.org/2000/svg" viewBox="0 0 644.2 428.11"><defs><style>.cls-1{isolation:isolate;}.cls-2{fill:#fef200;}.cls-3{fill:#bcc4e9;}.cls-4{fill:#abaab0;}.cls-5{fill:#fff;}.cls-6{fill:#9a999e;}.cls-14,.cls-21,.cls-7{fill:none;stroke:#9a999e;stroke-miterlimit:10;}.cls-7{stroke-width:0.49px;}.cls-8{fill:#e7e8ea;}.cls-9{fill:#cccbd3;}.cls-10{fill:#ffa40a;}.cls-11{fill:#c6c5cc;}.cls-12,.cls-24{fill:#a1a0a6;}.cls-13{fill:#8f8f94;}.cls-14{stroke-width:1.54px;}.cls-15{fill:#4a4146;}.cls-16,.cls-30{fill:#646469;}.cls-17{fill:#ffa200;}.cls-18{fill:#ffaf24;mix-blend-mode:soft-light;}.cls-19{fill:#c28101;}.cls-20{fill:#0086fb;}.cls-21{stroke-width:1.79px;}.cls-22{fill:#b1b1b8;}.cls-23{fill:#bbbac2;}.cls-24,.cls-26,.cls-35,.cls-38{mix-blend-mode:multiply;}.cls-24,.cls-26{opacity:0.57;}.cls-25,.cls-26{fill:#bebdc4;}.cls-27{fill:#8b8a8f;}.cls-28{fill:#d7d6de;}.cls-29{fill:#c8c7cf;}.cls-30{font-size:9.56px;font-family:BebasNeue-Regular, BebasNeue Regular;}.cls-31{letter-spacing:-0.01em;}.cls-32{letter-spacing:0.01em;}.cls-33{fill:#faad3b;}.cls-34{fill:#f1592a;}.cls-35{fill:#634518;opacity:0.28;}.cls-36{fill:#fcb501;}.cls-37{fill:#ca7e35;}.cls-38{fill:#f79c0d;opacity:0.33;}.cls-39{fill:#97969c;}.cls-40{fill:#aaa9b0;}.cls-41{fill:#bababf;}.cls-42{fill:#7f7e82;}</style></defs><g class="cls-1"><g id="OBJECTS"><circle class="cls-2" cx="375.77" cy="118.53" r="83.63" transform="translate(160.09 441.68) rotate(-82.84)"/><path class="cls-3" d="M190.56,121.88a27.52,27.52,0,0,0-54.88,0Z" transform="translate(-51.21 -34.91)"/><path class="cls-3" d="M220.5,121.88a27.55,27.55,0,1,0-47.11,0Z" transform="translate(-51.21 -34.91)"/><path class="cls-3" d="M253,121.88a27.51,27.51,0,0,0-54.35,0Z" transform="translate(-51.21 -34.91)"/><path class="cls-3" d="M548.78,121.88a27.52,27.52,0,0,0-54.88,0Z" transform="translate(-51.21 -34.91)"/><path class="cls-3" d="M578.72,121.88a27.55,27.55,0,1,0-47.11,0Z" transform="translate(-51.21 -34.91)"/><path class="cls-3" d="M611.22,121.88a27.51,27.51,0,0,0-54.35,0Z" transform="translate(-51.21 -34.91)"/><rect class="cls-4" x="315.72" y="70.85" width="76.8" height="304.95"/><rect class="cls-5" x="320.07" y="103.79" width="9.51" height="10.76"/><rect class="cls-5" x="334.2" y="103.79" width="9.51" height="10.76"/><rect class="cls-5" x="348.34" y="103.79" width="9.51" height="10.76"/><rect class="cls-5" x="362.47" y="103.79" width="9.51" height="10.76"/><rect class="cls-5" x="376.6" y="103.79" width="9.51" height="10.76"/><rect class="cls-5" x="320.07" y="134.71" width="9.51" height="10.76"/><rect class="cls-5" x="334.2" y="134.71" width="9.51" height="10.76"/><rect class="cls-5" x="348.34" y="134.71" width="9.51" height="10.76"/><rect class="cls-5" x="362.47" y="134.71" width="9.51" height="10.76"/><rect class="cls-5" x="376.6" y="134.71" width="9.51" height="10.76"/><rect class="cls-5" x="320.07" y="165.63" width="9.51" height="10.76"/><rect class="cls-5" x="334.2" y="165.63" width="9.51" height="10.76"/><rect class="cls-5" x="348.34" y="165.63" width="9.51" height="10.76"/><rect class="cls-5" x="362.47" y="165.63" width="9.51" height="10.76"/><rect class="cls-5" x="376.6" y="165.63" width="9.51" height="10.76"/><rect class="cls-5" x="320.07" y="196.55" width="9.51" height="10.76"/><rect class="cls-5" x="334.2" y="196.55" width="9.51" height="10.76"/><rect class="cls-5" x="348.34" y="196.55" width="9.51" height="10.76"/><rect class="cls-5" x="362.47" y="196.55" width="9.51" height="10.76"/><rect class="cls-5" x="376.6" y="196.55" width="9.51" height="10.76"/><rect class="cls-5" x="320.07" y="227.46" width="9.51" height="10.76"/><rect class="cls-5" x="334.2" y="227.46" width="9.51" height="10.76"/><rect class="cls-5" x="348.34" y="227.46" width="9.51" height="10.76"/><rect class="cls-5" x="362.47" y="227.46" width="9.51" height="10.76"/><rect class="cls-5" x="376.6" y="227.46" width="9.51" height="10.76"/><rect class="cls-5" x="320.07" y="258.38" width="9.51" height="10.76"/><rect class="cls-5" x="334.2" y="258.38" width="9.51" height="10.76"/><rect class="cls-5" x="348.34" y="258.38" width="9.51" height="10.76"/><rect class="cls-5" x="362.47" y="258.38" width="9.51" height="10.76"/><rect class="cls-5" x="376.6" y="258.38" width="9.51" height="10.76"/><rect class="cls-5" x="324.82" y="278.06" width="18.89" height="92.43"/><rect class="cls-5" x="362.53" y="278.06" width="18.89" height="92.43"/><polygon class="cls-6" points="557.71 376.02 557.71 304.47 565.23 304.47 565.23 376.02 565.72 376.02 565.72 304.03 557.23 304.03 557.23 376.02 557.71 376.02"/><rect class="cls-6" x="557.47" y="311.98" width="8" height="0.49"/><line class="cls-7" x1="557.71" y1="304.51" x2="565.47" y2="312.22"/><line class="cls-7" x1="565.47" y1="304.51" x2="557.71" y2="312.22"/><rect class="cls-6" x="557.47" y="319.92" width="8" height="0.49"/><line class="cls-7" x1="557.71" y1="312.46" x2="565.47" y2="320.17"/><line class="cls-7" x1="565.47" y1="312.46" x2="557.71" y2="320.17"/><rect class="cls-6" x="557.47" y="327.87" width="8" height="0.49"/><line class="cls-7" x1="557.71" y1="320.41" x2="565.47" y2="328.11"/><line class="cls-7" x1="565.47" y1="320.41" x2="557.71" y2="328.11"/><rect class="cls-6" x="557.47" y="335.82" width="8" height="0.49"/><line class="cls-7" x1="557.71" y1="328.36" x2="565.47" y2="336.06"/><line class="cls-7" x1="565.47" y1="328.36" x2="557.71" y2="336.06"/><rect class="cls-6" x="557.47" y="343.77" width="8" height="0.49"/><line class="cls-7" x1="557.71" y1="336.31" x2="565.47" y2="344.01"/><line class="cls-7" x1="565.47" y1="336.31" x2="557.71" y2="344.01"/><rect class="cls-6" x="557.47" y="351.71" width="8" height="0.49"/><line class="cls-7" x1="557.71" y1="344.25" x2="565.47" y2="351.96"/><line class="cls-7" x1="565.47" y1="344.25" x2="557.71" y2="351.96"/><rect class="cls-6" x="557.47" y="359.66" width="8" height="0.49"/><line class="cls-7" x1="557.71" y1="352.2" x2="565.47" y2="359.91"/><line class="cls-7" x1="565.47" y1="352.2" x2="557.71" y2="359.91"/><rect class="cls-6" x="557.47" y="367.61" width="8" height="0.49"/><line class="cls-7" x1="557.71" y1="360.15" x2="565.47" y2="367.85"/><line class="cls-7" x1="565.47" y1="360.15" x2="557.71" y2="367.85"/><rect class="cls-6" x="557.23" y="375.56" width="8.49" height="0.49"/><line class="cls-7" x1="557.71" y1="368.1" x2="565.47" y2="375.8"/><line class="cls-7" x1="565.47" y1="368.1" x2="557.71" y2="375.8"/><polygon class="cls-8" points="290.52 375.8 226.29 375.8 226.29 91.25 290.52 120.75 290.52 375.8"/><rect class="cls-5" x="229.93" y="148.31" width="7.95" height="9"/><rect class="cls-5" x="241.75" y="148.31" width="7.95" height="9"/><rect class="cls-5" x="253.57" y="148.31" width="7.95" height="9"/><rect class="cls-5" x="265.39" y="148.31" width="7.95" height="9"/><rect class="cls-5" x="277.21" y="148.31" width="7.95" height="9"/><rect class="cls-5" x="229.93" y="174.16" width="7.95" height="9"/><rect class="cls-5" x="241.75" y="174.16" width="7.95" height="9"/><rect class="cls-5" x="253.57" y="174.16" width="7.95" height="9"/><rect class="cls-5" x="265.39" y="174.16" width="7.95" height="9"/><rect class="cls-5" x="277.21" y="174.16" width="7.95" height="9"/><rect class="cls-5" x="229.93" y="200.02" width="7.95" height="9"/><rect class="cls-5" x="241.75" y="200.02" width="7.95" height="9"/><rect class="cls-5" x="253.57" y="200.02" width="7.95" height="9"/><rect class="cls-5" x="265.39" y="200.02" width="7.95" height="9"/><rect class="cls-5" x="277.21" y="200.02" width="7.95" height="9"/><rect class="cls-5" x="229.93" y="225.88" width="7.95" height="9"/><rect class="cls-5" x="241.75" y="225.88" width="7.95" height="9"/><rect class="cls-5" x="253.57" y="225.88" width="7.95" height="9"/><rect class="cls-5" x="265.39" y="225.88" width="7.95" height="9"/><rect class="cls-5" x="277.21" y="225.88" width="7.95" height="9"/><rect class="cls-5" x="229.93" y="251.74" width="7.95" height="9"/><rect class="cls-5" x="241.75" y="251.74" width="7.95" height="9"/><rect class="cls-5" x="253.57" y="251.74" width="7.95" height="9"/><rect class="cls-5" x="265.39" y="251.74" width="7.95" height="9"/><rect class="cls-5" x="277.21" y="251.74" width="7.95" height="9"/><rect class="cls-5" x="229.93" y="277.6" width="7.95" height="9"/><rect class="cls-5" x="241.75" y="277.6" width="7.95" height="9"/><rect class="cls-5" x="253.57" y="277.6" width="7.95" height="9"/><rect class="cls-5" x="265.39" y="277.6" width="7.95" height="9"/><rect class="cls-5" x="277.21" y="277.6" width="7.95" height="9"/><rect class="cls-5" x="233.91" y="294.05" width="15.8" height="77.3"/><rect class="cls-5" x="265.44" y="294.05" width="15.8" height="77.3"/><rect class="cls-6" x="568.94" y="290.1" width="26.36" height="88.39"/><path class="cls-5" d="M642.31,374.2h-18a2,2,0,0,1-2-1.95h0a1.94,1.94,0,0,1,2-1.94h18a2,2,0,0,1,2,1.94h0A2,2,0,0,1,642.31,374.2Z" transform="translate(-51.21 -34.91)"/><path class="cls-5" d="M642.31,347.51h-18a2,2,0,0,1-2-1.95h0a2,2,0,0,1,2-1.95h18a2,2,0,0,1,2,1.95h0A2,2,0,0,1,642.31,347.51Z" transform="translate(-51.21 -34.91)"/><path class="cls-5" d="M642.31,400.9h-18a2,2,0,0,1-2-1.95h0a2,2,0,0,1,2-1.95h18a2,2,0,0,1,2,1.95h0A2,2,0,0,1,642.31,400.9Z" transform="translate(-51.21 -34.91)"/><rect class="cls-9" x="572.01" y="292.75" width="20.21" height="14.51" rx="4.84"/><rect class="cls-9" x="572.01" y="316.24" width="20.21" height="14.51" rx="4.84"/><rect class="cls-9" x="572.01" y="343.32" width="20.21" height="14.51" rx="4.84"/><rect class="cls-3" x="140.74" y="189.64" width="46.87" height="186.12"/><rect class="cls-5" x="146.15" y="192.89" width="10.96" height="181.49"/><rect class="cls-5" x="170.83" y="192.89" width="10.96" height="181.49"/><polygon class="cls-10" points="124.95 353.91 124.95 148.04 103.33 148.04 103.33 353.91 101.93 353.91 101.93 146.78 126.35 146.78 126.35 353.91 124.95 353.91"/><rect class="cls-10" x="102.63" y="169.65" width="23.02" height="1.4"/><rect class="cls-10" x="149.27" y="193.47" width="31.46" height="1.4" transform="translate(-140.11 137.73) rotate(-44.79)"/><rect class="cls-10" x="164.3" y="178.44" width="1.4" height="31.46" transform="translate(-140.25 139.55) rotate(-45.21)"/><rect class="cls-10" x="102.63" y="192.51" width="23.02" height="1.4"/><rect class="cls-10" x="149.27" y="216.34" width="31.46" height="1.4" transform="translate(-156.22 144.38) rotate(-44.8)"/><rect class="cls-10" x="164.3" y="201.31" width="1.4" height="31.46" transform="translate(-156.48 146.31) rotate(-45.21)"/><rect class="cls-10" x="102.63" y="215.38" width="23.02" height="1.4"/><rect class="cls-10" x="149.27" y="239.2" width="31.46" height="1.4" transform="translate(-172.29 150.82) rotate(-44.76)"/><rect class="cls-10" x="164.3" y="224.17" width="1.4" height="31.46" transform="translate(-172.71 153.06) rotate(-45.21)"/><rect class="cls-10" x="102.63" y="238.24" width="23.02" height="1.4"/><rect class="cls-10" x="149.27" y="262.07" width="31.46" height="1.4" transform="translate(-188.39 157.43) rotate(-44.75)"/><rect class="cls-10" x="164.3" y="247.04" width="1.4" height="31.46" transform="translate(-188.94 159.82) rotate(-45.21)"/><rect class="cls-10" x="102.63" y="261.11" width="23.02" height="1.4"/><rect class="cls-10" x="149.27" y="284.93" width="31.46" height="1.4" transform="translate(-204.49 164.07) rotate(-44.76)"/><rect class="cls-10" x="164.3" y="269.9" width="1.4" height="31.46" transform="translate(-205.16 166.57) rotate(-45.21)"/><rect class="cls-10" x="102.63" y="283.97" width="23.02" height="1.4"/><rect class="cls-10" x="149.27" y="307.8" width="31.46" height="1.4" transform="translate(-220.59 170.69) rotate(-44.75)"/><rect class="cls-10" x="164.3" y="292.77" width="1.4" height="31.46" transform="translate(-221.39 173.33) rotate(-45.21)"/><rect class="cls-10" x="102.63" y="306.84" width="23.02" height="1.4"/><rect class="cls-10" x="149.27" y="330.67" width="31.46" height="1.4" transform="translate(-236.68 177.31) rotate(-44.75)"/><rect class="cls-10" x="164.3" y="315.64" width="1.4" height="31.46" transform="translate(-237.62 180.09) rotate(-45.21)"/><rect class="cls-10" x="102.63" y="329.71" width="23.02" height="1.4"/><rect class="cls-10" x="149.27" y="353.53" width="31.46" height="1.4" transform="translate(-252.79 183.96) rotate(-44.76)"/><rect class="cls-10" x="164.3" y="338.5" width="1.4" height="31.46" transform="translate(-253.84 186.84) rotate(-45.21)"/><rect class="cls-10" x="101.93" y="352.57" width="24.43" height="1.4"/><rect class="cls-10" x="149.27" y="376.4" width="31.46" height="1.4" transform="translate(-268.88 190.57) rotate(-44.75)"/><rect class="cls-10" x="164.3" y="361.37" width="1.4" height="31.46" transform="translate(-270.07 193.59) rotate(-45.21)"/><rect class="cls-10" x="251.48" y="170.51" width="11.08" height="22.71"/><rect class="cls-10" x="256.19" y="191.57" width="1.65" height="11.26"/><rect class="cls-10" x="256.19" y="217.57" width="1.65" height="3.86"/><path class="cls-10" d="M308.68,253.17h-.9a3.57,3.57,0,0,1-3.57-3.57V240a3.57,3.57,0,0,1,3.57-3.57h.9a3.57,3.57,0,0,1,3.57,3.57v9.57A3.57,3.57,0,0,1,308.68,253.17Zm-.9-15.31a2.17,2.17,0,0,0-2.17,2.17v9.57a2.17,2.17,0,0,0,2.17,2.17h.9a2.17,2.17,0,0,0,2.17-2.17V240a2.18,2.18,0,0,0-2.17-2.17Z" transform="translate(-51.21 -34.91)"/><rect class="cls-10" x="214.49" y="170.51" width="11.08" height="22.71"/><rect class="cls-10" x="219.07" y="191.57" width="1.65" height="11.26"/><rect class="cls-10" x="219.07" y="217.57" width="1.65" height="3.86"/><path class="cls-10" d="M271.55,253.17h-.89a3.58,3.58,0,0,1-3.58-3.57V240a3.58,3.58,0,0,1,3.58-3.57h.89a3.57,3.57,0,0,1,3.57,3.57v9.57A3.57,3.57,0,0,1,271.55,253.17Zm-.89-15.31a2.18,2.18,0,0,0-2.18,2.17v9.57a2.18,2.18,0,0,0,2.18,2.17h.89a2.17,2.17,0,0,0,2.17-2.17V240a2.17,2.17,0,0,0-2.17-2.17Z" transform="translate(-51.21 -34.91)"/><path class="cls-10" d="M166.19,183.09H153V151.34h13.18Zm-11.78-1.4h10.38V152.74H154.41Z" transform="translate(-51.21 -34.91)"/><rect class="cls-10" x="102.5" y="125.83" width="11.78" height="1.4"/><rect class="cls-10" x="102.5" y="136.49" width="11.64" height="1.48"/><polygon class="cls-10" points="286.06 148.18 58.17 148.18 58.17 169.81 286.06 169.81 286.06 171.21 56.77 171.21 56.77 146.78 286.06 146.78 286.06 148.18"/><rect class="cls-10" x="79.64" y="147.48" width="1.4" height="23.02"/><rect class="cls-10" x="101.8" y="147.48" width="1.4" height="23.02"/><rect class="cls-10" x="119.76" y="178.52" width="1.4" height="31.46" transform="translate(-153.09 106.37) rotate(-44.8)"/><rect class="cls-10" x="104.73" y="193.55" width="31.46" height="1.4" transform="translate(-153.47 107.99) rotate(-45.21)"/><rect class="cls-10" x="141.93" y="178.52" width="1.4" height="31.46" transform="translate(-146.66 121.99) rotate(-44.79)"/><rect class="cls-10" x="126.9" y="193.55" width="31.46" height="1.4" transform="translate(-146.92 123.7) rotate(-45.21)"/><rect class="cls-10" x="124.67" y="147.48" width="1.4" height="23.02"/><rect class="cls-10" x="164.79" y="178.52" width="1.4" height="31.46" transform="translate(-140.02 138.1) rotate(-44.8)"/><rect class="cls-10" x="149.76" y="193.55" width="31.46" height="1.4" transform="translate(-140.16 139.92) rotate(-45.21)"/><rect class="cls-10" x="147.53" y="147.48" width="1.4" height="23.02"/><rect class="cls-10" x="187.66" y="178.52" width="1.4" height="31.46" transform="translate(-133.38 154.21) rotate(-44.79)"/><rect class="cls-10" x="172.63" y="193.55" width="31.46" height="1.4" transform="translate(-133.41 156.15) rotate(-45.21)"/><rect class="cls-10" x="170.4" y="147.48" width="1.4" height="23.02"/><rect class="cls-10" x="210.53" y="178.52" width="1.4" height="31.46" transform="translate(-126.74 170.32) rotate(-44.79)"/><rect class="cls-10" x="195.5" y="193.55" width="31.46" height="1.4" transform="translate(-126.65 172.39) rotate(-45.21)"/><rect class="cls-10" x="193.26" y="147.48" width="1.4" height="23.02"/><rect class="cls-10" x="233.39" y="178.52" width="1.4" height="31.46" transform="translate(-120.1 186.43) rotate(-44.8)"/><rect class="cls-10" x="218.36" y="193.55" width="31.46" height="1.4" transform="translate(-119.9 188.6) rotate(-45.21)"/><rect class="cls-10" x="216.13" y="147.48" width="1.4" height="23.02"/><rect class="cls-10" x="256.26" y="178.52" width="1.4" height="31.46" transform="translate(-113.46 202.54) rotate(-44.79)"/><rect class="cls-10" x="241.23" y="193.55" width="31.46" height="1.4" transform="translate(-113.14 204.83) rotate(-45.21)"/><rect class="cls-10" x="239" y="147.48" width="1.4" height="23.02"/><rect class="cls-10" x="279.12" y="178.52" width="1.4" height="31.46" transform="translate(-106.82 218.65) rotate(-44.8)"/><rect class="cls-10" x="264.09" y="193.55" width="31.46" height="1.4" transform="translate(-106.38 221.07) rotate(-45.21)"/><rect class="cls-10" x="261.86" y="147.48" width="1.4" height="23.02"/><rect class="cls-10" x="301.99" y="178.52" width="1.4" height="31.46" transform="translate(-100.18 234.76) rotate(-44.79)"/><rect class="cls-10" x="286.96" y="193.55" width="31.46" height="1.4" transform="translate(-99.63 237.3) rotate(-45.21)"/><rect class="cls-10" x="284.73" y="146.78" width="1.4" height="24.43"/><rect class="cls-10" x="324.85" y="178.52" width="1.4" height="31.46" transform="translate(-93.54 250.87) rotate(-44.79)"/><rect class="cls-10" x="309.82" y="193.55" width="31.46" height="1.4" transform="translate(-92.87 253.52) rotate(-45.21)"/><path class="cls-10" d="M109.38,206.12H51.21L57,199.73l52.34-8.41Zm-55.07-1.37H108V192.93L57.73,201Z" transform="translate(-51.21 -34.91)"/><path class="cls-10" d="M67.8,206.12a.7.7,0,0,1-.46-.18l-5.57-5.16L59,205.6a.69.69,0,0,1-1.16,0l-2.32-3.46a.69.69,0,0,1,.19-1,.68.68,0,0,1,.95.19l1.7,2.54L61,199.35a.7.7,0,0,1,.5-.33.65.65,0,0,1,.56.17l5.62,5.21,4.57-6.6a.68.68,0,0,1,.48-.29.66.66,0,0,1,.54.18l7.35,6.73L87.7,195a.66.66,0,0,1,.49-.27.65.65,0,0,1,.53.19l9.82,9.49,8.9-11.71a.67.67,0,0,1,1-.13.69.69,0,0,1,.14,1l-9.36,12.32a.73.73,0,0,1-.49.27.71.71,0,0,1-.53-.19l-9.82-9.49-7.06,9.4a.67.67,0,0,1-.48.28.7.7,0,0,1-.53-.18l-7.32-6.71-4.58,6.59a.65.65,0,0,1-.48.29Z" transform="translate(-51.21 -34.91)"/><rect class="cls-10" x="51.66" y="175.46" width="107.77" height="1.48" transform="translate(-119.07 31.21) rotate(-26.67)"/><rect class="cls-10" x="250.14" y="80.49" width="1.49" height="173.45" transform="translate(-8.86 350.06) rotate(-79.92)"/><circle class="cls-11" cx="268.96" cy="269.35" r="11.62" transform="translate(-106.43 433.94) rotate(-76.65)"/><rect class="cls-11" x="216.53" y="222.83" width="50.48" height="23.24"/><circle class="cls-12" cx="316.42" cy="269.35" r="11.62" transform="translate(-148.99 267.73) rotate(-45)"/><path class="cls-12" d="M275.27,281a12,12,0,1,1-.18-23.24h5.31a14.25,14.25,0,1,0,.06,23.24Z" transform="translate(-51.21 -34.91)"/><path class="cls-12" d="M311.23,281a11.89,11.89,0,0,1-3.06.41,12,12,0,1,1,2.89-23.65h5.3a14.25,14.25,0,1,0,.06,23.24Z" transform="translate(-51.21 -34.91)"/><circle class="cls-13" cx="265.21" cy="234.44" r="9.3"/><rect class="cls-3" x="506.54" y="286.98" width="45.4" height="88.32"/><rect class="cls-5" x="509.72" y="290.76" width="5.62" height="6.36"/><rect class="cls-5" x="518.08" y="290.76" width="5.62" height="6.36"/><rect class="cls-5" x="526.43" y="290.76" width="5.62" height="6.36"/><rect class="cls-5" x="534.78" y="290.76" width="5.62" height="6.36"/><rect class="cls-5" x="543.14" y="290.76" width="5.62" height="6.36"/><rect class="cls-5" x="509.72" y="299.89" width="5.62" height="6.36"/><rect class="cls-5" x="518.08" y="299.89" width="5.62" height="6.36"/><rect class="cls-5" x="526.43" y="299.89" width="5.62" height="6.36"/><rect class="cls-5" x="534.78" y="299.89" width="5.62" height="6.36"/><rect class="cls-5" x="543.14" y="299.89" width="5.62" height="6.36"/><rect class="cls-5" x="509.72" y="309.03" width="5.62" height="6.36"/><rect class="cls-5" x="518.08" y="309.03" width="5.62" height="6.36"/><rect class="cls-5" x="526.43" y="309.03" width="5.62" height="6.36"/><rect class="cls-5" x="534.78" y="309.03" width="5.62" height="6.36"/><rect class="cls-5" x="543.14" y="309.03" width="5.62" height="6.36"/><rect class="cls-5" x="509.72" y="318.17" width="5.62" height="6.36"/><rect class="cls-5" x="518.08" y="318.17" width="5.62" height="6.36"/><rect class="cls-5" x="526.43" y="318.17" width="5.62" height="6.36"/><rect class="cls-5" x="534.78" y="318.17" width="5.62" height="6.36"/><rect class="cls-5" x="543.14" y="318.17" width="5.62" height="6.36"/><rect class="cls-5" x="509.72" y="327.31" width="5.62" height="6.36"/><rect class="cls-5" x="518.08" y="327.31" width="5.62" height="6.36"/><rect class="cls-5" x="526.43" y="327.31" width="5.62" height="6.36"/><rect class="cls-5" x="534.78" y="327.31" width="5.62" height="6.36"/><rect class="cls-5" x="543.14" y="327.31" width="5.62" height="6.36"/><rect class="cls-5" x="509.72" y="336.44" width="5.62" height="6.36"/><rect class="cls-5" x="518.08" y="336.44" width="5.62" height="6.36"/><rect class="cls-5" x="526.43" y="336.44" width="5.62" height="6.36"/><rect class="cls-5" x="534.78" y="336.44" width="5.62" height="6.36"/><rect class="cls-5" x="543.14" y="336.44" width="5.62" height="6.36"/><rect class="cls-5" x="509.72" y="345.58" width="5.62" height="6.36"/><rect class="cls-5" x="518.08" y="345.58" width="5.62" height="6.36"/><rect class="cls-5" x="526.43" y="345.58" width="5.62" height="6.36"/><rect class="cls-5" x="534.78" y="345.58" width="5.62" height="6.36"/><rect class="cls-5" x="543.14" y="345.58" width="5.62" height="6.36"/><rect class="cls-5" x="509.72" y="354.72" width="5.62" height="6.36"/><rect class="cls-5" x="518.08" y="354.72" width="5.62" height="6.36"/><rect class="cls-5" x="526.43" y="354.72" width="5.62" height="6.36"/><rect class="cls-5" x="534.78" y="354.72" width="5.62" height="6.36"/><rect class="cls-5" x="543.14" y="354.72" width="5.62" height="6.36"/><rect class="cls-5" x="509.72" y="363.86" width="5.62" height="6.36"/><rect class="cls-5" x="518.08" y="363.86" width="5.62" height="6.36"/><rect class="cls-5" x="526.43" y="363.86" width="5.62" height="6.36"/><rect class="cls-5" x="534.78" y="363.86" width="5.62" height="6.36"/><rect class="cls-5" x="543.14" y="363.86" width="5.62" height="6.36"/><rect class="cls-3" x="193.96" y="253.69" width="62.75" height="122.08"/><rect class="cls-5" x="198.36" y="258.91" width="7.77" height="8.79"/><rect class="cls-5" x="209.91" y="258.91" width="7.77" height="8.79"/><rect class="cls-5" x="221.45" y="258.91" width="7.77" height="8.79"/><rect class="cls-5" x="233" y="258.91" width="7.77" height="8.79"/><rect class="cls-5" x="244.55" y="258.91" width="7.77" height="8.79"/><rect class="cls-5" x="198.36" y="271.54" width="7.77" height="8.79"/><rect class="cls-5" x="209.91" y="271.54" width="7.77" height="8.79"/><rect class="cls-5" x="221.45" y="271.54" width="7.77" height="8.79"/><rect class="cls-5" x="233" y="271.54" width="7.77" height="8.79"/><rect class="cls-5" x="244.55" y="271.54" width="7.77" height="8.79"/><rect class="cls-5" x="198.36" y="284.17" width="7.77" height="8.79"/><rect class="cls-5" x="209.91" y="284.17" width="7.77" height="8.79"/><rect class="cls-5" x="221.45" y="284.17" width="7.77" height="8.79"/><rect class="cls-5" x="233" y="284.17" width="7.77" height="8.79"/><rect class="cls-5" x="244.55" y="284.17" width="7.77" height="8.79"/><rect class="cls-5" x="198.36" y="296.8" width="7.77" height="8.79"/><rect class="cls-5" x="209.91" y="296.8" width="7.77" height="8.79"/><rect class="cls-5" x="221.45" y="296.8" width="7.77" height="8.79"/><rect class="cls-5" x="233" y="296.8" width="7.77" height="8.79"/><rect class="cls-5" x="244.55" y="296.8" width="7.77" height="8.79"/><rect class="cls-5" x="198.36" y="309.43" width="7.77" height="8.79"/><rect class="cls-5" x="209.91" y="309.43" width="7.77" height="8.79"/><rect class="cls-5" x="221.45" y="309.43" width="7.77" height="8.79"/><rect class="cls-5" x="233" y="309.43" width="7.77" height="8.79"/><rect class="cls-5" x="244.55" y="309.43" width="7.77" height="8.79"/><rect class="cls-5" x="198.36" y="322.06" width="7.77" height="8.79"/><rect class="cls-5" x="209.91" y="322.06" width="7.77" height="8.79"/><rect class="cls-5" x="221.45" y="322.06" width="7.77" height="8.79"/><rect class="cls-5" x="233" y="322.06" width="7.77" height="8.79"/><rect class="cls-5" x="244.55" y="322.06" width="7.77" height="8.79"/><rect class="cls-5" x="198.36" y="334.69" width="7.77" height="8.79"/><rect class="cls-5" x="209.91" y="334.69" width="7.77" height="8.79"/><rect class="cls-5" x="221.45" y="334.69" width="7.77" height="8.79"/><rect class="cls-5" x="233" y="334.69" width="7.77" height="8.79"/><rect class="cls-5" x="244.55" y="334.69" width="7.77" height="8.79"/><rect class="cls-5" x="198.36" y="347.32" width="7.77" height="8.79"/><rect class="cls-5" x="209.91" y="347.32" width="7.77" height="8.79"/><rect class="cls-5" x="221.45" y="347.32" width="7.77" height="8.79"/><rect class="cls-5" x="233" y="347.32" width="7.77" height="8.79"/><rect class="cls-5" x="244.55" y="347.32" width="7.77" height="8.79"/><rect class="cls-5" x="198.36" y="359.95" width="7.77" height="8.79"/><rect class="cls-5" x="209.91" y="359.95" width="7.77" height="8.79"/><rect class="cls-5" x="221.45" y="359.95" width="7.77" height="8.79"/><rect class="cls-5" x="233" y="359.95" width="7.77" height="8.79"/><rect class="cls-5" x="244.55" y="359.95" width="7.77" height="8.79"/><path class="cls-14" d="M440.4,166.05" transform="translate(-51.21 -34.91)"/><rect class="cls-8" x="422.63" y="120.75" width="64.23" height="255.04"/><rect class="cls-5" x="426.27" y="148.31" width="7.95" height="9"/><rect class="cls-5" x="438.09" y="148.31" width="7.95" height="9"/><rect class="cls-5" x="449.91" y="148.31" width="7.95" height="9"/><rect class="cls-5" x="461.73" y="148.31" width="7.95" height="9"/><rect class="cls-5" x="473.55" y="148.31" width="7.95" height="9"/><rect class="cls-5" x="426.27" y="174.16" width="7.95" height="9"/><rect class="cls-5" x="438.09" y="174.16" width="7.95" height="9"/><rect class="cls-5" x="449.91" y="174.16" width="7.95" height="9"/><rect class="cls-5" x="461.73" y="174.16" width="7.95" height="9"/><rect class="cls-5" x="473.55" y="174.16" width="7.95" height="9"/><rect class="cls-5" x="426.27" y="200.02" width="7.95" height="9"/><rect class="cls-5" x="438.09" y="200.02" width="7.95" height="9"/><rect class="cls-5" x="449.91" y="200.02" width="7.95" height="9"/><rect class="cls-5" x="461.73" y="200.02" width="7.95" height="9"/><rect class="cls-5" x="473.55" y="200.02" width="7.95" height="9"/><rect class="cls-5" x="426.27" y="225.88" width="7.95" height="9"/><rect class="cls-5" x="438.09" y="225.88" width="7.95" height="9"/><rect class="cls-5" x="449.91" y="225.88" width="7.95" height="9"/><rect class="cls-5" x="461.73" y="225.88" width="7.95" height="9"/><rect class="cls-5" x="473.55" y="225.88" width="7.95" height="9"/><rect class="cls-5" x="426.27" y="251.74" width="7.95" height="9"/><rect class="cls-5" x="438.09" y="251.74" width="7.95" height="9"/><rect class="cls-5" x="449.91" y="251.74" width="7.95" height="9"/><rect class="cls-5" x="461.73" y="251.74" width="7.95" height="9"/><rect class="cls-5" x="473.55" y="251.74" width="7.95" height="9"/><rect class="cls-5" x="426.27" y="277.6" width="7.95" height="9"/><rect class="cls-5" x="438.09" y="277.6" width="7.95" height="9"/><rect class="cls-5" x="449.91" y="277.6" width="7.95" height="9"/><rect class="cls-5" x="461.73" y="277.6" width="7.95" height="9"/><rect class="cls-5" x="473.55" y="277.6" width="7.95" height="9"/><rect class="cls-5" x="430.24" y="294.05" width="15.8" height="77.3"/><rect class="cls-5" x="461.78" y="294.05" width="15.8" height="77.3"/><polygon class="cls-6" points="493.35 361.12 493.35 289.56 500.87 289.56 500.87 361.12 501.35 361.12 501.35 289.12 492.86 289.12 492.86 361.12 493.35 361.12"/><rect class="cls-6" x="493.11" y="297.07" width="8" height="0.49"/><line class="cls-7" x1="493.35" y1="289.61" x2="501.11" y2="297.31"/><line class="cls-7" x1="501.11" y1="289.61" x2="493.35" y2="297.31"/><rect class="cls-6" x="493.11" y="305.02" width="8" height="0.49"/><line class="cls-7" x1="493.35" y1="297.56" x2="501.11" y2="305.26"/><line class="cls-7" x1="501.11" y1="297.56" x2="493.35" y2="305.26"/><rect class="cls-6" x="493.11" y="312.97" width="8" height="0.49"/><line class="cls-7" x1="493.35" y1="305.5" x2="501.11" y2="313.21"/><line class="cls-7" x1="501.11" y1="305.5" x2="493.35" y2="313.21"/><rect class="cls-6" x="493.11" y="320.91" width="8" height="0.49"/><line class="cls-7" x1="493.35" y1="313.45" x2="501.11" y2="321.16"/><line class="cls-7" x1="501.11" y1="313.45" x2="493.35" y2="321.16"/><rect class="cls-6" x="493.11" y="328.86" width="8" height="0.49"/><line class="cls-7" x1="493.35" y1="321.4" x2="501.11" y2="329.1"/><line class="cls-7" x1="501.11" y1="321.4" x2="493.35" y2="329.1"/><rect class="cls-6" x="493.11" y="336.81" width="8" height="0.49"/><line class="cls-7" x1="493.35" y1="329.35" x2="501.11" y2="337.05"/><line class="cls-7" x1="501.11" y1="329.35" x2="493.35" y2="337.05"/><rect class="cls-6" x="493.11" y="344.76" width="8" height="0.49"/><line class="cls-7" x1="493.35" y1="337.3" x2="501.11" y2="345"/><line class="cls-7" x1="501.11" y1="337.3" x2="493.35" y2="345"/><rect class="cls-6" x="493.11" y="352.7" width="8" height="0.49"/><line class="cls-7" x1="493.35" y1="345.24" x2="501.11" y2="352.95"/><line class="cls-7" x1="501.11" y1="345.24" x2="493.35" y2="352.95"/><rect class="cls-6" x="492.86" y="360.65" width="8.49" height="0.49"/><line class="cls-7" x1="493.35" y1="353.19" x2="501.11" y2="360.9"/><line class="cls-7" x1="501.11" y1="353.19" x2="493.35" y2="360.9"/><polygon class="cls-10" points="463.48 354.22 463.48 206.69 478.98 206.69 478.98 354.22 479.99 354.22 479.99 205.78 462.48 205.78 462.48 354.22 463.48 354.22"/><rect class="cls-10" x="462.98" y="222.17" width="16.5" height="1"/><rect class="cls-10" x="522.19" y="238.37" width="1" height="22.55" transform="translate(-73.94 409.78) rotate(-45.21)"/><rect class="cls-10" x="511.42" y="249.14" width="22.55" height="1" transform="translate(-75.22 406.15) rotate(-44.83)"/><rect class="cls-10" x="462.98" y="238.56" width="16.5" height="1"/><rect class="cls-10" x="522.19" y="254.75" width="1" height="22.55" transform="translate(-85.57 414.61) rotate(-45.21)"/><rect class="cls-10" x="511.42" y="265.52" width="22.55" height="1" transform="translate(-86.95 410.37) rotate(-44.77)"/><rect class="cls-10" x="462.98" y="254.94" width="16.5" height="1"/><rect class="cls-10" x="522.19" y="271.14" width="1" height="22.55" transform="translate(-97.19 419.46) rotate(-45.21)"/><rect class="cls-10" x="511.42" y="281.91" width="22.55" height="1" transform="translate(-98.49 415.12) rotate(-44.77)"/><rect class="cls-10" x="462.98" y="271.33" width="16.5" height="1"/><rect class="cls-10" x="522.19" y="287.52" width="1" height="22.55" transform="translate(-108.82 424.31) rotate(-45.21)"/><rect class="cls-10" x="511.42" y="298.3" width="22.55" height="1" transform="translate(-110.03 419.88) rotate(-44.77)"/><rect class="cls-10" x="462.98" y="287.72" width="16.5" height="1"/><rect class="cls-10" x="522.19" y="303.91" width="1" height="22.55" transform="translate(-120.45 429.14) rotate(-45.21)"/><rect class="cls-10" x="511.42" y="314.68" width="22.55" height="1" transform="translate(-121.57 424.63) rotate(-44.77)"/><rect class="cls-10" x="462.98" y="304.1" width="16.5" height="1"/><rect class="cls-10" x="522.19" y="320.3" width="1" height="22.54" transform="translate(-132.07 434.01) rotate(-45.21)"/><rect class="cls-10" x="511.42" y="331.07" width="22.54" height="1" transform="translate(-133.11 429.38) rotate(-44.77)"/><rect class="cls-10" x="462.98" y="320.49" width="16.5" height="1"/><rect class="cls-10" x="522.19" y="336.68" width="1" height="22.55" transform="translate(-143.71 438.83) rotate(-45.21)"/><rect class="cls-10" x="511.42" y="347.45" width="22.55" height="1" transform="translate(-144.65 434.13) rotate(-44.77)"/><rect class="cls-10" x="462.98" y="336.87" width="16.5" height="1"/><rect class="cls-10" x="522.19" y="353.07" width="1" height="22.55" transform="translate(-155.34 443.67) rotate(-45.21)"/><rect class="cls-10" x="511.42" y="363.84" width="22.55" height="1" transform="translate(-156.19 438.89) rotate(-44.77)"/><rect class="cls-10" x="462.48" y="353.26" width="17.5" height="1"/><rect class="cls-10" x="522.19" y="369.45" width="1" height="22.55" transform="translate(-166.96 448.51) rotate(-45.21)"/><rect class="cls-10" x="511.42" y="380.23" width="22.55" height="1" transform="translate(-167.73 443.64) rotate(-44.77)"/><path class="cls-10" d="M531.28,241.7h-9.44V218.94h9.44Zm-8.44-1h7.44V220h-7.44Z" transform="translate(-51.21 -34.91)"/><rect class="cls-10" x="471.13" y="190.78" width="8.44" height="1"/><rect class="cls-10" x="471.23" y="198.41" width="8.34" height="1.06"/><polygon class="cls-10" points="348.03 206.79 511.34 206.79 511.34 222.29 348.03 222.29 348.03 223.29 512.35 223.29 512.35 205.78 348.03 205.78 348.03 206.79"/><rect class="cls-10" x="494.96" y="206.29" width="1" height="16.5"/><rect class="cls-10" x="479.07" y="206.29" width="1" height="16.5"/><polygon class="cls-10" points="495.81 223.14 495.1 222.43 510.99 206.44 511.7 207.14 495.81 223.14"/><polygon class="cls-10" points="510.99 223.14 495.1 207.14 495.81 206.44 511.7 222.43 510.99 223.14"/><polygon class="cls-10" points="479.93 223.14 479.22 222.43 495.1 206.44 495.81 207.14 479.93 223.14"/><polygon class="cls-10" points="495.1 223.14 479.22 207.14 479.93 206.44 495.81 222.43 495.1 223.14"/><rect class="cls-10" x="462.69" y="206.29" width="1" height="16.5"/><polygon class="cls-10" points="463.54 223.14 462.83 222.43 478.71 206.44 479.43 207.14 463.54 223.14"/><polygon class="cls-10" points="478.71 223.14 462.83 207.14 463.54 206.44 479.43 222.43 478.71 223.14"/><rect class="cls-10" x="446.3" y="206.29" width="1" height="16.5"/><polygon class="cls-10" points="447.16 223.14 446.44 222.43 462.33 206.44 463.04 207.14 447.16 223.14"/><polygon class="cls-10" points="462.33 223.14 446.44 207.14 447.16 206.44 463.04 222.43 462.33 223.14"/><rect class="cls-10" x="429.91" y="206.29" width="1" height="16.5"/><polygon class="cls-10" points="430.77 223.14 430.06 222.43 445.94 206.44 446.66 207.14 430.77 223.14"/><polygon class="cls-10" points="445.94 223.14 430.06 207.14 430.77 206.44 446.66 222.43 445.94 223.14"/><rect class="cls-10" x="413.53" y="206.29" width="1" height="16.5"/><polygon class="cls-10" points="414.38 223.14 413.67 222.43 429.56 206.44 430.27 207.14 414.38 223.14"/><polygon class="cls-10" points="429.56 223.14 413.67 207.14 414.38 206.44 430.27 222.43 429.56 223.14"/><rect class="cls-10" x="397.14" y="206.29" width="1" height="16.5"/><polygon class="cls-10" points="398 223.14 397.29 222.43 413.17 206.44 413.88 207.14 398 223.14"/><polygon class="cls-10" points="413.17 223.14 397.29 207.14 398 206.44 413.88 222.43 413.17 223.14"/><rect class="cls-10" x="380.76" y="206.29" width="1" height="16.5"/><polygon class="cls-10" points="381.61 223.14 380.9 222.43 396.78 206.44 397.5 207.14 381.61 223.14"/><polygon class="cls-10" points="396.78 223.14 380.9 207.14 381.61 206.44 397.5 222.43 396.78 223.14"/><rect class="cls-10" x="364.37" y="206.29" width="1" height="16.5"/><polygon class="cls-10" points="365.23 223.14 364.51 222.43 380.4 206.44 381.11 207.14 365.23 223.14"/><polygon class="cls-10" points="380.4 223.14 364.51 207.14 365.23 206.44 381.11 222.43 380.4 223.14"/><rect class="cls-10" x="347.98" y="205.79" width="1" height="17.5"/><polygon class="cls-10" points="348.84 223.14 348.13 222.43 364.01 206.44 364.73 207.14 348.84 223.14"/><polygon class="cls-10" points="364.01 223.14 348.13 207.14 348.84 206.44 364.73 222.43 364.01 223.14"/><path class="cls-10" d="M604.24,258.2H562.55V247.6l37.51,6Zm-40.71-1H602l-2.45-2.68-36-5.79Z" transform="translate(-51.21 -34.91)"/><path class="cls-10" d="M583.09,258.2H583a.51.51,0,0,1-.35-.2l-5.05-6.73-7,6.79a.5.5,0,0,1-.38.14.48.48,0,0,1-.35-.19l-6.71-8.83a.49.49,0,0,1,.78-.6l6.38,8.39,7-6.8a.53.53,0,0,1,.38-.13.52.52,0,0,1,.36.19l5.06,6.75,5.27-4.82a.53.53,0,0,1,.39-.13.52.52,0,0,1,.35.21l3.27,4.73,4-3.73a.45.45,0,0,1,.41-.13.47.47,0,0,1,.35.24l1.91,3.3,1.22-1.82a.49.49,0,1,1,.81.55l-1.66,2.47a.45.45,0,0,1-.42.22.5.5,0,0,1-.41-.24l-2-3.46-4,3.7a.45.45,0,0,1-.38.13.52.52,0,0,1-.36-.21l-3.27-4.73-5.25,4.81A.51.51,0,0,1,583.09,258.2Z" transform="translate(-51.21 -34.91)"/><rect class="cls-10" x="564.77" y="198.15" width="1.06" height="77.23" transform="translate(48.95 600.94) rotate(-63.35)"/><polygon class="cls-10" points="348.84 206.81 348.65 205.76 471.04 184.01 471.22 185.06 348.84 206.81"/><path class="cls-15" d="M527.09,374.17l2.59-1.82a.87.87,0,0,1,.47-.15h3.38a.82.82,0,0,1,.82.82v2.17a.83.83,0,0,1-.87.82l-6-.35A.82.82,0,0,1,527.09,374.17Z" transform="translate(-51.21 -34.91)"/><rect class="cls-16" x="483.42" y="360.12" width="10.31" height="7.7"/><polygon class="cls-16" points="492.44 360.12 492.44 367.27 521.11 367.27 521.11 360.65 492.44 360.12"/><path class="cls-17" d="M554.6,403.86l5.35-7.18h21.8l2.48,3.59v2.23a1.36,1.36,0,0,1-1.36,1.36Z" transform="translate(-51.21 -34.91)"/><path class="cls-10" d="M583.15,402.78v.08a2.57,2.57,0,0,1-2.56,2.57H540.31a2.56,2.56,0,0,1-2.55-2.57v-.08c0-.11,0-.22,0-.32a2.55,2.55,0,0,1,2.53-2.24h40.28a2.55,2.55,0,0,1,2.53,2.24A1.66,1.66,0,0,1,583.15,402.78Z" transform="translate(-51.21 -34.91)"/><path class="cls-10" d="M541.48,403.11v2.32H518a3,3,0,0,1-3-3v-3.79a3.64,3.64,0,0,1,3.64-3.64H533.4a8.1,8.1,0,0,1,4.9,1.65,8,8,0,0,1,2.65,3.54,8,8,0,0,1,.51,2.24C541.47,402.68,541.48,402.89,541.48,403.11Z" transform="translate(-51.21 -34.91)"/><path class="cls-15" d="M583.15,402.78v.08a2.57,2.57,0,0,1-2.56,2.57H518a3,3,0,0,1-3-3h68.17A1.66,1.66,0,0,1,583.15,402.78Z" transform="translate(-51.21 -34.91)"/><path class="cls-18" d="M540.33,398.94H515v-.27a3.64,3.64,0,0,1,.59-2H538.3A8.41,8.41,0,0,1,540.33,398.94Z" transform="translate(-51.21 -34.91)"/><path class="cls-16" d="M570.33,403.86a6.31,6.31,0,1,1-6.31-6.31A6.31,6.31,0,0,1,570.33,403.86Z" transform="translate(-51.21 -34.91)"/><path class="cls-15" d="M567.11,403.86a3.09,3.09,0,1,1-3.09-3.09A3.08,3.08,0,0,1,567.11,403.86Z" transform="translate(-51.21 -34.91)"/><path class="cls-19" d="M565.67,403.86a1.65,1.65,0,1,1-1.65-1.65A1.64,1.64,0,0,1,565.67,403.86Z" transform="translate(-51.21 -34.91)"/><path class="cls-16" d="M583.36,403.86a6.31,6.31,0,1,1-6.31-6.31A6.32,6.32,0,0,1,583.36,403.86Z" transform="translate(-51.21 -34.91)"/><path class="cls-15" d="M580.13,403.86a3.08,3.08,0,1,1-3.08-3.09A3.08,3.08,0,0,1,580.13,403.86Z" transform="translate(-51.21 -34.91)"/><path class="cls-19" d="M578.7,403.86a1.65,1.65,0,1,1-1.65-1.65A1.64,1.64,0,0,1,578.7,403.86Z" transform="translate(-51.21 -34.91)"/><path class="cls-15" d="M585.38,402.46a1.25,1.25,0,0,1-1-.55l-2.68-4H560l-3,4a1.25,1.25,0,1,1-2-1.5l3.38-4.53a1.25,1.25,0,0,1,1-.5h22.93a1.29,1.29,0,0,1,1,.55l3,4.53a1.26,1.26,0,0,1-.34,1.74A1.27,1.27,0,0,1,585.38,402.46Z" transform="translate(-51.21 -34.91)"/><path class="cls-17" d="M538.72,378.61v13.48a4.08,4.08,0,0,1-4.08,4.07H517.77a4.07,4.07,0,0,1-4.06-3.74c0-.11,0-.22,0-.33v-3.63a4,4,0,0,1,.44-1.83l.26-.52,4.34-8.6.14-.27a4.07,4.07,0,0,1,3.47-2.23l7.75-.3,4.4-.17A4.08,4.08,0,0,1,538.72,378.61Z" transform="translate(-51.21 -34.91)"/><path class="cls-18" d="M531.58,380.48c0,7-6,12.64-13.45,12.64a14.26,14.26,0,0,1-4.42-.7c0-.11,0-.22,0-.33v-3.63a4,4,0,0,1,.44-1.83l.26-.52,4.34-8.6.14-.27a4.07,4.07,0,0,1,3.47-2.23l7.75-.3A11.94,11.94,0,0,1,531.58,380.48Z" transform="translate(-51.21 -34.91)"/><path class="cls-15" d="M530.42,380.64v2.65a3.13,3.13,0,0,1-3.13,3.12H515.74a3.18,3.18,0,0,1-1.35-.3l.41-.8,3.48-6.89.45-.91h8.56A3.13,3.13,0,0,1,530.42,380.64Z" transform="translate(-51.21 -34.91)"/><path class="cls-20" d="M528.22,380.22v3.46a1.42,1.42,0,0,1-1.49,1.34H517a2.59,2.59,0,0,1-.63-.06l3.38-6.09h6.94a1.5,1.5,0,0,1,1.19.56A1.21,1.21,0,0,1,528.22,380.22Z" transform="translate(-51.21 -34.91)"/><polygon class="cls-5" points="473.3 343.96 468.69 350.12 466.77 350.12 471.46 343.96 473.3 343.96"/><path class="cls-5" d="M527.92,379.43,523.73,385h-1.92l4.69-6.15h.23A1.5,1.5,0,0,1,527.92,379.43Z" transform="translate(-51.21 -34.91)"/><rect class="cls-18" x="472.95" y="352.87" width="6.26" height="1.12"/><rect class="cls-18" x="481.91" y="352.95" width="2.46" height="1.26"/><rect class="cls-18" x="481.91" y="343.43" width="2.46" height="1.45"/><rect class="cls-18" x="481.91" y="351.08" width="2.46" height="1.26"/><rect class="cls-18" x="481.91" y="349.22" width="2.46" height="1.26"/><rect class="cls-18" x="481.91" y="347.35" width="2.46" height="1.26"/><rect class="cls-18" x="481.91" y="345.49" width="2.46" height="1.26"/><rect class="cls-18" x="466" y="356.4" width="18.37" height="0.98"/><rect class="cls-18" x="466" y="357.97" width="18.37" height="0.49"/><path class="cls-16" d="M533.12,403.86a6.31,6.31,0,1,1-6.31-6.31A6.32,6.32,0,0,1,533.12,403.86Z" transform="translate(-51.21 -34.91)"/><path class="cls-15" d="M529.89,403.86a3.09,3.09,0,1,1-3.08-3.09A3.08,3.08,0,0,1,529.89,403.86Z" transform="translate(-51.21 -34.91)"/><path class="cls-19" d="M528.45,403.86a1.65,1.65,0,0,1-3.29,0,1.65,1.65,0,1,1,3.29,0Z" transform="translate(-51.21 -34.91)"/><path class="cls-15" d="M534.33,405.11a1.25,1.25,0,0,1-1.26-1.25,6.27,6.27,0,1,0-12.53,0,1.25,1.25,0,0,1-2.5,0,8.77,8.77,0,0,1,17.54,0A1.25,1.25,0,0,1,534.33,405.11Z" transform="translate(-51.21 -34.91)"/><path class="cls-6" d="M359.72,251.77h0a36.17,36.17,0,0,0-36,32.6h72A36.18,36.18,0,0,0,359.72,251.77Z" transform="translate(-51.21 -34.91)"/><path class="cls-9" d="M323.73,284.37a35.31,35.31,0,0,0-.18,3.58V412.53h21.38V387.74H372.4v24.79h23.5V288c0-1.21-.07-2.4-.18-3.58Zm17.54,115.89H328.75V387.74h12.52Zm0-18.76H328.75V369h12.52Zm0-18.76H328.75V350.22h12.52Zm0-18.76H328.75V331.46h12.52Zm16.19,37.52H344.93V369h12.53Zm0-18.76H344.93V350.22h12.53Zm0-18.76H344.93V331.46h12.53Zm16.18,37.52H361.12V369h12.52Zm0-18.76H361.12V350.22h12.52Zm0-18.76H361.12V331.46h12.52Zm16.19,56.28H377.3V387.74h12.53Zm0-18.76H377.3V369h12.53Zm0-18.76H377.3V350.22h12.53Zm0-18.76H377.3V331.46h12.53Z" transform="translate(-51.21 -34.91)"/><rect class="cls-6" x="277.54" y="296.55" width="12.53" height="12.53"/><rect class="cls-6" x="293.72" y="296.55" width="12.53" height="12.53"/><rect class="cls-6" x="309.91" y="296.55" width="12.53" height="12.53"/><rect class="cls-6" x="326.09" y="296.55" width="12.53" height="12.53"/><rect class="cls-6" x="277.54" y="315.31" width="12.53" height="12.53"/><rect class="cls-6" x="293.72" y="315.31" width="12.53" height="12.53"/><rect class="cls-6" x="309.91" y="315.31" width="12.53" height="12.53"/><rect class="cls-6" x="326.09" y="315.31" width="12.53" height="12.53"/><rect class="cls-6" x="277.54" y="334.07" width="12.53" height="12.53"/><rect class="cls-6" x="293.72" y="334.07" width="12.53" height="12.53"/><rect class="cls-6" x="309.91" y="334.07" width="12.53" height="12.53"/><rect class="cls-6" x="326.09" y="334.07" width="12.53" height="12.53"/><rect class="cls-6" x="277.54" y="352.83" width="12.53" height="12.53"/><rect class="cls-6" x="293.72" y="352.83" width="27.47" height="24.8"/><rect class="cls-6" x="326.09" y="352.83" width="12.53" height="12.53"/><rect class="cls-6" x="532.87" y="297.31" width="20.24" height="81.04"/><rect class="cls-9" x="532.87" y="302.38" width="20.24" height="4.39"/><rect class="cls-9" x="532.87" y="312.57" width="20.24" height="7.38"/><rect class="cls-9" x="532.87" y="326.74" width="20.24" height="4.4"/><rect class="cls-9" x="532.87" y="336.93" width="20.24" height="7.39"/><rect class="cls-9" x="532.87" y="351.1" width="20.24" height="4.4"/><rect class="cls-9" x="532.87" y="361.29" width="20.24" height="7.39"/><rect class="cls-5" x="541.68" y="297.31" width="2.62" height="81.04"/><rect class="cls-6" x="532.87" y="221.96" width="20.24" height="81.04"/><rect class="cls-9" x="532.87" y="227.04" width="20.24" height="4.39"/><rect class="cls-9" x="532.87" y="237.22" width="20.24" height="7.38"/><rect class="cls-9" x="532.87" y="251.4" width="20.24" height="4.4"/><rect class="cls-9" x="532.87" y="261.58" width="20.24" height="7.39"/><rect class="cls-9" x="532.87" y="275.76" width="20.24" height="4.4"/><rect class="cls-9" x="532.87" y="285.94" width="20.24" height="7.39"/><rect class="cls-5" x="541.68" y="221.96" width="2.62" height="81.04"/><line class="cls-21" x1="404.14" y1="235.34" x2="404.14" y2="268.56"/><line class="cls-21" x1="398.85" y1="235.34" x2="398.85" y2="268.56"/><line class="cls-21" x1="393.55" y1="235.34" x2="393.55" y2="268.56"/><line class="cls-21" x1="388.25" y1="235.34" x2="388.25" y2="268.56"/><line class="cls-21" x1="382.95" y1="235.34" x2="382.95" y2="268.56"/><line class="cls-21" x1="377.65" y1="235.34" x2="377.65" y2="268.56"/><rect class="cls-22" x="368.95" y="264.78" width="42.26" height="112.84"/><rect class="cls-6" x="371.99" y="268.04" width="7.32" height="8.79"/><rect class="cls-6" x="381.44" y="268.04" width="7.32" height="8.79"/><rect class="cls-6" x="390.9" y="268.04" width="7.32" height="8.79"/><rect class="cls-6" x="400.35" y="268.04" width="7.32" height="8.79"/><rect class="cls-6" x="371.99" y="281.21" width="7.32" height="8.79"/><rect class="cls-6" x="381.44" y="281.21" width="7.32" height="8.79"/><rect class="cls-6" x="390.9" y="281.21" width="7.32" height="8.79"/><rect class="cls-6" x="400.35" y="281.21" width="7.32" height="8.79"/><rect class="cls-6" x="371.99" y="294.38" width="7.32" height="8.79"/><rect class="cls-6" x="381.44" y="294.38" width="7.32" height="8.79"/><rect class="cls-6" x="390.9" y="294.38" width="7.32" height="8.79"/><rect class="cls-6" x="400.35" y="294.38" width="7.32" height="8.79"/><rect class="cls-6" x="371.99" y="307.55" width="7.32" height="8.79"/><rect class="cls-6" x="381.44" y="307.55" width="7.32" height="8.79"/><rect class="cls-6" x="390.9" y="307.55" width="7.32" height="8.79"/><rect class="cls-6" x="400.35" y="307.55" width="7.32" height="8.79"/><rect class="cls-6" x="371.99" y="320.71" width="7.32" height="8.79"/><rect class="cls-6" x="381.44" y="320.71" width="7.32" height="8.79"/><rect class="cls-6" x="390.9" y="320.71" width="7.32" height="8.79"/><rect class="cls-6" x="400.35" y="320.71" width="7.32" height="8.79"/><rect class="cls-6" x="371.99" y="333.88" width="7.32" height="8.79"/><rect class="cls-6" x="381.44" y="333.88" width="7.32" height="8.79"/><rect class="cls-6" x="390.9" y="333.88" width="7.32" height="8.79"/><rect class="cls-6" x="400.35" y="333.88" width="7.32" height="8.79"/><rect class="cls-6" x="371.99" y="347.05" width="7.32" height="8.79"/><rect class="cls-6" x="381.44" y="347.05" width="7.32" height="8.79"/><rect class="cls-6" x="390.9" y="347.05" width="7.32" height="8.79"/><rect class="cls-6" x="400.35" y="347.05" width="7.32" height="8.79"/><rect class="cls-6" x="371.99" y="360.22" width="7.32" height="8.79"/><rect class="cls-6" x="381.44" y="360.22" width="16.05" height="17.41"/><rect class="cls-6" x="400.35" y="360.22" width="7.32" height="8.79"/><path class="cls-23" d="M299.63,411.15H181.8c.82-1,1.54-1.82,1.94-2.33a34.24,34.24,0,0,1,8.77-8.12l.33-.19c5.1-3,11.09-4.35,16-7.58l.47-.3c4.08-2.81,7.26-6.74,10.72-10.33a7.54,7.54,0,0,1,.55-.58l.57-.59c3.7-3.63,8.15-6.86,13.27-7.31,4.16-.37,8.25,1.15,11.94,3.09a65.5,65.5,0,0,1,6.27,3.87c.86.6,1.72,1.23,2.56,1.85,2.51,1.87,4.95,3.84,7.41,5.79,1.45,1.15,2.91,2.29,4.39,3.39s2.75,2,4.16,3c1.05.7,2.11,1.36,3.21,2,5,3,10.35,5.61,15.52,8.43A93.28,93.28,0,0,1,299.63,411.15Z" transform="translate(-51.21 -34.91)"/><path class="cls-24" d="M274.41,396.77a61.17,61.17,0,0,1-9.74,3.83c-9,2.55-18.46,2.2-27.67,3.59-8.86,1.36-17.74,4.35-26.6,3-5.48-.84-10.56-3.32-15.55-5.76-.64-.31-1.31-.61-2-.92,5.1-3,11.09-4.35,16-7.58l.47-.3c4.08-2.81,7.26-6.74,10.72-10.33a7.54,7.54,0,0,1,.55-.58l.57-.59c3.7-3.63,8.15-6.86,13.27-7.31,4.16-.37,8.25,1.15,11.94,3.09a65.5,65.5,0,0,1,6.27,3.87c.86.6,1.72,1.23,2.56,1.85,2.51,1.87,4.95,3.84,7.41,5.79,1.45,1.15,2.91,2.29,4.39,3.39s2.75,2,4.16,3C272.25,395.47,273.31,396.13,274.41,396.77Z" transform="translate(-51.21 -34.91)"/><path class="cls-4" d="M267,391.81c-.9.05-1.8.13-2.7.25-5.4.71-10.56,2.6-15.89,3.71a55.53,55.53,0,0,1-23.07-.1c-4.15-.9-8.18-2.29-12.37-2.88a19,19,0,0,0-3.65-.16c4.08-2.81,7.26-6.74,10.72-10.33a7.54,7.54,0,0,1,.55-.58l.57-.59c3.7-3.63,8.15-6.86,13.27-7.31,4.16-.37,8.25,1.15,11.94,3.09a65.5,65.5,0,0,1,6.27,3.87c.86.6,1.72,1.23,2.56,1.85,2.51,1.87,4.95,3.84,7.41,5.79C264.1,389.57,265.56,390.71,267,391.81Z" transform="translate(-51.21 -34.91)"/><path class="cls-25" d="M223.35,411.66H105.51c.82-1,1.54-1.82,1.94-2.33a34.23,34.23,0,0,1,8.77-8.12l.34-.19c5.09-3,11.08-4.35,16-7.58.16-.1.32-.2.47-.31,4.09-2.8,7.26-6.73,10.72-10.33.18-.2.37-.39.55-.58l.57-.58c3.7-3.64,8.15-6.87,13.27-7.32,4.16-.36,8.25,1.15,11.95,3.1a64,64,0,0,1,6.27,3.87c.85.6,1.71,1.22,2.56,1.85,2.5,1.86,4.94,3.84,7.4,5.79,1.46,1.15,2.91,2.28,4.4,3.39s2.75,2,4.16,2.95c1,.7,2.11,1.37,3.2,2,5,3,10.36,5.6,15.52,8.42A91.82,91.82,0,0,1,223.35,411.66Z" transform="translate(-51.21 -34.91)"/><path class="cls-26" d="M198.12,397.28a61.37,61.37,0,0,1-9.74,3.83c-9,2.54-18.46,2.19-27.67,3.59-8.86,1.35-17.73,4.35-26.59,3-5.49-.85-10.57-3.32-15.56-5.76-.64-.31-1.31-.61-2-.92,5.09-3,11.08-4.35,16-7.58.16-.1.32-.2.47-.31,4.09-2.8,7.26-6.73,10.72-10.33.18-.2.37-.39.55-.58l.57-.58c3.7-3.64,8.15-6.87,13.27-7.32,4.16-.36,8.25,1.15,11.95,3.1a64,64,0,0,1,6.27,3.87c.85.6,1.71,1.22,2.56,1.85,2.5,1.86,4.94,3.84,7.4,5.79,1.46,1.15,2.91,2.28,4.4,3.39s2.75,2,4.16,2.95C196,396,197,396.64,198.12,397.28Z" transform="translate(-51.21 -34.91)"/><path class="cls-25" d="M190.76,392.32c-.91,0-1.81.13-2.71.25-5.4.71-10.56,2.6-15.89,3.71a55.53,55.53,0,0,1-23.07-.11c-4.15-.9-8.18-2.28-12.37-2.88a20.77,20.77,0,0,0-3.65-.16c4.09-2.8,7.26-6.73,10.72-10.33.18-.2.37-.39.55-.58l.57-.58c3.7-3.64,8.15-6.87,13.27-7.32,4.16-.36,8.25,1.15,11.95,3.1a64,64,0,0,1,6.27,3.87c.85.6,1.71,1.22,2.56,1.85,2.5,1.86,4.94,3.84,7.4,5.79C187.82,390.08,189.27,391.21,190.76,392.32Z" transform="translate(-51.21 -34.91)"/><rect class="cls-27" x="220.54" y="403.92" width="19.99" height="7.11" transform="translate(409.86 780.04) rotate(180)"/><rect class="cls-28" x="231.54" y="406.02" width="7.93" height="2.91" rx="0.21" transform="translate(419.8 780.04) rotate(180)"/><rect class="cls-28" x="221.6" y="406.02" width="8.93" height="2.91" rx="0.28" transform="translate(400.93 780.04) rotate(180)"/><rect class="cls-4" x="220.54" y="396.93" width="19.99" height="7.11" transform="translate(409.86 766.06) rotate(180)"/><rect class="cls-28" x="231.54" y="399.03" width="7.93" height="2.91" rx="0.21" transform="translate(419.8 766.06) rotate(180)"/><rect class="cls-28" x="221.6" y="399.03" width="8.93" height="2.91" rx="0.28" transform="translate(400.93 766.06) rotate(180)"/><rect class="cls-29" x="220.54" y="390.24" width="19.99" height="7.11" transform="translate(409.86 752.67) rotate(180)"/><rect class="cls-4" x="231.54" y="392.33" width="7.93" height="2.91" rx="0.21" transform="translate(419.8 752.67) rotate(180)"/><rect class="cls-4" x="221.6" y="392.33" width="8.93" height="2.91" rx="0.28" transform="translate(400.93 752.67) rotate(180)"/><rect class="cls-27" x="220.54" y="383.25" width="19.99" height="7.11" transform="translate(409.86 738.69) rotate(180)"/><rect class="cls-28" x="231.54" y="385.34" width="7.93" height="2.91" rx="0.21" transform="translate(419.8 738.69) rotate(180)"/><rect class="cls-28" x="221.6" y="385.34" width="8.93" height="2.91" rx="0.28" transform="translate(400.93 738.69) rotate(180)"/><rect class="cls-10" x="95.22" y="344.7" width="69.39" height="31.3"/><polygon class="cls-16" points="106.67 344.7 102.55 353.45 96.06 367.25 95.22 369.01 95.22 355.69 96.28 353.45 100.39 344.7 106.67 344.7"/><polygon class="cls-16" points="120.27 344.71 105.53 376 99.26 376 114 344.71 120.27 344.71"/><polygon class="cls-16" points="133.87 344.71 119.14 376 112.86 376 127.6 344.71 133.87 344.71"/><polygon class="cls-16" points="147.47 344.71 132.74 376 126.46 376 141.2 344.71 147.47 344.71"/><polygon class="cls-16" points="161.07 344.71 146.34 376 140.06 376 154.8 344.71 161.07 344.71"/><polygon class="cls-16" points="164.61 352.75 164.61 366.07 164.06 367.25 159.94 376 153.65 376 157.78 367.25 164.28 353.45 164.61 352.75"/><rect class="cls-10" x="95.22" y="351.7" width="69.39" height="17.31"/><text class="cls-30" transform="translate(97.84 364.15)">under <tspan class="cls-31" x="25.91" y="0">c</tspan><tspan x="30.13" y="0">onstru</tspan><tspan class="cls-32" x="56.03" y="0">c</tspan><tspan x="60.44" y="0">tion</tspan></text><path class="cls-28" d="M645.42,419.41H106.11a4.62,4.62,0,1,1,0-9.24H645.42a4.62,4.62,0,1,1,0,9.24Z" transform="translate(-51.21 -34.91)"/><path class="cls-33" d="M574.8,325.85h2a6.9,6.9,0,0,1,6.9,6.9v12.75a6.91,6.91,0,0,1-6.91,6.91h-2a6.91,6.91,0,0,1-6.91-6.91V332.76a6.91,6.91,0,0,1,6.91-6.91Z" transform="translate(-63.69 -12.77) rotate(-2.18)"/><path class="cls-34" d="M577.24,353h0a2.18,2.18,0,0,1-2.27-2.1l-.89-23.48a2.18,2.18,0,0,1,2.1-2.27h0a2.19,2.19,0,0,1,2.27,2.1l.89,23.48A2.18,2.18,0,0,1,577.24,353Z" transform="translate(-51.21 -34.91)"/><polygon class="cls-20" points="526.2 285.07 532.18 414.9 545.72 414.9 559.12 308.61 572.87 414.9 586.48 414.9 590.22 285.07 526.2 285.07"/><polygon class="cls-34" points="532.18 414.9 518.06 428.11 545.72 428.11 545.72 414.9 532.18 414.9"/><polygon class="cls-34" points="586.48 414.9 600.6 428.11 572.93 428.11 572.93 414.9 586.48 414.9"/><path class="cls-2" d="M640.26,233.69l0,.15-3.18,34.63v.09l0,.53-2.55,27.71-25.63-1.34L583.2,296.8l-1-11.36-.75-8.14-.53-5.74-.06-.64-.21-2.3h0l-.06-.72h0l-.41-4.47-2.73-29.73h0l12.07-6.8,5.24-3,1.51-.85,1.23-.7,1.4-.79L600,221l2.26-1.27h13.15L617.7,221l.93.52.08,0,1.88,1.06.2.11,7.79,4.39Z" transform="translate(-51.21 -34.91)"/><rect class="cls-33" x="548.79" y="170.24" width="17.7" height="22.84"/><path class="cls-35" d="M621.08,226.78l-.49,0c-1,0-2-.12-2.89-.23a28.76,28.76,0,0,1-5.89-1.28,22.24,22.24,0,0,1-5.08-2.4,19,19,0,0,1-3.79-3.17A14.14,14.14,0,0,1,600,215.1h0l3.51-1.86,6.52-3.48,1.06-.56h6.61V221l.93.52.08,0,1.88,1.06.2.11h0Z" transform="translate(-51.21 -34.91)"/><path class="cls-2" d="M627.08,226.29l-6.49,21-.26.86-11,13.35-.5.6L600,256.55l-2.54-6L592,237.71l2.75-13.78,1.51-.85,1.23-.7,1.4-.79s.37.33,1,.8l.12.08c2,1.42,6.56,4,11.81,2.78a14.25,14.25,0,0,0,5.89-2.95q.46-.37.93-.81l2,1.12.2.11.24.13Z" transform="translate(-51.21 -34.91)"/><path class="cls-33" d="M581.74,268.62s-6.39,16.14-7.93,19.89-7.26,8.29-7.26,8.29H536c4.69-2.09,14.27-6.57,18-9.84,5.06-4.4,12.55-27.52,12.55-27.52Z" transform="translate(-51.21 -34.91)"/><path class="cls-33" d="M682.59,296.8c-4.69-2.08-14.27-6.57-18-9.84-5.06-4.4-12.55-27.52-12.55-27.52l-15.19,9.18s6.38,16.14,7.93,19.89S652,296.8,652,296.8Z" transform="translate(-51.21 -34.91)"/><polygon class="cls-2" points="526.2 198.78 508.39 223.33 529.4 233.71 533.73 204.13 526.2 198.78"/><polygon class="cls-2" points="588.93 198.78 606.74 223.33 585.72 233.71 581.4 204.13 588.93 198.78"/><polygon class="cls-5" points="586.25 228.52 585.52 236.66 529.67 236.66 528.93 228.52 586.25 228.52"/><polygon class="cls-5" points="585 242.4 584.28 250.53 530.95 250.53 530.2 242.4 585 242.4"/><path class="cls-33" d="M592.08,200.52c.22,2.39,1.68,4.21,3.26,4.06s1.11-1.93.89-4.32-.1-4.46-1.68-4.32S591.87,198.14,592.08,200.52Z" transform="translate(-51.21 -34.91)"/><path class="cls-33" d="M621.07,203.14a21.07,21.07,0,0,1-.78,6.51c-1.4,3.35-4.63,5.52-6.06,7.27a3.6,3.6,0,0,0-.31.4c-1.23,1.82-4.63,2.41-5.91,2.35s-4.68-.53-5.91-2.35-4.86-4.06-6.37-7.67-.39-16.61-.39-16.61l8.85-1.68,3.82-.73L620.68,193s.06.71.14,1.85C621,196.86,621.12,200.11,621.07,203.14Z" transform="translate(-51.21 -34.91)"/><path class="cls-16" d="M592.25,190.06s4.35,10.73,16.2,9.05c0,0-3.28-4.36-2.44-9.24l-14.46.19" transform="translate(-51.21 -34.91)"/><polygon class="cls-16" points="545.82 158.56 545.26 169.06 542.83 158.17 545.82 158.56"/><path class="cls-16" d="M600.05,190.82s7.09,9.34,18.94,7.66a29.38,29.38,0,0,1-.4-10.2l-16.5,1.15" transform="translate(-51.21 -34.91)"/><polygon class="cls-16" points="566.49 158.17 567.13 169.06 569.74 162.24 569.61 157.29 566.49 158.17"/><path class="cls-33" d="M624.74,200.52c-.22,2.39-1.68,4.21-3.26,4.06s-1.91-1.93-1.69-4.32.91-4.46,2.49-4.32S625,198.14,624.74,200.52Z" transform="translate(-51.21 -34.91)"/><path class="cls-36" d="M627.08,189.37a24,24,0,0,1-.18,2.83H589.65a24,24,0,0,1-.17-2.83,22,22,0,0,1,6.74-16.11l.3-.27a18.82,18.82,0,0,1,4.17-2.83,17.14,17.14,0,0,1,7.59-1.77A17.56,17.56,0,0,1,620,173l.3.27a21.53,21.53,0,0,1,6.44,12.35A23.27,23.27,0,0,1,627.08,189.37Z" transform="translate(-51.21 -34.91)"/><path class="cls-37" d="M620.33,173.27c-.18.26-.35.54-.51.82l-.21.34-.18.36-.35.7c-.21.49-.43,1-.62,1.46s-.34,1-.5,1.5l-.41,1.53c-.2,1-.42,2.06-.52,3.11l-.1.79,0,.38,0,.4-.09,1.57c0,.53,0,1.06,0,1.58l0,1.57c.06,1,.13,1.89.2,2.82h-1.93c0-.94,0-1.88,0-2.81l.11-1.63c0-.54.05-1.09.14-1.63l.21-1.62.05-.4.08-.4.16-.8a30.58,30.58,0,0,1,.79-3.17l.54-1.55c.2-.51.42-1,.64-1.5s.49-1,.74-1.46l.43-.71.21-.35.23-.33c.2-.29.41-.57.63-.85Z" transform="translate(-51.21 -34.91)"/><path class="cls-37" d="M599.79,187.81c0-.52,0-1.05,0-1.58l-.08-1.57,0-.4,0-.38-.09-.79c-.1-1.05-.33-2.07-.53-3.11l-.4-1.53c-.16-.5-.34-1-.51-1.5s-.4-1-.61-1.46l-.36-.7-.18-.36-.2-.34c-.16-.28-.33-.56-.51-.82a2.68,2.68,0,0,1,.3-.28c.22.28.42.56.62.85l.24.33.21.35.42.71c.26.48.51,1,.75,1.46s.43,1,.64,1.5l.53,1.55a30.58,30.58,0,0,1,.79,3.17l.16.8.08.4.06.4.21,1.62c.08.54.09,1.09.14,1.63l.1,1.63c0,.93,0,1.87,0,2.81h-1.93c.08-.93.14-1.87.21-2.82Z" transform="translate(-51.21 -34.91)"/><path class="cls-37" d="M589.65,192.2s14.93,3.92,37.25,0Z" transform="translate(-51.21 -34.91)"/><path class="cls-38" d="M627.08,189.37a24,24,0,0,1-.18,2.83H589.65a24,24,0,0,1-.17-2.83,22,22,0,0,1,6.74-16.11l.3-.27a18.82,18.82,0,0,1,4.17-2.83,42.65,42.65,0,0,0,26.08,15.45A23.27,23.27,0,0,1,627.08,189.37Z" transform="translate(-51.21 -34.91)"/><path class="cls-36" d="M626.9,192.2H589.65S604.4,186,626.9,192.2Z" transform="translate(-51.21 -34.91)"/><polygon class="cls-34" points="546.25 187.47 546.25 235.34 538.27 235.34 538.27 191.98 543.51 189.02 545.02 188.17 546.25 187.47"/><polygon class="cls-34" points="577.37 192.19 577.37 235.34 569.38 235.34 569.38 187.69 569.58 187.8 577.37 192.19"/><path class="cls-6" d="M678.63,318.69a470.58,470.58,0,0,1-142.17,0q-8.4-33.31-16.78-66.61a577.78,577.78,0,0,0,175.73,0Q687,285.38,678.63,318.69Z" transform="translate(-51.21 -34.91)"/><path class="cls-33" d="M528.08,285.44l-4,6.16,3.34,6.46a7.38,7.38,0,0,0,7.8,3.87c4.86-.84,11.13-2.38,10.39-4.74-1.2-3.8-4.39-13.56-8-12.57a67.73,67.73,0,0,0-8.84,3.56Z" transform="translate(-51.21 -34.91)"/><path class="cls-33" d="M687,285.44l4,6.16-3.51,6.78a5.76,5.76,0,0,1-5.64,3.09c-5.07-.48-13.21-1.65-12.38-4.28,1.2-3.8,4.39-13.56,8-12.57a67.73,67.73,0,0,1,8.84,3.56Z" transform="translate(-51.21 -34.91)"/><rect class="cls-20" x="544.35" y="299.5" width="29.96" height="19.49"/><path class="cls-39" d="M285.37,401.47a8.51,8.51,0,1,1-8.51-8.52A8.51,8.51,0,0,1,285.37,401.47Z" transform="translate(-51.21 -34.91)"/><rect class="cls-39" x="224.76" y="358.05" width="35.67" height="17.03"/><path class="cls-12" d="M320.14,401.47a8.51,8.51,0,1,1-8.51-8.52A8.51,8.51,0,0,1,320.14,401.47Z" transform="translate(-51.21 -34.91)"/><path class="cls-13" d="M318.44,401.47a6.81,6.81,0,1,1-6.81-6.81A6.81,6.81,0,0,1,318.44,401.47Z" transform="translate(-51.21 -34.91)"/><circle class="cls-40" cx="275.21" cy="385.14" r="8.51" transform="translate(-178.19 100.59) rotate(-22.62)"/><polygon class="cls-40" points="259.22 358.75 223.1 358.75 223.1 341.72 258.77 341.72 259.22 358.75"/><circle class="cls-12" cx="309.98" cy="385.14" r="8.51" transform="translate(-131.67 46.95) rotate(-13.33)"/><circle class="cls-13" cx="258.77" cy="350.23" r="6.81"/><path class="cls-41" d="M263.61,385a8.52,8.52,0,1,1-8.52-8.52A8.52,8.52,0,0,1,263.61,385Z" transform="translate(-51.21 -34.91)"/><rect class="cls-41" x="202.99" y="341.55" width="36.99" height="17.03"/><path class="cls-12" d="M298.38,385a8.52,8.52,0,1,1-8.52-8.52A8.51,8.51,0,0,1,298.38,385Z" transform="translate(-51.21 -34.91)"/><path class="cls-13" d="M296.67,385a6.81,6.81,0,1,1-6.81-6.81A6.8,6.8,0,0,1,296.67,385Z" transform="translate(-51.21 -34.91)"/><circle class="cls-11" cx="215.12" cy="333.4" r="8.51"/><rect class="cls-11" x="214.23" y="324.89" width="36.99" height="17.02"/><circle class="cls-12" cx="249.89" cy="333.4" r="8.51"/><circle class="cls-13" cx="249.89" cy="333.4" r="6.81"/><circle class="cls-11" cx="254.81" cy="401.47" r="8.51" transform="translate(-245.81 521.92) rotate(-76.67)"/><polygon class="cls-11" points="238.81 375.07 202.7 375.07 202.7 358.05 238.37 358.05 238.81 375.07"/><circle class="cls-12" cx="289.58" cy="401.47" r="8.51" transform="translate(-182.24 105.57) rotate(-22.38)"/><path class="cls-13" d="M296.39,401.47a6.81,6.81,0,1,1-6.81-6.81A6.81,6.81,0,0,1,296.39,401.47Z" transform="translate(-51.21 -34.91)"/><rect class="cls-22" x="416.45" y="262.59" width="42.26" height="112.84"/><rect class="cls-6" x="419.49" y="265.85" width="7.32" height="8.79"/><rect class="cls-6" x="428.94" y="265.85" width="7.32" height="8.79"/><rect class="cls-6" x="438.39" y="265.85" width="7.32" height="8.79"/><rect class="cls-6" x="447.85" y="265.85" width="7.32" height="8.79"/><rect class="cls-6" x="419.49" y="279.02" width="7.32" height="8.79"/><rect class="cls-6" x="428.94" y="279.02" width="7.32" height="8.79"/><rect class="cls-6" x="438.39" y="279.02" width="7.32" height="8.79"/><rect class="cls-6" x="447.85" y="279.02" width="7.32" height="8.79"/><rect class="cls-6" x="419.49" y="292.19" width="7.32" height="8.79"/><rect class="cls-6" x="428.94" y="292.19" width="7.32" height="8.79"/><rect class="cls-6" x="438.39" y="292.19" width="7.32" height="8.79"/><rect class="cls-6" x="447.85" y="292.19" width="7.32" height="8.79"/><rect class="cls-6" x="419.49" y="305.36" width="7.32" height="8.79"/><rect class="cls-6" x="428.94" y="305.36" width="7.32" height="8.79"/><rect class="cls-6" x="438.39" y="305.36" width="7.32" height="8.79"/><rect class="cls-6" x="447.85" y="305.36" width="7.32" height="8.79"/><rect class="cls-6" x="419.49" y="318.52" width="7.32" height="8.79"/><rect class="cls-6" x="428.94" y="318.52" width="7.32" height="8.79"/><rect class="cls-6" x="438.39" y="318.52" width="7.32" height="8.79"/><rect class="cls-6" x="447.85" y="318.52" width="7.32" height="8.79"/><rect class="cls-6" x="419.49" y="331.69" width="7.32" height="8.79"/><rect class="cls-6" x="428.94" y="331.69" width="7.32" height="8.79"/><rect class="cls-6" x="438.39" y="331.69" width="7.32" height="8.79"/><rect class="cls-6" x="447.85" y="331.69" width="7.32" height="8.79"/><rect class="cls-6" x="419.49" y="344.86" width="7.32" height="8.79"/><rect class="cls-6" x="428.94" y="344.86" width="7.32" height="8.79"/><rect class="cls-6" x="438.39" y="344.86" width="7.32" height="8.79"/><rect class="cls-6" x="447.85" y="344.86" width="7.32" height="8.79"/><rect class="cls-6" x="419.49" y="358.03" width="7.32" height="8.79"/><rect class="cls-6" x="428.94" y="358.03" width="16.05" height="17.41"/><rect class="cls-6" x="447.85" y="358.03" width="7.32" height="8.79"/><polygon class="cls-42" points="271.66 338.34 277.21 369.46 281.19 369 294.17 348.31 271.66 338.34"/><path class="cls-6" d="M367.06,330.24s-17.06,4.48-21.73,8.24-6.46,8.19-11.11,10.66-10.73,11.3-10.4,15.62a39.07,39.07,0,0,0,2.37,9.47l14.07,7.95,23.94-21.76,11.18-17.06-3.3-8.77Z" transform="translate(-51.21 -34.91)"/><path class="cls-16" d="M318.08,371.16,343.72,389a2.48,2.48,0,0,0,.31.18,1.69,1.69,0,0,0,1.81-.32l46.63-43.46a1.69,1.69,0,0,0,.09-2.4L369.8,318.61a1.71,1.71,0,0,1,.09-2.41l8.14-7.58a1.7,1.7,0,0,0,.08-2.39,1.68,1.68,0,0,0-2.39-.09L358,322.64a1.66,1.66,0,0,0-.51,1.48l.81,5.75a1.71,1.71,0,0,1-.52,1.48L317.9,368.52A1.7,1.7,0,0,0,318.08,371.16Z" transform="translate(-51.21 -34.91)"/><path class="cls-6" d="M376.8,354.55l8.26-7.69a3.2,3.2,0,0,0,.16-4.52l-2.93-3.14-10.6,9.87Z" transform="translate(-51.21 -34.91)"/><rect class="cls-6" x="359.54" y="355.03" width="14.48" height="7.49" transform="translate(-197.35 311.47) rotate(-42.98)"/><rect class="cls-6" x="346.78" y="366.92" width="14.48" height="7.49" transform="translate(-208.89 305.97) rotate(-42.98)"/><path class="cls-6" d="M336.92,381.48l4,2.78a3.49,3.49,0,0,0,4.37-.31l3.84-3.58L344,374.89Z" transform="translate(-51.21 -34.91)"/><path class="cls-6" d="M370.34,347.62l10.6-9.87-7.71-8.27a3.7,3.7,0,0,0-5.22-.19l-7.89,7.36Z" transform="translate(-51.21 -34.91)"/><rect class="cls-6" x="350.52" y="341.6" width="14.48" height="15" transform="translate(-193.18 302.73) rotate(-42.98)"/><rect class="cls-6" x="337.76" y="353.49" width="14.48" height="15" transform="matrix(0.73, -0.68, 0.68, 0.73, -204.71, 297.22)"/><path class="cls-6" d="M323.35,371.8c.73.57,2.06,1.53,2.24,1.66l3.91,2.77,3.82,2.71,1.94,1.38,7.38-6.88-10.22-11-9.55,8.9S323.05,371.56,323.35,371.8Z" transform="translate(-51.21 -34.91)"/><path class="cls-42" d="M377.11,340.94h3a1.89,1.89,0,0,1,1.89,1.89v10a0,0,0,0,1,0,0h-4.88a0,0,0,0,1,0,0V340.94A0,0,0,0,1,377.11,340.94Z" transform="translate(323.34 -202.19) rotate(47.02)"/><rect class="cls-42" x="364.34" y="352.84" width="4.88" height="11.87" transform="translate(327.96 -189.06) rotate(47.02)"/><rect class="cls-42" x="351.58" y="364.74" width="4.88" height="11.87" transform="translate(332.6 -175.94) rotate(47.02)"/><path class="cls-42" d="M347.26,380.31l-3.33-3.57-4.94,4.6,2.66,1.85a2.19,2.19,0,0,0,2.72-.19Z" transform="translate(-51.21 -34.91)"/><path class="cls-42" d="M366.72,331.27h10a0,0,0,0,1,0,0v11.87a0,0,0,0,1,0,0H364.34a0,0,0,0,1,0,0v-9.49A2.38,2.38,0,0,1,366.72,331.27Z" transform="translate(313.38 -198.67) rotate(47.02)"/><rect class="cls-42" x="351.57" y="343.16" width="12.38" height="11.87" transform="translate(318.01 -185.54) rotate(47.02)"/><rect class="cls-42" x="338.81" y="355.06" width="12.38" height="11.87" transform="translate(322.65 -172.42) rotate(47.02)"/><path class="cls-42" d="M340.79,373.38l-8.44-9.06-7.49,7c.65.49,1.36,1,1.49,1.1l8.8,6.24Z" transform="translate(-51.21 -34.91)"/><rect class="cls-16" x="319.56" y="326.08" width="3.02" height="28.35"/><rect class="cls-16" x="398.1" y="384.44" width="16.16" height="14.24" transform="translate(761.15 748.21) rotate(180)"/><polygon class="cls-16" points="348.92 351.7 348.92 362.91 303.98 362.91 303.98 352.54 348.92 351.7"/><path class="cls-17" d="M383,400.46l-8.39-11.25H340.41l-3.89,5.62v3.49a2.14,2.14,0,0,0,2.14,2.14Z" transform="translate(-51.21 -34.91)"/><path class="cls-10" d="M338.22,398.76v.13a4,4,0,0,0,4,4h63.13a4,4,0,0,0,4-4v-.13a2.56,2.56,0,0,0,0-.49,4,4,0,0,0-4-3.51H342.23a4,4,0,0,0-4,3.51A2.56,2.56,0,0,0,338.22,398.76Z" transform="translate(-51.21 -34.91)"/><path class="cls-10" d="M403.52,399.29v3.62h36.85a4.74,4.74,0,0,0,4.74-4.64v-5.95a5.61,5.61,0,0,0-.93-3.11,5.69,5.69,0,0,0-4.78-2.59H416.19a12.66,12.66,0,0,0-10.86,6.14,11.21,11.21,0,0,0-1,2,12.05,12.05,0,0,0-.8,3.51C403.54,398.61,403.52,399,403.52,399.29Z" transform="translate(-51.21 -34.91)"/><path class="cls-15" d="M338.22,398.76v.13a4,4,0,0,0,4,4h98.14a4.74,4.74,0,0,0,4.74-4.64H338.26A2.56,2.56,0,0,0,338.22,398.76Z" transform="translate(-51.21 -34.91)"/><path class="cls-18" d="M405.33,392.76h39.78v-.44a5.61,5.61,0,0,0-.93-3.11H408.51A12.69,12.69,0,0,0,405.33,392.76Z" transform="translate(-51.21 -34.91)"/><path class="cls-16" d="M358.31,400.46a9.89,9.89,0,1,0,9.88-9.89A9.88,9.88,0,0,0,358.31,400.46Z" transform="translate(-51.21 -34.91)"/><path class="cls-15" d="M363.36,400.46a4.84,4.84,0,1,0,4.83-4.84A4.83,4.83,0,0,0,363.36,400.46Z" transform="translate(-51.21 -34.91)"/><path class="cls-19" d="M365.61,400.46a2.58,2.58,0,1,0,2.58-2.58A2.58,2.58,0,0,0,365.61,400.46Z" transform="translate(-51.21 -34.91)"/><path class="cls-16" d="M337.89,400.46a9.89,9.89,0,1,0,9.89-9.89A9.88,9.88,0,0,0,337.89,400.46Z" transform="translate(-51.21 -34.91)"/><path class="cls-15" d="M342.94,400.46a4.84,4.84,0,1,0,4.84-4.84A4.84,4.84,0,0,0,342.94,400.46Z" transform="translate(-51.21 -34.91)"/><path class="cls-19" d="M345.2,400.46a2.58,2.58,0,1,0,2.58-2.58A2.57,2.57,0,0,0,345.2,400.46Z" transform="translate(-51.21 -34.91)"/><path class="cls-15" d="M334.72,398.27a2,2,0,0,0,1.63-.87l4.2-6.23h33.9l4.71,6.31a2,2,0,0,0,3.15-2.35L377,388a2,2,0,0,0-1.57-.79H339.51a2,2,0,0,0-1.63.87l-4.79,7.1a2,2,0,0,0,.53,2.73A2,2,0,0,0,334.72,398.27Z" transform="translate(-51.21 -34.91)"/><path class="cls-17" d="M407.86,360.88V382a6.37,6.37,0,0,0,6.38,6.37H440.7a6.38,6.38,0,0,0,6.36-5.85c0-.17,0-.35,0-.52v-5.68a6.3,6.3,0,0,0-.69-2.88l-.41-.81-6.8-13.49-.21-.41a6.39,6.39,0,0,0-5.45-3.5l-12.14-.47-6.9-.26A6.39,6.39,0,0,0,407.86,360.88Z" transform="translate(-51.21 -34.91)"/><path class="cls-18" d="M419.05,363.81c0,10.95,9.43,19.82,21.07,19.82a22.27,22.27,0,0,0,6.94-1.1c0-.17,0-.35,0-.52v-5.68a6.3,6.3,0,0,0-.69-2.88l-.41-.81-6.8-13.49-.21-.41a6.39,6.39,0,0,0-5.45-3.5l-12.14-.47A18.6,18.6,0,0,0,419.05,363.81Z" transform="translate(-51.21 -34.91)"/><rect class="cls-16" x="369.66" y="340.34" width="9.81" height="1.76"/><path class="cls-15" d="M420.87,364.06v4.15a4.9,4.9,0,0,0,4.9,4.9h18.11a4.9,4.9,0,0,0,2.1-.47l-.64-1.26-5.44-10.8-.72-1.43H425.77A4.91,4.91,0,0,0,420.87,364.06Z" transform="translate(-51.21 -34.91)"/><path class="cls-20" d="M424.31,363.41v5.42a2.24,2.24,0,0,0,2.33,2.11h15.2a4,4,0,0,0,1-.11l-5.29-9.54H426.65a2.34,2.34,0,0,0-1.87.88A1.89,1.89,0,0,0,424.31,363.41Z" transform="translate(-51.21 -34.91)"/><polygon class="cls-5" points="378.92 326.38 386.15 336.03 389.16 336.03 381.8 326.38 378.92 326.38"/><path class="cls-5" d="M424.78,362.17l6.57,8.77h3L427,361.29h-.36A2.34,2.34,0,0,0,424.78,362.17Z" transform="translate(-51.21 -34.91)"/><rect class="cls-18" x="412.78" y="380.79" width="28.79" height="1.53" transform="translate(803.14 728.21) rotate(180)"/><rect class="cls-18" x="412.78" y="383.25" width="28.79" height="0.77" transform="translate(803.14 732.36) rotate(180)"/><path class="cls-16" d="M416.64,400.46a9.89,9.89,0,1,0,9.89-9.89A9.88,9.88,0,0,0,416.64,400.46Z" transform="translate(-51.21 -34.91)"/><path class="cls-15" d="M421.69,400.46a4.84,4.84,0,1,0,4.84-4.84A4.84,4.84,0,0,0,421.69,400.46Z" transform="translate(-51.21 -34.91)"/><path class="cls-19" d="M424,400.46a2.58,2.58,0,1,0,2.58-2.58A2.57,2.57,0,0,0,424,400.46Z" transform="translate(-51.21 -34.91)"/><path class="cls-15" d="M414.74,402.42a2,2,0,0,0,2-2,9.82,9.82,0,1,1,19.64,0,2,2,0,0,0,3.92,0,13.75,13.75,0,1,0-27.49,0A2,2,0,0,0,414.74,402.42Z" transform="translate(-51.21 -34.91)"/><polygon class="cls-16" points="270.6 338.85 274.49 357.31 276.97 356.65 273.13 339.98 270.6 338.85"/><rect class="cls-10" x="208.75" y="365" width="78.7" height="10.07"/><polygon class="cls-16" points="221.74 365 208.75 372.82 208.75 368.54 214.62 365 221.74 365"/><polygon class="cls-16" points="237.16 365 220.44 375.07 213.33 375.07 230.04 365 237.16 365"/><polygon class="cls-16" points="252.58 365 235.87 375.07 228.76 375.07 245.47 365 252.58 365"/><polygon class="cls-16" points="268.01 365 251.3 375.07 244.18 375.07 260.89 365 268.01 365"/><polygon class="cls-16" points="283.43 365 266.72 375.07 259.61 375.07 276.32 365 283.43 365"/><polygon class="cls-16" points="287.45 367.59 287.45 371.88 282.15 375.07 275.02 375.07 287.45 367.59"/></g></g></svg>