<svg id="Object" xmlns="http://www.w3.org/2000/svg" viewBox="0 0 431.96 650"><defs><style>.cls-1{fill:#bd242b;}.cls-2{fill:#fff;}.cls-3{fill:#cd4a45;}.cls-4{fill:#ac262b;}</style></defs><path class="cls-1" d="M742.43,387.43c0,119.29-216,434-216,434s-216-314.73-216-434,96.7-216,216-216S742.43,268.15,742.43,387.43Z" transform="translate(-310.47 -171.45)"/><circle class="cls-2" cx="526.45" cy="377.92" r="101.52" transform="translate(-423.51 311.49) rotate(-45)"/><path class="cls-3" d="M347.49,406.4c0-103.62,84-187.62,187.62-187.62A187.32,187.32,0,0,1,683.84,292a187.56,187.56,0,0,0-162.69-94.11c-103.62,0-187.63,84-187.63,187.62a186.85,186.85,0,0,0,38.9,114.38A186.77,186.77,0,0,1,347.49,406.4Z" transform="translate(-310.47 -171.45)"/><path class="cls-4" d="M475.52,738.85c29.43,49.31,50.93,82.6,50.93,82.6s216-314.73,216-434c0-6.26-.32-12.44-.84-18.57a525.25,525.25,0,0,1-35.37,96.2c-40.88,85.09-101.34,139.62-165.73,208.66C519.73,696,498.12,718,475.52,738.85Z" transform="translate(-310.47 -171.45)"/></svg>