<svg xmlns="http://www.w3.org/2000/svg" xmlns:xlink="http://www.w3.org/1999/xlink" viewBox="0 0 419.17 395.63"><defs><style>.cls-1{fill:none;}.cls-2{isolation:isolate;}.cls-3{mix-blend-mode:multiply;}.cls-19,.cls-3{opacity:0.2;}.cls-4{fill:#cfcfcf;}.cls-5{fill:#2294bc;}.cls-6{fill:#6dbbd9;}.cls-7{fill:#d8d8d8;}.cls-8{fill:#dbdbdb;}.cls-9{fill:#c5c5c5;}.cls-10{fill:#e8e8e8;}.cls-11{fill:#898989;}.cls-12{fill:#fff;}.cls-13{fill:#0fb7b3;}.cls-14{fill:#199b94;}.cls-15{fill:#01a3a2;}.cls-16{fill:#ff9c00;}.cls-17{fill:#ffba5f;}.cls-18{fill:#ffac33;}.cls-20{fill:#242626;}.cls-21{fill:#3b3f3f;}.cls-22{fill:#111114;}.cls-23{fill:#29383d;}.cls-24{fill:#243135;}.cls-25{fill:#8fb6d7;}.cls-26{fill:#558299;}.cls-27{clip-path:url(#clip-path);}.cls-28{fill:#123468;}.cls-29{fill:#113365;}.cls-30{fill:#113163;}.cls-31{fill:#103060;}.cls-32{fill:#102f5e;}.cls-33{fill:#0f2e5b;}.cls-34{fill:#0f2c58;}.cls-35{fill:#0f2b56;}.cls-36{fill:#0e2a53;}.cls-37{fill:#0e2851;}.cls-38{fill:#0d274e;}.cls-39{fill:#3f3f3f;}.cls-40{fill:#184c9f;}.cls-41{fill:#0b357c;}.cls-42{fill:#1a4789;}.cls-43{fill:#ac9379;}.cls-44{fill:#efb185;}.cls-45{fill:#d7d3d0;}.cls-46{fill:#c3bbb7;}.cls-47{fill:#e7e3e2;}.cls-48{fill:#301806;}.cls-49{fill:#e8a476;}.cls-50{fill:#db9669;}.cls-51{fill:#f1b287;}.cls-52{fill:#231202;}.cls-53{fill:#45210c;}.cls-54{fill:#8b4e29;}.cls-55{fill:#673112;}.cls-56{fill:#bb732c;}.cls-57{fill:#fbc868;}.cls-58{fill:#f4cd57;}.cls-59{fill:#773717;}.cls-60{fill:#4f260e;}.cls-61{fill:#592a10;}.cls-62{fill:#dfe5f3;}.cls-63{fill:#aeb6bc;}.cls-64{fill:#dcdcdc;}.cls-65{fill:#6b4125;}.cls-66{fill:#885937;}.cls-67{fill:#aa814f;}.cls-68{fill:#c0c5d1;}.cls-69{opacity:0.1;}.cls-70{fill:#a9b5c4;}.cls-71{fill:#c3c5c5;}.cls-72{fill:#e6e7ec;}.cls-73{opacity:0.5;}.cls-74{fill:#939599;}.cls-75{fill:#d5dfe6;}.cls-76{fill:#c8d2db;}.cls-77{fill:#e1eaef;}.cls-78{fill:#f5f3f2;}.cls-79{fill:#e4e4e4;}.cls-80{fill:#cacaca;}.cls-81{fill:#a8aaaa;}.cls-82{fill:#9fb0bc;}.cls-83{fill:#388852;}.cls-84{fill:#2c7741;}.cls-85{fill:#e2e6ed;}.cls-86{fill:#a5aab4;}.cls-87{fill:#354751;}.cls-88{fill:#304047;}.cls-89{fill:#3b5059;}.cls-90{fill:#dd9569;}.cls-91{fill:#e6a376;}.cls-92{fill:#221101;}.cls-93{fill:#341c09;}.cls-94{fill:#def0f9;}.cls-95{fill:#1f5699;}.cls-96{fill:#39844b;}.cls-97{fill:#bdbdbd;}.cls-98{fill:#f4f7f8;}</style><clipPath id="clip-path" transform="translate(-40.42 -81.06)"><path class="cls-1" d="M120.68,171.29l2.94,22.9q.75,5.76,1.48,11.51,1.47,11.45,3,22.9s-.08-.08-.23-.16L120.57,172A1.42,1.42,0,0,0,120.68,171.29Z"/></clipPath></defs><g class="cls-2"><g id="Layer_1" data-name="Layer 1"><g class="cls-3"><path class="cls-4" d="M397.72,269.47c82.11,47.41,82.54,124.27,1,171.67s-214.25,47.4-296.36,0-82.54-124.26-1-171.66S315.62,222.07,397.72,269.47Z" transform="translate(-40.42 -81.06)"/></g><path class="cls-5" d="M459.53,308.25c0,.54,0,1.08-.08,1.62s-.05.89-.09,1.34-.09,1.09-.15,1.63-.08.88-.14,1.32-.14,1.1-.22,1.65-.12.86-.19,1.29-.2,1.12-.3,1.68-.15.85-.24,1.27-.24,1.08-.36,1.63-.19.86-.3,1.3-.28,1.07-.43,1.61-.22.87-.35,1.3-.33,1.09-.5,1.63-.26.85-.4,1.27-.39,1.12-.59,1.68c-.15.4-.28.81-.44,1.21-.31.83-.64,1.65-1,2.48l-.18.44q-.61,1.45-1.29,2.91c-.13.28-.28.55-.41.83-.33.69-.66,1.37-1,2.06l-.59,1.1c-.31.59-.63,1.18-1,1.76l-.61,1.05c-.38.65-.76,1.3-1.15,1.95l-.75,1.19c-.38.59-.76,1.19-1.15,1.78l-.83,1.23-1.22,1.74-.87,1.21-1.38,1.81c-.27.35-.54.71-.82,1.06-.85,1.07-1.72,2.14-2.62,3.19l-.47.54c-.77.88-1.56,1.77-2.37,2.65-.3.32-.6.65-.91,1-.74.79-1.5,1.57-2.27,2.35-.28.28-.55.56-.83.83q-1.54,1.54-3.18,3.06L426.63,371c-.51.46-1,.92-1.54,1.38s-.91.79-1.37,1.18l-1.58,1.34-1.44,1.17-1.65,1.32c-.49.39-1,.77-1.49,1.15s-1.13.87-1.71,1.3L414.3,381l-1.78,1.29-1.6,1.11c-.61.42-1.22.85-1.85,1.26s-1.1.74-1.66,1.1l-1.9,1.24-1.73,1.08-2,1.21c-1,.63-2.07,1.25-3.13,1.87-1.57.91-3.16,1.79-4.76,2.67l-1.4.75c-1.23.67-2.48,1.32-3.74,2l-1.28.66q-2.46,1.23-5,2.42l-.91.42c-1.4.65-2.82,1.29-4.24,1.92l-1.54.68c-1.4.6-2.8,1.2-4.21,1.78l-1.07.44q-2.61,1.06-5.26,2.07l-1.37.51c-1.38.52-2.76,1-4.15,1.51l-1.62.57c-1.66.58-3.34,1.15-5,1.7l-.49.16c-1.54.5-3.08,1-4.63,1.46l-1.45.42c-1.09.33-2.18.66-3.27,1l-1.85.51c-1,.28-2,.55-2.93.81l-2,.52-2.81.73-2.1.51-2.76.66-2.15.49-2.74.61-2.21.46-2.72.56-2.25.44-2.71.51-2,.35c-1.52.27-3,.53-4.57.78-.5.08-1,.17-1.49.24-2,.32-3.93.61-5.9.89l-1.37.18c-1.57.21-3.14.42-4.72.61l-1.86.22q-2.44.29-4.89.54l-1.24.13c-1.8.17-3.59.34-5.39.49l-.94.07-4.49.34-1.93.12-3.54.2-2.14.11-3.39.14-2.22.08-2.89.07-2.33.05-2.91,0h-2.29c-1,0-2,0-3,0h-2.21l-3.13-.05-2.08-.05c-1,0-1.94-.06-2.9-.09l-2.21-.08-2.86-.13-2.25-.11L228.2,426l-2.32-.14-2.7-.21c-.8-.06-1.59-.11-2.38-.18l-2.65-.23-2.41-.22-2.78-.29c-.75-.08-1.5-.15-2.24-.24-1.57-.17-3.14-.36-4.7-.56l-1.11-.14q-2.1-.27-4.2-.57l-1.08-.16c-1.33-.19-2.65-.38-4-.59l-2-.32-3.08-.51-2.17-.39-2.85-.52-2.24-.44-2.74-.54-2.1-.44-3.19-.69-2.08-.47-3.17-.75-2-.49c-1.12-.27-2.23-.56-3.33-.85l-1.79-.46c-1.32-.35-2.64-.72-3.95-1.09l-1.1-.3q-2.9-.82-5.75-1.71l-1.57-.49c-1.54-.49-3.07-1-4.6-1.49l-1.26-.42c-1.88-.64-3.74-1.29-5.59-2l-1.2-.44c-1.5-.55-3-1.12-4.48-1.7l-1.37-.54q-3.45-1.37-6.84-2.84l-1.14-.49c-2.25-1-4.49-2-6.69-3.06l-1-.48q-3.36-1.62-6.65-3.34l-.66-.35q-3.43-1.81-6.77-3.73C61,367.29,40.38,336,40.47,304.72l0,18.37h0c-.09,29.31,18,58.66,54.35,81.87q3.63,2.31,7.51,4.55c2.22,1.29,4.48,2.53,6.78,3.74l.65.35q3.27,1.71,6.65,3.34l1,.48q3.3,1.57,6.69,3.06l1.14.49q3.39,1.47,6.87,2.85l.45.19.85.32c1.5.59,3,1.16,4.52,1.72l1.2.44c1.85.68,3.71,1.33,5.59,2l1.25.41q2.31.78,4.63,1.5l1.53.48c1.92.59,3.85,1.17,5.79,1.72l.09,0,.81.22q2.05.58,4.14,1.14l1.74.45c1.13.3,2.25.59,3.38.87l1.95.47,3.26.77,2,.44,3.34.73,1.26.27.68.14,2.94.58,2.05.4,3.08.56,2,.35c1.09.19,2.19.36,3.28.54l1.79.29c1.23.2,2.47.38,3.7.56l1.31.19.09,0q5,.71,10,1.26l1,.11,4.08.42,1.49.14,3.57.32H221l1.61.12c1.1.09,2.2.18,3.3.25l2,.12c1,.07,2,.14,3.08.19l2.16.11,2.92.13,2.27.08,2.83.09.48,0,1.71,0c1,0,2,0,3,.06h7.57l2.83,0,2.4-.05,2.81-.07,1.13,0,1.15-.05,3.38-.14,2.12-.11,3.6-.21,1.86-.11,4.68-.35.75-.06c1.82-.15,3.64-.32,5.46-.5l.24,0,.79-.09c1.7-.17,3.39-.36,5.09-.55l1.78-.22c1.61-.19,3.22-.4,4.82-.62l1.29-.17q3-.42,5.92-.89l1.49-.24c1.52-.25,3-.5,4.53-.77l1-.17,1-.2,2.6-.49,2.36-.46,2.62-.54c.76-.16,1.53-.31,2.29-.48l2.68-.6,2.2-.49,2.75-.67,2.09-.5,2.89-.75,1.91-.5,3.13-.86,1.64-.45c1.33-.38,2.65-.78,4-1.17l.74-.22c1.58-.48,3.15-1,4.71-1.48l0,0,.23-.07q2.63-.86,5.22-1.76l1.58-.56c1.4-.5,2.8-1,4.18-1.53l1.35-.5q2.65-1,5.26-2.07l1.09-.45c1.41-.58,2.8-1.17,4.19-1.77l1.56-.68c1.41-.63,2.82-1.27,4.21-1.92l.93-.43c1.67-.78,3.32-1.59,4.95-2.41l1.29-.66c1.26-.65,2.51-1.3,3.75-2l1.39-.75c1.6-.88,3.19-1.76,4.76-2.67.86-.5,1.71-1,2.56-1.52l.59-.36,1.89-1.17,1.79-1.12,1.85-1.2L409,403c.6-.4,1.2-.82,1.79-1.23l1.65-1.14,1.75-1.26,1.57-1.15c.58-.43,1.14-.87,1.71-1.31l1.49-1.14c.57-.45,1.12-.9,1.67-1.35s.95-.75,1.41-1.13l1.64-1.4,1.31-1.12,1.63-1.46c.35-.33.72-.64,1.07-1l.12-.12q1.63-1.51,3.2-3.06l.81-.82c.77-.78,1.53-1.57,2.28-2.36l.91-1c.81-.87,1.59-1.76,2.36-2.64l.47-.54c.91-1.06,1.78-2.12,2.63-3.19l.22-.27c.2-.26.38-.52.58-.77q.72-.93,1.41-1.86l.83-1.14c.43-.61.86-1.21,1.27-1.82l.79-1.16q.61-.93,1.2-1.86l.7-1.13c.41-.66.79-1.32,1.18-2,.15-.27.32-.53.47-.8l.12-.23c.33-.57.63-1.15.94-1.72.2-.39.41-.77.61-1.15.34-.65.65-1.31,1-2l.46-.93c.45-1,.88-1.93,1.29-2.9.06-.15.11-.29.17-.43.35-.83.68-1.67,1-2.5l0-.09c.13-.35.24-.69.36-1q.33-.89.63-1.77c.13-.4.25-.81.38-1.22.18-.56.36-1.11.52-1.68s.23-.85.35-1.28.3-1.08.43-1.62.21-.9.31-1.35.24-1,.35-1.57l.06-.28c.07-.36.13-.72.19-1.07.1-.53.2-1.06.28-1.59s.14-.91.2-1.36.16-1.06.22-1.59.1-.91.14-1.37.11-1.05.15-1.58.06-.93.09-1.4.06-1,.08-1.54c0-.18,0-.35,0-.53,0-.61,0-1.22,0-1.84q0-9.18.05-18.37C459.58,306.69,459.56,307.47,459.53,308.25Z" transform="translate(-40.42 -81.06)"/><path class="cls-6" d="M397.72,219.48c82.11,47.41,82.54,124.26,1,171.67s-214.25,47.4-296.36,0-82.54-124.26-1-171.66S315.62,172.08,397.72,219.48Z" transform="translate(-40.42 -81.06)"/><g class="cls-2"><polygon class="cls-7" points="301.42 181.12 297.03 178.57 296.6 23.76 300.98 26.31 301.42 181.12"/><polygon class="cls-8" points="300.98 26.31 296.6 23.76 328.79 5.17 333.17 7.72 300.98 26.31"/><polygon class="cls-9" points="333.17 7.72 333.61 162.54 301.42 181.12 300.98 26.31 333.17 7.72"/></g><g class="cls-2"><polygon class="cls-10" points="301.29 120.97 301.31 125.79 358.79 159.19 358.78 154.38 301.29 120.97"/><polygon class="cls-11" points="358.78 154.38 358.79 159.19 389.31 141.57 389.29 136.76 358.78 154.38"/><polygon class="cls-12" points="301.29 120.97 358.78 154.38 389.29 136.76 331.81 103.36 301.29 120.97"/></g><g class="cls-2"><polygon class="cls-13" points="345.16 116.47 345.16 120.62 327.64 130.8 327.65 126.65 345.16 116.47"/><polygon class="cls-14" points="327.65 126.65 327.64 130.8 305.91 118.25 305.92 114.09 327.65 126.65"/><polygon class="cls-15" points="345.16 116.47 327.65 126.65 305.92 114.09 323.43 103.92 345.16 116.47"/></g><g class="cls-2"><polygon class="cls-16" points="342.41 111.28 342.39 114.41 329.23 122.06 329.24 118.94 342.41 111.28"/><polygon class="cls-17" points="329.24 118.94 329.23 122.06 312.88 112.63 312.89 109.5 329.24 118.94"/><polygon class="cls-18" points="342.41 111.28 329.24 118.94 312.89 109.5 326.06 101.85 342.41 111.28"/></g><g class="cls-19"><polygon points="293.23 186.68 337.47 160.97 399.24 194.56 359.76 217.19 293.23 186.68"/></g><g class="cls-2"><polygon class="cls-10" points="301.29 68.67 301.31 73.48 358.79 106.89 358.78 102.08 301.29 68.67"/><polygon class="cls-11" points="358.78 102.08 358.79 106.89 389.31 89.27 389.29 84.46 358.78 102.08"/><polygon class="cls-12" points="301.29 68.67 358.78 102.08 389.29 84.46 331.81 51.05 301.29 68.67"/></g><g class="cls-2"><polygon class="cls-10" points="301.29 174.52 301.31 179.33 358.79 212.74 358.78 207.93 301.29 174.52"/><polygon class="cls-11" points="358.78 207.93 358.79 212.74 389.31 195.12 389.29 190.31 358.78 207.93"/><polygon class="cls-12" points="301.29 174.52 358.78 207.93 389.29 190.31 331.81 156.9 301.29 174.52"/></g><g class="cls-19"><polygon points="302.64 285.36 303.68 263.35 267.85 245.52 321.06 217.19 250.8 172.01 179.61 213.12 82.52 192.11 42.67 214.72 99.59 259.31 99.59 259.31 175.34 302.39 175.34 302.39 302.64 285.36 302.64 285.36"/></g><path class="cls-20" d="M345.19,342.88a1.86,1.86,0,0,1-1.1,1.54l-34.83,20.1A4.55,4.55,0,0,1,308,365h0a6,6,0,0,1-1.34.15h-.07a5.55,5.55,0,0,1-1.29-.15l-.14,0a4.67,4.67,0,0,1-1.15-.45,2.14,2.14,0,0,1-.41-.29l-.06,0a2.07,2.07,0,0,1-.32-.36l0,0a3,3,0,0,1-.18-.36s0,0,0-.06A1.19,1.19,0,0,1,303,363v2.61a.83.83,0,0,0,0,.22l0,.13a.08.08,0,0,1,0,0v0a2.12,2.12,0,0,0,.11.21s0,.05.05.08l.05.08.05.06a1.23,1.23,0,0,0,.22.24l0,0,.26.19.19.15a.05.05,0,0,1,0,0,4.33,4.33,0,0,0,.82.36l.34.08a.31.31,0,0,0,.13,0,1.55,1.55,0,0,0,.23.06l.47.07.41,0h.74l.36,0,.37-.06.39-.1.45-.15a4.49,4.49,0,0,0,.54-.26L344.11,347a1.86,1.86,0,0,0,1.09-1.52Z" transform="translate(-40.42 -81.06)"/><path class="cls-20" d="M347.21,362.1a.14.14,0,0,0,0,.07,1.41,1.41,0,0,1-.17.32l0,.06a1.55,1.55,0,0,1-.3.33,1.79,1.79,0,0,1-.26.2c-.08.05-.14.11-.23.16a4.35,4.35,0,0,1-1.13.43l-.18.05a5.77,5.77,0,0,1-1.25.14h-.1a5.57,5.57,0,0,1-1.3-.15l-.09,0a4.45,4.45,0,0,1-1.19-.45l-34.83-20.12a1.84,1.84,0,0,1-1.1-1.53v2.59a1.88,1.88,0,0,0,1.1,1.53L341,365.82a5.83,5.83,0,0,0,1,.41l.23.06h0l.12,0,.37.07.36,0,.37,0h.38a2.69,2.69,0,0,0,.4,0,3.55,3.55,0,0,0,.47-.06l.21-.05.17,0,.33-.08a5,5,0,0,0,.81-.36l0,0a1.33,1.33,0,0,0,.19-.14,1.74,1.74,0,0,0,.26-.19h0a2.61,2.61,0,0,0,.23-.25l0-.06,0-.06.07-.1a2,2,0,0,0,.1-.21s0,0,0,0a.08.08,0,0,1,0,0,.93.93,0,0,0,0-.13,1.8,1.8,0,0,0,0-.22v-2.62A1.26,1.26,0,0,1,347.21,362.1Z" transform="translate(-40.42 -81.06)"/><path class="cls-21" d="M346.18,360.2c1.46.84,1.45,2.21,0,3a5.76,5.76,0,0,1-5.24,0l-34.83-20.12c-1.46-.84-1.46-2.19,0-3a5.79,5.79,0,0,1,5.24,0Z" transform="translate(-40.42 -81.06)"/><path class="cls-22" d="M286.5,326.82s-4.44,1.47-2.88,3.91,7.49,5.54,8.46,7.06,6.28,6.75,7.56,5.95,5-.57,3.44-7.26S292.52,325.5,286.5,326.82Z" transform="translate(-40.42 -81.06)"/><path class="cls-23" d="M285,280.06S277.82,283,286.14,319l4.38,18.93s4.61,7,14.32,0l-4.79-39.52Z" transform="translate(-40.42 -81.06)"/><path class="cls-22" d="M292.46,345.28s2.92,6.3-2.49,8.43-4.1-1.53-15.9,2.82-13.85-1.75-13.71-3.18,7.93-4.79,10.51-5.77,7.45-2.77,7.45-2.77l14.36-1.53Z" transform="translate(-40.42 -81.06)"/><path class="cls-22" d="M292.46,345.28s2.92,6.3-2.49,8.43-4.1-1.53-15.9,2.82-13.85-1.75-13.71-3.18,7.93-4.79,10.51-5.77,9.5-3.76,9.5-3.76l12.31-.54Z" transform="translate(-40.42 -81.06)"/><path class="cls-23" d="M272.56,289.35s-5.23,2.48,2.84,37.47c4.36,18.94,4.38,18.94,4.38,18.94s4.61,7,14.32,0l-4.79-39.52Z" transform="translate(-40.42 -81.06)"/><path class="cls-24" d="M290.12,312.89l-4.57-2.34,4.15,37.62a18,18,0,0,0,4.4-2.39Z" transform="translate(-40.42 -81.06)"/><path class="cls-24" d="M302.74,320.55l-5.94-5.65,4.74,25a19.11,19.11,0,0,0,3.3-1.95Z" transform="translate(-40.42 -81.06)"/><path class="cls-25" d="M135,230.49a8.34,8.34,0,0,1,.12-.91l0-.14a6.85,6.85,0,0,1,.2-.81.49.49,0,0,1,0-.11,4.29,4.29,0,0,1,.23-.63c0-.07,0-.13.08-.19s.17-.34.26-.5a1.28,1.28,0,0,1,.11-.2l.08-.12a4.54,4.54,0,0,1,.54-.66l.18-.19a4.3,4.3,0,0,1,.73-.56l-2.39,1.39a5.54,5.54,0,0,0-.74.56l-.17.18a5.26,5.26,0,0,0-.54.67l-.07.08s0,0,0,0l-.12.2c-.07.13-.15.25-.21.39l0,.11a.84.84,0,0,0-.08.19c0,.09-.08.17-.12.27s-.09.25-.12.38a.26.26,0,0,0,0,.08s0,0,0,.06-.09.33-.13.5l-.06.29a.29.29,0,0,1,0,.09.43.43,0,0,1,0,.11c0,.16-.05.32-.07.49s0,.24,0,.35a.09.09,0,0,1,0,0V232a3.64,3.64,0,0,0,0,.48c0,.16,0,.33,0,.5v0l-.12,40.36,2.39-1.39.12-40.36c0-.37,0-.72.05-1.07A.28.28,0,0,1,135,230.49Z" transform="translate(-40.42 -81.06)"/><path class="cls-25" d="M168,250.19c0-.2,0-.4,0-.61v-.15a.13.13,0,0,1,0-.06l0-.4c0-.2,0-.41-.07-.61s0-.17,0-.26a.59.59,0,0,0,0-.13l0-.24c0-.21-.07-.42-.11-.63s-.05-.26-.08-.4,0-.06,0-.1l0-.13-.15-.65c0-.18-.09-.36-.14-.55,0,0,0,0,0,0s0,0,0-.06c-.06-.21-.12-.42-.19-.63a6.36,6.36,0,0,0-.19-.62l0-.05v0c0-.18-.12-.36-.18-.53l-.21-.58-.09-.19,0-.09c0-.09-.07-.18-.11-.27s-.15-.36-.23-.55-.13-.29-.2-.44,0,0,0-.05l0,0c-.09-.19-.19-.39-.28-.59l-.31-.6,0,0,0-.06c-.15-.28-.31-.57-.48-.84a1.74,1.74,0,0,0-.11-.18c-.14-.25-.3-.5-.46-.75l-.26-.4s-.06-.08-.09-.13l-.21-.3-.31-.44-.32-.42-.08-.1,0,0c-.12-.16-.25-.31-.38-.47s-.24-.29-.37-.43a.18.18,0,0,1-.05-.07l-.07-.06a3.33,3.33,0,0,0-.25-.28c-.12-.14-.25-.27-.38-.4s-.13-.14-.2-.2l-.1-.09-.09-.1-.41-.38c-.13-.12-.26-.24-.4-.35h0l0,0-.37-.3c-.13-.11-.26-.2-.39-.3l-.16-.12-.1-.07-.14-.09a3.11,3.11,0,0,0-.38-.25l-.38-.23L158,232l-15.36-8.86-.28-.16-.37-.19-.28-.13,0,0h0l-.37-.16-.36-.13-.12,0-.07,0a1,1,0,0,0-.18-.06l-.37-.11-.28-.06h-.11l-.39-.07-.39,0h-1a5.4,5.4,0,0,0-.58.08h0l-.3.09c-.11,0-.23.05-.34.09l-.07,0a4.73,4.73,0,0,0-.79.37l-2.39,1.38a5.15,5.15,0,0,1,.79-.36l.44-.13.27-.08c.23,0,.46-.08.71-.1h.09a6.62,6.62,0,0,1,.77,0h0a6.15,6.15,0,0,1,.83.12h.06c.27.06.55.13.83.22l.07,0a6.08,6.08,0,0,1,.89.35h0a9.56,9.56,0,0,1,.95.49l15.36,8.87a11.59,11.59,0,0,1,1,.63l.09.06c.32.23.64.47.95.73h0c.3.26.61.55.91.84l.1.09c.28.28.56.57.83.88l.06.06c.29.33.57.67.85,1l0,0c.23.28.44.58.65.89l.22.3.33.5c.17.27.34.54.5.81s.37.63.54,1l.06.11q.33.61.63,1.26a.11.11,0,0,1,0,0c.19.41.36.81.54,1.22a1.66,1.66,0,0,0,.06.16c.16.42.32.83.46,1.25,0,0,0,0,0,.05.14.44.28.88.4,1.32l0,.12c.11.43.22.85.31,1.26,0,0,0,.09,0,.13.09.41.16.82.22,1.23,0,.06,0,.1,0,.16.06.41.11.81.13,1.21,0,0,0,.09,0,.14,0,.44,0,.87,0,1.3l-.11,40.35,2.39-1.39.11-40.35Z" transform="translate(-40.42 -81.06)"/><path class="cls-26" d="M155.61,233.36c5.55,3.2,10,11.63,10,18.79l-.11,40.35-2.4-1.39.11-40.35c0-5.63-3.42-12.2-7.64-14.65l-15.36-8.86c-4.22-2.44-7.68.16-7.69,5.79l-.12,40.36L130,272l.12-40.36c0-7.15,4.56-10.37,10.11-7.16Z" transform="translate(-40.42 -81.06)"/><g class="cls-2"><g class="cls-27"><g class="cls-2"><path class="cls-28" d="M127.82,228.44,120.57,172h0l7.25,56.42Z" transform="translate(-40.42 -81.06)"/><path class="cls-29" d="M127.82,228.44,120.57,172a.61.61,0,0,1,.05-.12l7.28,56.58-.08,0Z" transform="translate(-40.42 -81.06)"/><path class="cls-30" d="M127.9,228.48l-7.28-56.58a.24.24,0,0,1,0-.08l7.29,56.68,0,0Z" transform="translate(-40.42 -81.06)"/><path class="cls-31" d="M127.93,228.5l-7.29-56.68a.14.14,0,0,0,0-.07l7.3,56.77,0,0Z" transform="translate(-40.42 -81.06)"/><path class="cls-32" d="M128,228.52l-7.3-56.77a.13.13,0,0,1,0-.06L128,228.53Z" transform="translate(-40.42 -81.06)"/><path class="cls-33" d="M128,228.53l-7.31-56.84s0-.05,0-.07L128,228.55s0,0,0,0Z" transform="translate(-40.42 -81.06)"/><path class="cls-34" d="M128,228.55l-7.32-56.93s0,0,0-.06l7.33,57Z" transform="translate(-40.42 -81.06)"/><path class="cls-35" d="M128,228.56l-7.33-57v-.07L128,228.57Z" transform="translate(-40.42 -81.06)"/><path class="cls-36" d="M128,228.57l-7.34-57.08v-.08L128,228.58a0,0,0,0,1,0,0Z" transform="translate(-40.42 -81.06)"/><path class="cls-37" d="M128,228.58l-7.35-57.17a.19.19,0,0,0,0-.08L128,228.59Z" transform="translate(-40.42 -81.06)"/><path class="cls-38" d="M128,228.59l-7.36-57.26v0l.36,2.85.37,2.85.37,2.85.37,2.87.37,2.86.36,2.87.74,5.75.37,2.88.37,2.88.74,5.75.37,2.88.37,2.87.37,2.87.37,2.87.37,2.86.37,2.85.36,2.85.37,2.85Z" transform="translate(-40.42 -81.06)"/></g></g></g><path class="cls-39" d="M120.57,170.92c2.37,18.49,5.4,37.8,7.78,56.29-12.24,7.06-25.78,14.71-38,21.77-2.38-18.48-4.88-37.93-7.26-56.42Z" transform="translate(-40.42 -81.06)"/><path class="cls-40" d="M120.69,170.31h0s0-.05,0-.07,0,0,0-.06a.11.11,0,0,0,0-.06s0-.05,0-.06a923519935048.72,923519935048.72,0,0,1,0-.14l0-.08,0-.09h0l0-.08a.33.33,0,0,0-.06-.1l-.07-.09h0l-.09-.1-.09-.09,0,0,0,0,0,0-.12-.09-.1-.06,0,0h0l-.13-.08-.15-.07h0l-.42-.17-.14,0-.16,0-.16,0h0l-.15,0h-.33l-.16,0-.16,0-.08,0h-.07l-.18.06-.17.09-1.9,1.1-1.9,1.1L111.67,172,106,175.28l-.15.09-.27.16-5.24,3-.25.15-.2.11-7,4-.55.32-1.65,1-6,3.47h0l-1.91,1.1-.6.35L79,190.87h.1a7.41,7.41,0,0,1,.93.33l.42.17,1,.43.08,0,0,0c.46.21.9.41,1.21.57h0l.21.11,37.49-21.64a0,0,0,0,1,0,0v0a0,0,0,0,0,0,0v-.06a0,0,0,0,0,0,0s0,0,0,0a0,0,0,0,1,0,0v-.06a0,0,0,0,0,0,0,0,0,0,0,1,0,0v-.24Z" transform="translate(-40.42 -81.06)"/><path class="cls-41" d="M83.08,192.56l-.09-.05-.11-.06-.07,0-.07,0-.07,0-.06,0h0l-.07,0-.1,0-.11,0s-.08,0-.12-.07L82,192l0,0-.16-.07h0l-.67-.3h0l0,0c-.21-.09-.42-.18-.62-.25l-.42-.17c-.67-.27-1-.39-1-.34.22,1.71.51,4,.73,5.69l.73,5.72.75,5.74q1,8,2.06,16.06l.15,1.2.37,2.87.09.66q.87,6.83,1.75,13.66h0v.07c.25,1.87.48,3.75.72,5.62a1.8,1.8,0,0,0,1.16,1.37l.43.17a1.74,1.74,0,0,0,.59.13l0,0h.31a.27.27,0,0,0,.09,0h.1l.15,0h.08l.06,0h0a.59.59,0,0,0,.14-.06l.07,0h0s0,0,0,0l.09-.06.08-.05.06-.05h0l.06-.05a.34.34,0,0,0,.06-.06l.06-.06,0,0h0l0,0,.08-.12.07-.13Z" transform="translate(-40.42 -81.06)"/><path class="cls-41" d="M130.36,269.48v-.16h0V269L89.48,245.16c-.1,0-.26.59-.36.61s.82.08.81.09h-.05l-.08,0-.08,0-.08,0h0l0,0-.08.05-.08.06-.08.06h0l-.1.1-.11.13v0l0,0-.09.13-.06.11a.93.93,0,0,0,0,.1l0,0a.42.42,0,0,1,0,.1l-.09.25s0,0,0,.06a.13.13,0,0,1,0,.06,2.59,2.59,0,0,0-.08.63v.53c0,.87-1.61.73-1,1.06.74.43,3.5,1.75,4.23,2.18l1.83,1.05,2,1.17,2,1.17,1,.6,3.16,1.82,2,1.12,2,1.19,2,1.18,2,1.18,2.05,1.19,2,1.19,2,1.18,2,1.18L120,268l.3.18,1.91,1.1,2,1.17,2,1.17,2,1.18,2,1.16s0-.51,0-1.38v-3.12Z" transform="translate(-40.42 -81.06)"/><path class="cls-40" d="M167.94,247.14,130.36,269c-13.09-7.55-27.39-16-40.49-23.59,12.25-7.11,25.71-14.28,38-21.4Z" transform="translate(-40.42 -81.06)"/><path class="cls-42" d="M169.59,249.09c0-.07,0-.13,0-.19a.07.07,0,0,1,0-.05v0a.38.38,0,0,0,0-.1l0-.17,0-.09,0,0v0l-.06-.14-.06-.13s0,0,0,0h0a.25.25,0,0,1,0-.07l-.07-.11a.86.86,0,0,0-.07-.1s0,0,0,0h0l0,0-.06-.08-.06-.06-.06-.05a.1.1,0,0,0-.05,0s0,0,0-.05l-.06,0-.05,0-.08-.06s-.05,0-.08,0l-.1-.05,0,0h-.09l0,0h-.33L130.36,269h0v.48h0v4.43c0,.06,0,.09,0,.09l1.9-1.1,1.23-.72,6.32-3.67.07,0,1.93-1.12,1.91-1.11,1.14-.66,2.3-1.34.41-.24.17-.09,5.6-3.27,3.85-2.22,7.65-4.45,3.78-2.2a1.71,1.71,0,0,0,.39-.32h0l0,0s.08-.09.11-.14l.11-.16.06-.12,0,0s0,0,0,0,0-.11.08-.18l.06-.17c0-.05,0-.1,0-.15v0h0c0-.06,0-.13,0-.19s0-.13,0-.2a1.21,1.21,0,0,0,0-.19v-.55A1.09,1.09,0,0,0,169.59,249.09Z" transform="translate(-40.42 -81.06)"/><polygon class="cls-42" points="80.17 89.8 42.67 111.5 49.46 164.32 87.42 142.92 80.17 89.8"/><polygon class="cls-40" points="82.47 107.38 44.9 128.89 47.97 152.75 85.76 130.06 82.47 107.38"/><path d="M179.88,298.26s.41,5.38,2.73,8.3,13,9.7,12.22,12.65-8.57,3.09-13.38-1.88-6.1-5.75-8.16-6.22-5-3.12-2.78-7.63C170.51,303.48,177.15,301.7,179.88,298.26Z" transform="translate(-40.42 -81.06)"/><path d="M166.1,308.21s.79,5.62,3.41,8.52,14.31,9.28,13.65,12.42S174.39,333,169,328.09s-6.77-5.61-9-6-5.44-2.94-3.42-7.81C156.63,314.31,163.47,312,166.1,308.21Z" transform="translate(-40.42 -81.06)"/><path class="cls-43" d="M137.76,227.6s38.8,21.74,41.15,28.59c3.36,9.83,2.74,16.51,1.11,40.89l.11,5.74s-5,4.05-10.41,1.3c-1.68-.85,0-16.9-2.66-25.83,0,0-.84-10.61,0-13.41,0,0-31.31-10.87-38.62-17.58S137.76,227.6,137.76,227.6Z" transform="translate(-40.42 -81.06)"/><path class="cls-43" d="M104.76,234.44s-6.17,14,10.25,22.44c17.43,9,35.88,19.88,35.88,19.88s-.48,11,.89,17.68c1.85,9,4.57,20.72,4.57,20.72s7.48,3,11.7-1.09c0,0,.39-43.2-4.69-48.08s-30.47-24.18-30.47-24.18l4.87-14.21Z" transform="translate(-40.42 -81.06)"/><path class="cls-43" d="M115,256.88c17.43,9,35.88,19.88,35.88,19.88s-.48,11,.89,17.68c1.85,9,3.17,20.3,3.17,20.3a23.1,23.1,0,0,0,4.55.95c-2.59-11.6-3.74-37.43-4.92-42.18-1.47-5.89-19.86-12.19-32.93-19.09S108,233.78,108,233.77l-3.23.67S98.59,248.4,115,256.88Z" transform="translate(-40.42 -81.06)"/><path class="cls-43" d="M181.34,296.29c1.63-24.38.93-30.27-2.43-40.1-2.35-6.85-41.15-28.59-41.15-28.59a51,51,0,0,0-4.53,4.11c10.47,5.15,35.55,18.17,40.23,27,5.37,10.08,1.35,38.18,1.89,46.24a25.29,25.29,0,0,0,5.65-1.43Z" transform="translate(-40.42 -81.06)"/><path class="cls-44" d="M153.77,219.35s5.31-.88,7.6,1,4.09,2.53,5.09,4.51-.19,3-2,2.94a17.58,17.58,0,0,1-7.34-2.71c-2.68-1.65-3.09-1.25-4-1.41S151.22,221,153.77,219.35Z" transform="translate(-40.42 -81.06)"/><path class="cls-45" d="M130.6,178.33c2.59-.3,6.75,1.17,6.59,8s-.81,26.09-.81,26.09,17.78,5.3,19.73,6.23c0,0-3.63,1.6-2.72,5.34,0,0-20.56.4-24.26-4.54S120,179.52,130.6,178.33Z" transform="translate(-40.42 -81.06)"/><path class="cls-45" d="M100.51,192s6.16-10.67,30.65-14.16c0,0,3.91-1.63,3.54,11,0,1.83,1.84,5,3.13,6.61s4.69,8-2.77,15.6c0,0-2.89,11.29.56,18.6,3.08,6.52-13,12.9-26.75,11.57-1.69-.17-5.42-1.28-4-7.16s5-16.18,2.2-27S98.67,197.54,100.51,192Z" transform="translate(-40.42 -81.06)"/><path class="cls-46" d="M100.51,192c-1.84,5.51,3.86,4.23,6.61,15.07s-.73,21.15-2.2,27,2.26,7,4,7.16a40.75,40.75,0,0,0,6.9.05c-4.81-10.52,1.34-29.63,1.65-40.17.33-11.18-9.8-15.54-9.8-15.54C102.26,189,100.51,192,100.51,192Z" transform="translate(-40.42 -81.06)"/><path class="cls-47" d="M135.62,229.72c-3.45-7.31-.56-18.6-.56-18.6,7.46-7.6,4.05-13.94,2.77-15.6s-3.18-4.78-3.13-6.61c.15-5-.37-7.75-1-9.28-1.42,1.66-4.27,1.06-3.32,6.88.57,3.46-.59,8.6-6,8.62s-2.34,8.61-2,11c2.18,16.63-6.69,24.41-3.82,34.92C129,239.64,138,234.73,135.62,229.72Z" transform="translate(-40.42 -81.06)"/><path class="cls-48" d="M126.79,158.21s-1.61,12.67-2.37,24.74a4,4,0,0,0,5,4s9.16-14.31,1.84-28.51c-2.33-4.51-10.71-10.83-20.26-4.2Z" transform="translate(-40.42 -81.06)"/><path class="cls-49" d="M129.38,174.81S125,179.93,127,185.44c.55,1.52,1.92,7.75-7.48,5.17,0,0-9.78-5-6.83-7.94,2-2,3.87-4.8,1-14.93Z" transform="translate(-40.42 -81.06)"/><path class="cls-50" d="M112.7,182.67a1.53,1.53,0,0,0-.49,1c9,1.82,15.19-4.49,15.19-4.49L115.77,168.8h0s-.6.4-1.49,1.06C116.28,178.28,114.52,180.85,112.7,182.67Z" transform="translate(-40.42 -81.06)"/><path class="cls-51" d="M127.88,156.87s2.53.88,2.59,8.39c0,.83,1.34,1.93,1.68,4s.77,10.46-4.08,11.32c-3.51.63-12.18-1.6-15.07-10.05S117.36,151.26,127.88,156.87Z" transform="translate(-40.42 -81.06)"/><path class="cls-52" d="M127.4,159.88s-21.56,7.86-5.43,35.64c0,0-11.23,1.08-16.23-8.61-2.4-4.65-1.44-14-.71-23,0,0,2.51-13.77,14-11.69C119.07,152.23,126.69,155.15,127.4,159.88Z" transform="translate(-40.42 -81.06)"/><path class="cls-48" d="M127.4,159.88s3.76-.71,5.59,6.23c0,0-.58-19.6-19.15-13.69C113.84,152.42,124.9,153,127.4,159.88Z" transform="translate(-40.42 -81.06)"/><path class="cls-51" d="M117.28,172s-1.31-4.16-3.7-2.9c-.76.4-1.58,1.26-.44,3.41s3.5,4.09,5.39,3.87Z" transform="translate(-40.42 -81.06)"/><path class="cls-53" d="M138.49,255.51l0-16.88,25.62-14.89,0,16.87a2.59,2.59,0,0,1-1.07,2.36l-25.63,14.89A2.53,2.53,0,0,0,138.49,255.51Z" transform="translate(-40.42 -81.06)"/><path class="cls-54" d="M134.88,232.29c-2-1.18-3.69-.24-3.69,2.1l-.05,16.88a8.05,8.05,0,0,0,3.66,6.34c2,1.18,3.68.23,3.69-2.1l0-16.88A8.08,8.08,0,0,0,134.88,232.29Z" transform="translate(-40.42 -81.06)"/><path class="cls-54" d="M134.88,232.29c-2-1.18-3.69-.24-3.69,2.1l-.05,16.88a8.05,8.05,0,0,0,3.66,6.34c2,1.18,3.68.23,3.69-2.1l0-16.88A8.08,8.08,0,0,0,134.88,232.29Z" transform="translate(-40.42 -81.06)"/><path class="cls-55" d="M134.68,233.62a6.32,6.32,0,0,1,2.86,4.95V240l-5.74-3.45v-1.25C131.81,233.44,133.09,232.7,134.68,233.62Z" transform="translate(-40.42 -81.06)"/><path class="cls-53" d="M134.68,233.62a4.81,4.81,0,0,1,.88.71l-3.76,2v-1.11C131.81,233.44,133.09,232.7,134.68,233.62Z" transform="translate(-40.42 -81.06)"/><path class="cls-55" d="M157.89,217.14h0l.19-.1.19-.06.13,0h.08l.23,0h.51a2.17,2.17,0,0,1,.33.07l.13,0,.14.06a.38.38,0,0,1,.15,0,4.11,4.11,0,0,1,.52.25,6.5,6.5,0,0,1,1.23,1l.17.18,0,.05.18.19a3.47,3.47,0,0,1,.3.37,4.08,4.08,0,0,1,.25.33l.21.32a3.21,3.21,0,0,1,.19.31l.17.3.16.32a1.83,1.83,0,0,1,.14.32,3.27,3.27,0,0,1,.14.33l.12.35.06.19a.06.06,0,0,1,0,0,.57.57,0,0,1,0,.14c.05.14.08.28.12.42s.05.34.08.51a4.47,4.47,0,0,1,0,.72v10.47l-25.65,15.13,0-10.71a6.14,6.14,0,0,0-.29-1.8v0a8.87,8.87,0,0,0-.77-1.77l0,0a8.6,8.6,0,0,0-1.12-1.53l-.07-.07a6.05,6.05,0,0,0-1.39-1.13,5.13,5.13,0,0,0-.68-.32l-.14,0a3.5,3.5,0,0,0-.59-.13h-.07a2.31,2.31,0,0,0-.59,0h0a1.62,1.62,0,0,0-.53.2Z" transform="translate(-40.42 -81.06)"/><g class="cls-2"><polygon class="cls-56" points="109.95 159.14 109.46 158.86 109.47 162.82 109.96 163.11 109.95 159.14"/><polygon class="cls-57" points="114.25 156.66 113.77 156.38 109.46 158.86 109.95 159.14 114.25 156.66"/><polygon class="cls-58" points="109.95 159.14 109.96 163.11 114.27 160.62 114.25 156.66 109.95 159.14"/></g><path class="cls-59" d="M157.9,217.13l.19-.1.19-.06.13,0h.08l.23,0h.51a2.17,2.17,0,0,1,.33.07l.13,0,.14.06a.38.38,0,0,1,.15,0,4.11,4.11,0,0,1,.52.25,6.5,6.5,0,0,1,1.23,1l.17.18,0,.05.18.19a3.47,3.47,0,0,1,.3.37,4.08,4.08,0,0,1,.25.33l.21.32a3.21,3.21,0,0,1,.19.31l.17.3.16.32a1.83,1.83,0,0,1,.14.32,3.27,3.27,0,0,1,.14.33l.12.35.06.19a.06.06,0,0,1,0,0,.57.57,0,0,1,0,.14c.05.14.08.28.12.42s.05.34.08.51a4.47,4.47,0,0,1,0,.72v10.13c-5.94-12.2-26.84-3.25-31.07-2.08a1.45,1.45,0,0,0-.28,0h0a1.62,1.62,0,0,0-.53.2l25.63-14.89Z" transform="translate(-40.42 -81.06)"/><polygon class="cls-53" points="111.65 140.61 110.58 139.99 110.58 142.15 111.65 142.76 111.65 140.61"/><polygon class="cls-60" points="104.02 143.77 104.02 145.02 104.03 147.17 102.96 146.54 102.95 144.39 102.95 143.15 104.02 143.77"/><polygon class="cls-61" points="103.93 142.58 110.58 138.75 111.56 138.17 112.63 138.8 111.64 139.36 105 143.19 104.02 143.77 102.95 143.15 103.93 142.58"/><polygon class="cls-55" points="104.02 143.77 104.02 145.02 104.03 147.17 105.02 146.6 105 144.44 111.65 140.61 111.65 142.76 112.64 142.19 112.64 140.04 112.63 138.8 111.64 139.36 105 143.19 104.02 143.77"/><path class="cls-59" d="M134.8,257.61a8.05,8.05,0,0,1-3.66-6.34l0-8.62c1.18,3.94,3.51,9.74,7.33,11.46v1.4C138.48,257.84,136.83,258.79,134.8,257.61Z" transform="translate(-40.42 -81.06)"/><path class="cls-44" d="M132.79,227.09s5.38.16,7.27,2.47,4.44,4.7,5,6.84.17,2.91-1.54,2.48-6.24-3.33-8.54-5.47-2.8-1.84-3.63-2.16S130,228.21,132.79,227.09Z" transform="translate(-40.42 -81.06)"/><path class="cls-25" d="M92.6,255.48a9.06,9.06,0,0,1,.13-.91.61.61,0,0,1,0-.13c0-.29.12-.56.19-.82,0,0,0-.08,0-.12a5.87,5.87,0,0,1,.24-.63,1.54,1.54,0,0,1,.08-.19c.08-.17.17-.34.26-.5l.11-.19a1,1,0,0,1,.09-.13,6,6,0,0,1,.53-.67l.19-.18a3.68,3.68,0,0,1,.73-.57l-2.4,1.4a4.06,4.06,0,0,0-.74.57l-.17.17a4.66,4.66,0,0,0-.55.68l-.06.08,0,0-.12.2c-.07.13-.14.25-.21.4a.3.3,0,0,0,0,.1,1.54,1.54,0,0,0-.08.19l-.12.27a2.4,2.4,0,0,0-.12.38l0,.08a.14.14,0,0,0,0,.07c-.05.16-.09.32-.13.5l-.06.28s0,.06,0,.1a.36.36,0,0,0,0,.11c0,.16,0,.32-.08.49l0,.35V257a.28.28,0,0,0,0,.09c0,.16,0,.32,0,.48s0,.33,0,.5v0L90,298.55l2.4-1.39.11-40.51c0-.37,0-.73,0-1.08A.28.28,0,0,0,92.6,255.48Z" transform="translate(-40.42 -81.06)"/><path class="cls-25" d="M125.76,275.26l0-.61s0-.1,0-.16v-.05l0-.4c0-.21,0-.42-.07-.62a1.87,1.87,0,0,0,0-.25c0-.05,0-.1,0-.14l0-.24c0-.21-.07-.41-.11-.63s0-.27-.08-.4,0-.07,0-.1l0-.14c0-.22-.09-.43-.15-.65s-.1-.37-.14-.55v0a.64.64,0,0,0,0-.07l-.18-.64c-.07-.2-.13-.41-.2-.61a.14.14,0,0,1,0-.06h0c-.07-.18-.13-.36-.19-.54s-.14-.38-.22-.58-.05-.13-.08-.2l0-.08-.11-.27c-.08-.19-.15-.37-.24-.55s-.13-.3-.2-.44,0,0,0-.05a.08.08,0,0,0,0-.05c-.09-.2-.18-.4-.28-.59l-.31-.61,0,0,0-.06-.48-.85a1.63,1.63,0,0,0-.11-.17c-.15-.26-.31-.51-.47-.75s-.16-.27-.25-.4l-.09-.13-.22-.32c-.11-.14-.2-.29-.31-.43l-.32-.42-.07-.1,0,0c-.12-.16-.25-.32-.38-.47l-.37-.44-.06-.06-.06-.07-.26-.29-.37-.39-.21-.2-.09-.09-.1-.1-.41-.38c-.13-.12-.26-.24-.4-.35h0s0,0,0,0l-.37-.31-.39-.3-.17-.11-.09-.07-.14-.1-.38-.25-.38-.23-.09-.06-15.41-8.9-.29-.15-.37-.19-.28-.14,0,0h0l-.36-.16-.37-.14-.12,0-.07,0-.18-.06-.37-.1-.28-.07h-.12l-.39-.06-.38,0h-1a5.21,5.21,0,0,0-.57.08l0,0-.3.08-.35.09-.07,0a4,4,0,0,0-.79.36l-2.4,1.4a4.73,4.73,0,0,1,.79-.37,3.19,3.19,0,0,1,.44-.13l.28-.08a5.06,5.06,0,0,1,.71-.1h.09a5,5,0,0,1,.77,0h0a6.29,6.29,0,0,1,.84.12h0a7.48,7.48,0,0,1,.84.22l.08,0a9.09,9.09,0,0,1,.89.35h0a8.45,8.45,0,0,1,.94.49l15.42,8.9c.34.19.66.41,1,.63l.09.07c.32.23.64.47.95.73h0c.31.27.62.55.92.84l.09.09c.29.28.57.58.84.88l.06.07c.29.33.57.67.85,1l0,.05c.22.29.43.58.65.89l.22.31c.11.16.22.33.32.5s.35.54.51.81.37.63.54,1l.06.1c.23.41.44.84.64,1.27,0,0,0,0,0,.06.19.39.36.8.53,1.21l.06.16c.17.42.32.84.47,1.26,0,0,0,0,0,.06.15.43.29.87.41,1.32l0,.12c.12.42.22.84.31,1.26a.59.59,0,0,0,0,.13c.09.42.16.83.22,1.24,0,0,0,.1,0,.16.06.4.1.81.14,1.22a.62.62,0,0,0,0,.13c0,.44,0,.88,0,1.31l-.11,40.5,2.4-1.39.12-40.51C125.77,275.64,125.76,275.45,125.76,275.26Z" transform="translate(-40.42 -81.06)"/><path class="cls-26" d="M113.29,258.36c5.58,3.22,10.1,11.68,10.07,18.87l-.11,40.5-2.41-1.39.11-40.51c0-5.65-3.43-12.25-7.67-14.7l-15.41-8.9c-4.24-2.44-7.71.16-7.73,5.82L90,298.55l-2.41-1.39.11-40.5c0-7.19,4.57-10.42,10.14-7.2Z" transform="translate(-40.42 -81.06)"/><g class="cls-2"><polygon class="cls-62" points="292.25 224.11 295.88 222 296.12 137.65 292.49 139.76 292.25 224.11"/><polygon class="cls-63" points="292.49 139.76 296.12 137.65 247.09 109.34 243.45 111.45 292.49 139.76"/><polygon class="cls-12" points="243.45 111.45 243.22 195.8 292.25 224.11 292.49 139.76 243.45 111.45"/></g><g class="cls-2"><polygon class="cls-64" points="170.15 295.89 173.78 293.78 174.02 209.43 170.38 211.54 170.15 295.89"/><polygon class="cls-63" points="170.38 211.54 174.02 209.43 124.99 181.12 121.36 183.24 170.38 211.54"/><polygon class="cls-12" points="121.36 183.24 121.12 267.58 170.15 295.89 170.38 211.54 121.36 183.24"/></g><g class="cls-2"><polygon class="cls-65" points="99.39 188.94 99.41 194.31 162.63 231.05 162.61 225.68 99.39 188.94"/><polygon class="cls-66" points="162.61 225.68 162.63 231.05 306.53 147.96 306.52 142.59 162.61 225.68"/><polygon class="cls-67" points="99.39 188.94 162.61 225.68 306.52 142.59 243.3 105.85 99.39 188.94"/></g><polygon class="cls-68" points="123.63 194.2 152.45 210.94 174.81 198.04 145.98 181.29 123.63 194.2"/><g class="cls-69"><path d="M215.76,248.07c3.7,2.14,3.71,5.59.05,7.71a14.6,14.6,0,0,1-13.31,0c-3.69-2.13-3.7-5.57,0-7.71A14.67,14.67,0,0,1,215.76,248.07Z" transform="translate(-40.42 -81.06)"/></g><g class="cls-69"><polygon points="188.09 154.65 204.74 164.32 244.17 141.56 227.53 131.88 188.09 154.65"/></g><g class="cls-2"><polygon class="cls-70" points="196.23 150.91 196.24 153.28 207.77 159.99 207.76 157.62 196.23 150.91"/><polygon class="cls-71" points="207.76 157.62 207.77 159.99 235.1 144.21 235.09 141.84 207.76 157.62"/><polygon class="cls-72" points="196.23 150.91 207.76 157.62 235.09 141.84 223.56 135.14 196.23 150.91"/><g class="cls-73"><polygon class="cls-74" points="196.23 150.91 235.09 141.84 235.09 141.84 223.56 135.14 196.23 150.91"/></g></g><g class="cls-2"><polygon class="cls-70" points="206.88 153.21 204.84 152.02 204.77 130.69 206.82 131.88 206.88 153.21"/><polygon class="cls-68" points="206.82 131.88 204.77 130.69 223.34 119.97 225.38 121.16 206.82 131.88"/><polygon class="cls-75" points="225.38 121.16 225.45 142.49 206.88 153.21 206.82 131.88 225.38 121.16"/></g><polygon class="cls-76" points="188.19 153.05 186.21 152.5 177.73 110.68 179.71 111.24 188.19 153.05"/><polygon class="cls-77" points="179.71 111.24 177.73 110.68 232.88 78.84 234.86 79.39 179.71 111.24"/><polygon class="cls-75" points="234.86 79.39 243.34 121.21 188.19 153.05 179.71 111.24 234.86 79.39"/><polygon class="cls-74" points="233.38 82.73 240.91 120.4 189.85 149.94 182.02 111.79 233.38 82.73"/><polygon class="cls-78" points="226.82 95.04 231.73 119.56 198.47 138.8 193.38 113.96 226.82 95.04"/><polygon class="cls-74" points="226.85 103.18 227.07 104.27 208.44 115.52 208.24 114.46 226.85 103.18"/><polygon class="cls-74" points="226.4 100.24 226.61 101.34 207.99 112.59 207.78 111.53 226.4 100.24"/><polygon class="cls-74" points="228.26 109.8 228.47 110.89 209.84 122.14 209.64 121.08 228.26 109.8"/><polygon class="cls-74" points="227.8 106.86 228.02 107.95 209.39 119.21 209.19 118.14 227.8 106.86"/><polygon class="cls-78" points="186.98 111.24 187.4 113.31 184.58 114.95 184.15 112.84 186.98 111.24"/><polygon class="cls-78" points="188.26 116.61 188.68 118.68 185.86 120.31 185.42 118.21 188.26 116.61"/><polygon class="cls-78" points="189.4 122.39 189.81 124.47 186.99 126.1 186.56 124 189.4 122.39"/><polygon class="cls-78" points="190.33 127.66 190.75 129.74 187.93 131.37 187.49 129.26 190.33 127.66"/><path class="cls-79" d="M236.7,196.06l8.71-4.59,2.18,11.21-8.71,4.59Zm2.36,9.53,7.79-4.11a3.39,3.39,0,0,0-3.09-2.6,3.2,3.2,0,0,0,0-1.27c-.25-1.26-1.25-1.85-2.26-1.32a3.14,3.14,0,0,0-1.37,3.24,2.13,2.13,0,0,0,.48,1,7.21,7.21,0,0,0-1.58,5.06Z" transform="translate(-40.42 -81.06)"/><path class="cls-80" d="M241.53,196.29c1-.53,2,.06,2.26,1.32a3.2,3.2,0,0,1,0,1.27,3.39,3.39,0,0,1,3.09,2.6l-7.79,4.11a7.21,7.21,0,0,1,1.58-5.06,2.13,2.13,0,0,1-.48-1A3.14,3.14,0,0,1,241.53,196.29Z" transform="translate(-40.42 -81.06)"/><g class="cls-69"><polygon points="205.2 176 222.44 186.02 274.44 156 257.2 145.98 205.2 176"/></g><g class="cls-2"><polygon class="cls-76" points="205.83 171.72 205.83 174.51 221.98 183.9 221.97 181.1 205.83 171.72"/><polygon class="cls-71" points="221.97 181.1 221.98 183.9 270.66 155.79 270.65 153 221.97 181.1"/><polygon class="cls-72" points="205.83 171.72 221.97 181.1 270.65 153 254.51 143.61 205.83 171.72"/></g><polygon class="cls-81" points="211.72 171.49 213.2 172.35 215.07 171.27 213.59 170.41 211.72 171.49"/><polygon class="cls-81" points="214.45 169.92 215.94 170.78 217.8 169.71 216.31 168.85 214.45 169.92"/><polygon class="cls-81" points="217.38 168.33 218.86 169.19 220.73 168.12 219.25 167.25 217.38 168.33"/><polygon class="cls-81" points="220.11 166.77 221.6 167.63 223.46 166.55 221.98 165.69 220.11 166.77"/><polygon class="cls-81" points="222.79 165.24 224.27 166.09 226.13 165.02 224.65 164.16 222.79 165.24"/><polygon class="cls-81" points="225.52 163.67 227 164.53 228.87 163.46 227.39 162.6 225.52 163.67"/><polygon class="cls-81" points="228.45 162.08 229.93 162.94 231.8 161.87 230.31 161.01 228.45 162.08"/><polygon class="cls-81" points="231.18 160.52 232.66 161.38 234.53 160.3 233.05 159.44 231.18 160.52"/><polygon class="cls-81" points="233.74 159.15 235.23 160.02 237.09 158.94 235.61 158.08 233.74 159.15"/><polygon class="cls-81" points="236.48 157.59 237.96 158.45 239.82 157.38 238.34 156.51 236.48 157.59"/><polygon class="cls-81" points="239.41 156 240.89 156.86 242.75 155.78 241.27 154.92 239.41 156"/><polygon class="cls-81" points="242.14 154.43 243.62 155.29 245.49 154.22 244 153.36 242.14 154.43"/><polygon class="cls-81" points="244.81 152.91 246.29 153.76 248.15 152.69 246.67 151.82 244.81 152.91"/><polygon class="cls-81" points="247.54 151.34 249.03 152.2 250.88 151.12 249.41 150.26 247.54 151.34"/><polygon class="cls-81" points="250.47 149.75 251.95 150.61 253.81 149.53 252.33 148.67 250.47 149.75"/><polygon class="cls-81" points="253.21 148.18 254.68 149.04 256.54 147.97 255.07 147.11 253.21 148.18"/><polygon class="cls-81" points="214.66 173.14 216.14 174 218 172.92 216.52 172.06 214.66 173.14"/><polygon class="cls-81" points="217.39 171.58 218.87 172.44 220.74 171.36 219.25 170.5 217.39 171.58"/><polygon class="cls-81" points="220.32 169.98 221.8 170.84 223.66 169.77 222.19 168.91 220.32 169.98"/><polygon class="cls-81" points="223.06 168.42 224.53 169.28 226.4 168.2 224.91 167.34 223.06 168.42"/><polygon class="cls-81" points="225.73 166.88 227.21 167.75 229.07 166.67 227.59 165.81 225.73 166.88"/><polygon class="cls-81" points="228.46 165.32 229.94 166.18 231.8 165.11 230.33 164.25 228.46 165.32"/><polygon class="cls-81" points="231.38 163.73 232.87 164.59 234.73 163.51 233.25 162.65 231.38 163.73"/><polygon class="cls-81" points="234.12 162.17 235.6 163.03 237.46 161.95 235.98 161.09 234.12 162.17"/><polygon class="cls-81" points="236.68 160.8 238.16 161.66 240.03 160.59 238.55 159.73 236.68 160.8"/><polygon class="cls-81" points="239.41 159.24 240.89 160.1 242.76 159.03 241.28 158.16 239.41 159.24"/><polygon class="cls-81" points="242.34 157.65 243.82 158.51 245.69 157.43 244.21 156.57 242.34 157.65"/><polygon class="cls-81" points="245.07 156.08 246.55 156.94 248.42 155.87 246.94 155.01 245.07 156.08"/><polygon class="cls-81" points="247.74 154.55 249.23 155.41 251.09 154.34 249.61 153.48 247.74 154.55"/><polygon class="cls-81" points="250.48 152.99 251.96 153.84 253.82 152.77 252.34 151.91 250.48 152.99"/><polygon class="cls-81" points="253.41 151.4 254.89 152.25 256.76 151.18 255.27 150.32 253.41 151.4"/><polygon class="cls-81" points="256.14 149.83 257.62 150.69 259.48 149.61 258 148.76 256.14 149.83"/><polygon class="cls-81" points="217.41 174.89 218.89 175.75 220.75 174.67 219.27 173.81 217.41 174.89"/><polygon class="cls-81" points="220.14 173.32 221.62 174.18 223.49 173.11 222 172.25 220.14 173.32"/><polygon class="cls-81" points="223.07 171.73 224.55 172.59 226.41 171.51 224.93 170.66 223.07 171.73"/><polygon class="cls-81" points="225.8 170.17 227.28 171.03 229.14 169.95 227.66 169.09 225.8 170.17"/><polygon class="cls-81" points="228.48 168.63 229.96 169.5 231.82 168.42 230.34 167.56 228.48 168.63"/><polygon class="cls-81" points="231.21 167.07 232.68 167.94 234.55 166.86 233.07 166 231.21 167.07"/><polygon class="cls-81" points="234.14 165.48 235.62 166.34 237.48 165.26 236 164.4 234.14 165.48"/><polygon class="cls-81" points="236.87 163.92 238.34 164.78 240.21 163.7 238.74 162.84 236.87 163.92"/><polygon class="cls-81" points="239.43 162.56 240.91 163.41 242.77 162.34 241.29 161.48 239.43 162.56"/><polygon class="cls-81" points="242.16 160.99 243.64 161.85 245.51 160.78 244.02 159.91 242.16 160.99"/><polygon class="cls-81" points="245.1 159.4 246.57 160.26 248.43 159.18 246.96 158.32 245.1 159.4"/><polygon class="cls-81" points="247.82 157.83 249.3 158.69 251.17 157.62 249.68 156.76 247.82 157.83"/><polygon class="cls-81" points="250.5 156.31 251.98 157.16 253.84 156.09 252.36 155.23 250.5 156.31"/><polygon class="cls-81" points="253.23 154.74 254.71 155.6 256.57 154.52 255.09 153.66 253.23 154.74"/><polygon class="cls-81" points="256.16 153.15 257.64 154.01 259.5 152.93 258.02 152.07 256.16 153.15"/><polygon class="cls-81" points="258.89 151.58 260.37 152.44 262.23 151.37 260.75 150.51 258.89 151.58"/><polygon class="cls-81" points="219.93 176.54 221.41 177.4 223.28 176.32 221.79 175.46 219.93 176.54"/><polygon class="cls-81" points="222.66 174.97 224.14 175.84 226.01 174.76 224.53 173.9 222.66 174.97"/><polygon class="cls-81" points="225.59 173.39 227.07 174.24 228.94 173.16 227.45 172.31 225.59 173.39"/><polygon class="cls-81" points="228.32 171.82 229.8 172.68 231.66 171.6 230.19 170.75 228.32 171.82"/><polygon class="cls-81" points="231 170.29 232.48 171.15 234.34 170.07 232.86 169.21 231 170.29"/><polygon class="cls-81" points="233.73 168.73 235.21 169.58 237.07 168.51 235.59 167.65 233.73 168.73"/><polygon class="cls-81" points="236.65 167.13 238.14 167.99 240 166.92 238.52 166.05 236.65 167.13"/><polygon class="cls-81" points="239.39 165.57 240.87 166.43 242.73 165.35 241.25 164.49 239.39 165.57"/><polygon class="cls-81" points="241.95 164.2 243.43 165.06 245.3 163.99 243.81 163.13 241.95 164.2"/><polygon class="cls-81" points="244.68 162.64 246.16 163.5 248.03 162.43 246.55 161.56 244.68 162.64"/><polygon class="cls-81" points="247.61 161.04 249.09 161.91 250.95 160.83 249.48 159.97 247.61 161.04"/><polygon class="cls-81" points="250.34 159.48 251.82 160.34 253.69 159.27 252.21 158.41 250.34 159.48"/><polygon class="cls-81" points="253.01 157.95 254.5 158.81 256.37 157.74 254.88 156.88 253.01 157.95"/><polygon class="cls-81" points="255.75 156.39 257.23 157.25 259.1 156.17 257.61 155.31 255.75 156.39"/><polygon class="cls-81" points="258.68 154.8 260.16 155.66 262.02 154.58 260.54 153.72 258.68 154.8"/><polygon class="cls-81" points="261.41 153.23 262.89 154.09 264.76 153.02 263.28 152.16 261.41 153.23"/><path class="cls-62" d="M214.17,247.31c2.8,1.62,2.81,4.25,0,5.86a11.13,11.13,0,0,1-10.1,0c-2.8-1.61-2.81-4.23,0-5.84A11.13,11.13,0,0,1,214.17,247.31Z" transform="translate(-40.42 -81.06)"/><polygon class="cls-62" points="159.31 157.9 161.58 169.56 175.84 169.56 178.13 157.61 159.31 157.9"/><path class="cls-82" d="M215.76,234.81c3.7,2.13,3.71,5.59.05,7.72a14.69,14.69,0,0,1-13.31,0c-3.69-2.13-3.7-5.58,0-7.7A14.64,14.64,0,0,1,215.76,234.81Z" transform="translate(-40.42 -81.06)"/><path class="cls-83" d="M213.72,235.85c2.7,1.56,2.71,4.08,0,5.64a10.73,10.73,0,0,1-9.73,0c-2.69-1.55-2.7-4.07,0-5.63A10.75,10.75,0,0,1,213.72,235.85Z" transform="translate(-40.42 -81.06)"/><path class="cls-83" d="M202.11,239.38s-6.94-8.77-.12-24.56c0,0,6,7.56,2.56,26.94A5.49,5.49,0,0,1,202.11,239.38Z" transform="translate(-40.42 -81.06)"/><path class="cls-84" d="M202.07,214.94c.13,6.08.47,16.63,1.31,26a4.38,4.38,0,0,0,1.17.79C207.75,223.69,202.76,215.91,202.07,214.94Z" transform="translate(-40.42 -81.06)"/><path class="cls-83" d="M205.52,238.31S200,228.6,209.06,214c0,0,4.8,8.36-1.48,27A5.49,5.49,0,0,1,205.52,238.31Z" transform="translate(-40.42 -81.06)"/><path class="cls-84" d="M208.58,214c-.77,6-2,16.51-2.57,25.94a4.09,4.09,0,0,0,1,.95C212.89,223.5,209.12,215.06,208.58,214Z" transform="translate(-40.42 -81.06)"/><path class="cls-83" d="M205.88,242.15s-8.33-3-10.41-16.35c0,0,7.19,2.53,13,16.9A4.3,4.3,0,0,1,205.88,242.15Z" transform="translate(-40.42 -81.06)"/><path class="cls-84" d="M195.58,225.84c2.64,4,7.3,10.9,11.81,16.83a3.2,3.2,0,0,0,1.11,0C203.05,229.3,196.45,226.2,195.58,225.84Z" transform="translate(-40.42 -81.06)"/><path class="cls-83" d="M209.57,240.85s-4.45-5.09-.81-14.83c0,0,3.85,4.39,2.36,16.19A3.27,3.27,0,0,1,209.57,240.85Z" transform="translate(-40.42 -81.06)"/><path class="cls-84" d="M208.82,226.09c.26,3.67.78,10,1.57,15.68a2.41,2.41,0,0,0,.73.44C212.51,231.21,209.26,226.65,208.82,226.09Z" transform="translate(-40.42 -81.06)"/><path class="cls-83" d="M211.55,237.58s-4.26-7.73,3.09-19.12c0,0,3.69,6.66-1.5,21.28A4.26,4.26,0,0,1,211.55,237.58Z" transform="translate(-40.42 -81.06)"/><path class="cls-84" d="M214.7,218.56c-.69,4.74-1.81,13-2.37,20.42a3.28,3.28,0,0,0,.81.76C218,226.11,215.11,219.4,214.7,218.56Z" transform="translate(-40.42 -81.06)"/><path class="cls-83" d="M212.64,239s-1-6.51,7.07-12.62c0,0,.88,5.61-6.51,14.55A3.28,3.28,0,0,1,212.64,239Z" transform="translate(-40.42 -81.06)"/><path class="cls-84" d="M219.72,226.48c-1.7,3.16-4.58,8.66-6.88,13.73a2.53,2.53,0,0,0,.36.74C220.09,232.62,219.79,227.18,219.72,226.48Z" transform="translate(-40.42 -81.06)"/><polygon class="cls-85" points="132.01 195.29 132.7 195.69 139.48 191.78 138.79 191.38 132.01 195.29"/><polygon class="cls-85" points="134.72 196.87 135.42 197.28 145.49 191.47 144.79 191.06 134.72 196.87"/><polygon class="cls-85" points="133.37 196.08 134.06 196.49 142.87 191.4 142.17 191 133.37 196.08"/><polygon class="cls-85" points="141.79 188.06 147.62 191.45 152.81 188.46 146.98 185.06 141.79 188.06"/><polygon class="cls-85" points="137.45 198.45 138.15 198.86 146.95 193.77 146.25 193.37 137.45 198.45"/><polygon class="cls-85" points="136.08 197.66 136.78 198.07 143.56 194.15 142.87 193.75 136.08 197.66"/><polygon class="cls-85" points="130.64 194.5 131.34 194.91 141.4 189.09 140.71 188.69 130.64 194.5"/><polygon class="cls-85" points="145.34 203.09 146.03 203.49 152.81 199.58 152.12 199.17 145.34 203.09"/><polygon class="cls-85" points="148.06 204.67 148.76 205.07 158.82 199.27 158.13 198.86 148.06 204.67"/><polygon class="cls-85" points="146.7 203.88 147.39 204.28 156.21 199.2 155.51 198.79 146.7 203.88"/><polygon class="cls-85" points="150.78 206.25 151.48 206.66 160.29 201.57 159.59 201.16 150.78 206.25"/><polygon class="cls-85" points="149.42 205.46 150.12 205.87 156.9 201.95 156.21 201.54 149.42 205.46"/><polygon class="cls-85" points="143.98 202.3 144.67 202.7 154.74 196.89 154.04 196.49 143.98 202.3"/><polygon class="cls-85" points="143.13 191.86 171.96 208.62 194.31 195.71 165.49 178.96 143.13 191.86"/><polygon class="cls-86" points="150.77 192.58 151.47 192.98 158.24 189.06 157.55 188.66 150.77 192.58"/><polygon class="cls-86" points="153.49 194.16 154.19 194.56 164.25 188.75 163.56 188.34 153.49 194.16"/><polygon class="cls-86" points="152.13 193.37 152.82 193.77 161.63 188.68 160.94 188.28 152.13 193.37"/><polygon class="cls-86" points="160.56 185.34 166.38 188.73 171.58 185.74 165.75 182.35 160.56 185.34"/><polygon class="cls-86" points="156.21 195.74 156.91 196.14 165.72 191.06 165.02 190.65 156.21 195.74"/><polygon class="cls-86" points="154.85 194.95 155.55 195.35 162.32 191.44 161.63 191.03 154.85 194.95"/><polygon class="cls-86" points="149.41 191.78 150.1 192.19 160.17 186.38 159.47 185.97 149.41 191.78"/><path class="cls-21" d="M304,361.49c-1.46.84-1.44,2.21,0,3a5.7,5.7,0,0,0,5.24,0l34.83-20.1c1.46-.85,1.47-2.21,0-3a5.81,5.81,0,0,0-5.25,0Z" transform="translate(-40.42 -81.06)"/><path class="cls-22" d="M330.63,325.18v0h0a2.24,2.24,0,0,0-1.3-1.83,7,7,0,0,0-6.4,0,2.09,2.09,0,0,0-1.29,2.19,1.92,1.92,0,0,1-.05-.32v0l.07,25.84a2.6,2.6,0,0,0,0,.26.88.88,0,0,0,.05.15.64.64,0,0,0,0,.07v0a2.06,2.06,0,0,0,.12.26,1,1,0,0,0,.08.11l.06.09,0,.07a2.72,2.72,0,0,0,.29.3h0a3.58,3.58,0,0,0,.37.28,1.56,1.56,0,0,0,.19.13l.05,0a5.1,5.1,0,0,0,1,.43l.4.1.21.05a2,2,0,0,0,.23.06c.21,0,.39.06.59.08a4.07,4.07,0,0,0,.5,0h.46c.15,0,.3,0,.45,0a3.49,3.49,0,0,0,.44-.05l.45-.07.16,0,0,0a1.18,1.18,0,0,0,.27-.06,5.27,5.27,0,0,0,.56-.19,6.49,6.49,0,0,0,.65-.31,2.22,2.22,0,0,0,1.32-1.86Zm-7.94,1.69h0c.08.05.14.11.22.15C322.83,327,322.77,326.92,322.69,326.87Zm-1-1.19a1.54,1.54,0,0,0,.17.34,1.48,1.48,0,0,1-.17-.33Zm.26.5a1.79,1.79,0,0,0,.23.25,2.4,2.4,0,0,1-.22-.24Z" transform="translate(-40.42 -81.06)"/><path class="cls-40" d="M321,330.84a2.91,2.91,0,0,0-.29-.48l0,0a5.84,5.84,0,0,0-.43-.51c-.11-.13-.25-.27-.38-.41l-.26-.26c-.34-.33-.74-.69-1.18-1.08l-.28-.22c-.41-.35-.86-.71-1.34-1.1l-.25-.19c-.55-.43-1.15-.87-1.77-1.33-.16-.12-.32-.24-.49-.35q-.84-.61-1.77-1.26l-.35-.24c-.71-.49-1.45-1-2.21-1.49l-.7-.45c-.69-.46-1.4-.91-2.14-1.37l-.36-.24c-.85-.53-1.71-1.06-2.6-1.59l-.72-.44c-.91-.55-1.85-1.09-2.8-1.64-1.39-.81-2.76-1.58-4.08-2.29a1.26,1.26,0,0,0-.23-.13c-1.24-.67-2.43-1.3-3.58-1.89l-.32-.16c-1.12-.56-2.17-1.08-3.17-1.55L289,310c-1-.47-1.93-.88-2.79-1.24l-.2-.08c-.6-.25-1.15-.47-1.67-.65l-.34-.12c-.5-.18-1-.33-1.37-.44l-.26-.07c-.22-.06-.44-.1-.63-.14l-.36,0-.16,0a3.52,3.52,0,0,0-.45,0h0a.72.72,0,0,0-.35.1h0l38-22.1,0,0,.1,0,.12,0h.42l.09,0,.17,0h.19l.13,0c.21,0,.45.09.71.16l.14,0,.05,0q.65.18,1.41.45l.28.1c.55.2,1.11.42,1.73.67l.05,0,.09,0c.86.36,1.8.77,2.8,1.24l.38.17c.95.45,2,.94,3,1.48l.5.26q1.62.82,3.36,1.77l.44.23c1.29.71,2.63,1.46,4,2.25,1,.55,1.88,1.1,2.79,1.65l.74.44,2.58,1.58.39.26c.73.45,1.44.91,2.12,1.35l.69.46c.77.5,1.5,1,2.2,1.47l.41.29,1.69,1.19.55.4c.61.44,1.19.88,1.73,1.29a2.69,2.69,0,0,0,.33.26c.44.35.84.69,1.22,1l.36.31c.42.36.8.7,1.13,1l.08.07.29.3.29.31.06.07h0l.28.33.09.13s0,0,0,0l0,0,.11.17a.41.41,0,0,1,.05.09.35.35,0,0,1,.05.08l0,.08,0,.07,0,.07s0,0,0,.07,0,0,0,.06a.17.17,0,0,1,0,.07.13.13,0,0,1,0,.06v.05a.36.36,0,0,1-.19.34l-38,22.1a.4.4,0,0,0,.2-.35,1,1,0,0,0-.11-.39S321,330.85,321,330.84Z" transform="translate(-40.42 -81.06)"/><path class="cls-41" d="M300.62,316.16c-11.29-6.53-20.44-10.34-20.44-8.52s9.13,8.58,20.42,15.1,20.47,10.33,20.48,8.51S311.92,322.68,300.62,316.16Z" transform="translate(-40.42 -81.06)"/><path class="cls-23" d="M355.48,299.6s-1.28,18.08-21.07,12.65S301,301.54,301,301.54s-25.25-17.41-15.3-21.86C285.66,279.68,294.85,270.47,355.48,299.6Z" transform="translate(-40.42 -81.06)"/><path class="cls-23" d="M355.48,299.6s-1.28,18.08-21.07,12.65S301,301.54,301,301.54s-25.25-17.41-15.3-21.86C285.66,279.68,294.85,270.47,355.48,299.6Z" transform="translate(-40.42 -81.06)"/><path class="cls-23" d="M344.73,307.45s-1.26,18.08-21.06,12.66-42.34-16.95-42.34-16.95S265,292,274.92,287.54C274.92,287.54,284.11,278.33,344.73,307.45Z" transform="translate(-40.42 -81.06)"/><path class="cls-42" d="M321.24,331.51l37.66-22c1.39-1,4.59-15.87,7.11-28.86,2.78-14.43,4.11-27.1,2.94-28.32l-38,26.9c1.17,1.21-.15,13.88-2.94,28.32C325.48,320.53,322.63,330.52,321.24,331.51Z" transform="translate(-40.42 -81.06)"/><path class="cls-50" d="M131.39,231.25c.83.32,1.31,0,3.63,2.16s6.83,5,8.54,5.47a3.44,3.44,0,0,0,.65.1c-1.34-1.42-3.64-3.83-5.67-5.87-2.57-2.57-6.52-3.55-7.77-3.8A1.81,1.81,0,0,0,131.39,231.25Z" transform="translate(-40.42 -81.06)"/><path class="cls-45" d="M103.29,189.71c2.52-.6,6.84.34,7.52,7.19s2.4,26,2.4,26,18.29,3.08,20.35,3.76a3.74,3.74,0,0,0-2.06,5s-20.35,3.59-24.62-.85S92.93,192.2,103.29,189.71Z" transform="translate(-40.42 -81.06)"/><path class="cls-47" d="M133.56,226.65c-2.06-.68-20.35-3.76-20.35-3.76s-1.71-19.15-2.4-26-5-7.79-7.52-7.19a4.54,4.54,0,0,0-1.77.88l-.15.27s6.18,2.7,7.07,15.21-3.84,20,6.63,21l16.37,1.69A4.31,4.31,0,0,1,133.56,226.65Z" transform="translate(-40.42 -81.06)"/><path class="cls-87" d="M274.92,287.54c-2.42,1.09-3.28,2.57-3.2,4.2,15.52.13,49.87,11.9,49.87,11.9l.28-6.41C281.71,280.79,274.92,287.54,274.92,287.54Z" transform="translate(-40.42 -81.06)"/><path class="cls-88" d="M286.36,278.8c-2.44,1.09-3.3,2.58-3.21,4.21,15.52.12,49.87,11.89,49.87,11.89l.29-6.41C293.14,272.05,286.36,278.8,286.36,278.8Z" transform="translate(-40.42 -81.06)"/><path class="cls-88" d="M357.54,223.3s8.2.13,6.85,13.61c-1.11,10.89-5.38,27.54-9.2,33.82s-14.41,18.78-14.41,18.78-9.34-2.13-7.31-7.78l12.9-20S348.63,221.24,357.54,223.3Z" transform="translate(-40.42 -81.06)"/><path class="cls-87" d="M358.24,223.25s8.39,4.41,3.3,18.72-8.67,23.58-8.5,29,1.8,23.49,2.86,27.19c0,0,1.18,11.89-26.09,18.42,0,0-22.36,1.81-18.4-12.8s5.85-38.33,5.4-44-3.62-17,10.67-24.37S349.21,222.51,358.24,223.25Z" transform="translate(-40.42 -81.06)"/><path class="cls-88" d="M316.81,259.74c.45,5.66-1.43,29.37-5.4,44-2.74,10.14,7.16,12.36,13.5,12.78,2.16-6.52-1-18.28,3.95-32.5,6.17-17.58,5.59-29.29,2.65-38.77-1.89-6.15-5.57-6.39-8.16-7.31C313.87,245.16,316.41,254.7,316.81,259.74Z" transform="translate(-40.42 -81.06)"/><path class="cls-89" d="M355.9,298.11c-1.06-3.7-2.68-21.82-2.86-27.19s3.53-14.59,8.5-29c4.69-13.56-.41-17.25-3.3-18.72-1.63,7-26.17,9.55-25.68,14.29.55,5.27,7,10.31,7.2,19.74s-1.31,23.34-3.1,30.27c-1.56,6-1.14,20.68.11,27C356.87,307.88,355.9,298.11,355.9,298.11Z" transform="translate(-40.42 -81.06)"/><path class="cls-44" d="M348.35,215.94s-1.05,7.51,1.44,12.27c2.26,4.33-15.56,7.87-15.9,3.9a17,17,0,0,0-.64-14.61C331.1,213.44,348.35,215.94,348.35,215.94Z" transform="translate(-40.42 -81.06)"/><path class="cls-90" d="M349.69,228.47c-1.85-3.54-1.74-8.59-1.57-11L335,223.68s0,0,0,0c.47.12,9.17,2.51,10.94,8.84C348.67,231.52,350.51,230.05,349.69,228.47Z" transform="translate(-40.42 -81.06)"/><path class="cls-44" d="M330.06,195.57s-2.9,6.78-2.46,12.67c.46,6.36-.51,7.62-.16,10.44.15,1.2.2,3,1.36,4.18,1.92,1.92,5.93,2.7,11.43.82,6.65-2.29,13.79-11.24,11.13-19.46S340.13,189.11,330.06,195.57Z" transform="translate(-40.42 -81.06)"/><path class="cls-91" d="M350.89,213.05c-2.5-7.4-8.9-16.35-8.83-16.81,0-.29-2.12-1.7-4.57-3.21a14.82,14.82,0,0,0-7.43,2.54A36.61,36.61,0,0,0,328.6,200c1.55,1.79,4.71,3.85,5.16,5.36a19.19,19.19,0,0,1-.78,11.2c-1.09,2.33,3.08,5.86,2.15,7.93a.7.7,0,0,0,0,.28,18.52,18.52,0,0,0,5.14-1A19.18,19.18,0,0,0,350.89,213.05Z" transform="translate(-40.42 -81.06)"/><path class="cls-92" d="M328.15,192.73a8.45,8.45,0,0,0,4.66,8.77c3.44,1.78,3,7.36,2.82,8.39s-1.29,5.73-.88,6.34c.79,1.18,3.58-2.39,4.86-2.11,3.26.69,1.93,3.73-1.13,6.89-3.23,3.34,5.09,4.91,9,2.17,2.09-1.46,2.85-2.33,5.66-7.65,4.07-7.73,4.46-17.11-4.69-22.31S333.86,195.11,328.15,192.73Z" transform="translate(-40.42 -81.06)"/><path class="cls-93" d="M347.49,223.18c2.09-1.46,2.85-2.33,5.66-7.65,4.07-7.73,4.46-17.11-4.69-22.31s-14.6,1.89-20.31-.49a8.62,8.62,0,0,0,0,2.35c2.92.53,10.9,2.27,12.9,5.76,2.46,4.28,5.31,3,5,8.24-.32,5.08.87,11.75-7.72,14.45C341.48,225.87,346,224.25,347.49,223.18Z" transform="translate(-40.42 -81.06)"/><path class="cls-94" d="M334.93,229.78l-5.87,4.76s17.89,5.51,23.33-3.21c.77-1.23-.06-5.43-3.17-6.27C349.22,225.06,348.46,232.22,334.93,229.78Z" transform="translate(-40.42 -81.06)"/><path class="cls-41" d="M330.93,279.22c-1.18-1.21-4.37,9.53-7.16,24s-4.12,27.1-2.95,28.31,4.38-9.53,7.17-24S332.1,280.43,330.93,279.22Z" transform="translate(-40.42 -81.06)"/><path class="cls-44" d="M276.15,256.93s-8.12-4.21-11.38-10-2-5-1-5.47c2.05-1,8.09,4.46,9.51,5.07s0-2,.14-3.2-.22-3,.37-3,1.79.54,2.46,3.37,3.7,8.3,3.7,8.3Z" transform="translate(-40.42 -81.06)"/><path class="cls-91" d="M264.77,246.94c3.26,5.78,11.38,10,11.38,10l.84-1.1a3,3,0,0,0-.78-.52c-2.84-1.34-9.66-9.78-12.77-13.74C262.58,241.82,261.84,241.76,264.77,246.94Z" transform="translate(-40.42 -81.06)"/><path class="cls-87" d="M325.72,238c-5.78-1.41-13.7,14.77-20.74,28.33L280.21,250c-5.85,2.69-6.67,6.36-6.67,6.36C280.68,271.58,302,283.1,302,283.1h0a8.4,8.4,0,0,0,4.44.69c10.8-5.38,18.88-19.41,23.72-33C333.64,241,325.72,238,325.72,238Z" transform="translate(-40.42 -81.06)"/><path class="cls-89" d="M305,266.35,280.21,250a16.7,16.7,0,0,0-3.09,1.81c6.43,5.27,29.2,25.27,29.2,21.75s17.2-29,21-34.64a8.7,8.7,0,0,0-1.61-.91C319.94,236.61,312,252.79,305,266.35Z" transform="translate(-40.42 -81.06)"/><path class="cls-42" d="M369.3,253.58c0-.14,0-.27-.05-.4a1.43,1.43,0,0,0,0-.22l0-.1a.3.3,0,0,0,0-.1l0-.09,0-.08s0,0,0-.05l0,0,0,0s0,0,0,0v0s0,0,0,0,0,0,0,0v0l0,0-.05,0-.05,0h-.14l-.05,0,0,0s0,0,0,0h0l-38,26.9h0a.35.35,0,0,1,.21-.07h0a.26.26,0,0,1,.19.09v0l0,0,0,0v0l0,0,0,0s0,0,0,.05l0,0s0,.05,0,.08a.24.24,0,0,1,0,.09l0,.09s0,.07,0,.11,0,.14.05.22,0,.25.05.4c.39,3.73-.93,14.76-3.3,27.06-2.51,13-5.36,23-6.75,24l37.66-22c1.39-1,4.59-15.87,7.11-28.86C368.38,268.34,369.69,257.32,369.3,253.58Z" transform="translate(-40.42 -81.06)"/><g class="cls-2"><polygon class="cls-42" points="309.41 72.57 325.83 63.03 325.89 42.65 309.47 52.2 309.41 72.57"/><polygon class="cls-95" points="309.47 52.2 325.89 42.65 321.55 40.15 305.13 49.69 309.47 52.2"/><polygon class="cls-41" points="305.13 49.69 305.07 70.07 309.41 72.57 309.47 52.2 305.13 49.69"/></g><g class="cls-2"><polygon class="cls-16" points="315.85 76.37 332.27 66.83 332.33 46.45 315.91 55.99 315.85 76.37"/><polygon class="cls-18" points="315.91 55.99 332.33 46.45 327.99 43.95 311.57 53.49 315.91 55.99"/><polygon class="cls-17" points="311.57 53.49 311.52 73.86 315.85 76.37 315.91 55.99 311.57 53.49"/></g><g class="cls-2"><polygon class="cls-42" points="343.28 142.14 359.7 132.6 359.76 112.22 343.34 121.76 343.28 142.14"/><polygon class="cls-95" points="343.34 121.76 359.76 112.22 355.42 109.72 339 119.26 343.34 121.76"/><polygon class="cls-41" points="339 119.26 338.95 139.63 343.28 142.14 343.34 121.76 339 119.26"/></g><g class="cls-2"><polygon class="cls-96" points="349.73 145.94 366.14 136.39 366.2 116.01 349.78 125.56 349.73 145.94"/><polygon class="cls-84" points="349.78 125.56 366.2 116.01 361.87 113.51 345.45 123.05 349.78 125.56"/><polygon class="cls-83" points="345.45 123.05 345.39 143.43 349.73 145.94 349.78 125.56 345.45 123.05"/></g><g class="cls-2"><polygon class="cls-10" points="357.4 213.73 353.01 211.17 352.57 56.36 356.96 58.91 357.4 213.73"/><polygon class="cls-97" points="356.96 58.91 352.57 56.36 384.77 37.78 389.15 40.33 356.96 58.91"/><polygon class="cls-64" points="389.15 40.33 389.59 195.14 357.4 213.73 356.96 58.91 389.15 40.33"/></g><g class="cls-2"><polygon class="cls-10" points="296.31 18.58 296.32 23.66 356.97 58.9 356.96 53.83 296.31 18.58"/><polygon class="cls-64" points="356.96 53.83 356.97 58.9 389.16 40.32 389.15 35.24 356.96 53.83"/><polygon class="cls-98" points="296.31 18.58 356.96 53.83 389.15 35.24 328.5 0 296.31 18.58"/></g></g></g></svg>