<svg id="OBJECTS" xmlns="http://www.w3.org/2000/svg" xmlns:xlink="http://www.w3.org/1999/xlink" viewBox="0 0 659.16 396.83"><defs><style>.cls-1{fill:#fff;}.cls-11,.cls-2,.cls-27,.cls-7,.cls-9{fill:none;}.cls-3{fill:#d3e3f8;}.cls-4{fill:#fff1cd;}.cls-5{fill:#7dc1a3;}.cls-6{fill:#5db18c;}.cls-11,.cls-7,.cls-9{stroke:#ffc366;stroke-linecap:round;}.cls-11,.cls-27,.cls-7,.cls-9{stroke-miterlimit:10;}.cls-7{stroke-width:1.22px;}.cls-8{fill:#ffdb82;}.cls-9{stroke-width:1.16px;}.cls-10{fill:#e89a49;}.cls-11{stroke-width:1.08px;}.cls-12{fill:#97cdb5;}.cls-13{fill:#91baee;}.cls-14{fill:#ffc366;}.cls-15,.cls-24{fill:#ffbfb3;}.cls-16{fill:#193441;}.cls-17{fill:#e8beac;}.cls-18{fill:#2a66dd;}.cls-19{fill:#885017;}.cls-19,.cls-24{opacity:0.7;}.cls-20{fill:#ffaa9a;}.cls-21{clip-path:url(#clip-path);}.cls-22{fill:#e88620;}.cls-23{fill:#290fe8;}.cls-25{fill:#b9d3f4;}.cls-26{clip-path:url(#clip-path-2);}.cls-27{stroke:#91baee;stroke-width:0.75px;}</style><clipPath id="clip-path" transform="translate(-48.61 -40.61)"><rect class="cls-1" x="382.57" y="55.97" width="95.86" height="76.77"/></clipPath><clipPath id="clip-path-2" transform="translate(-48.61 -40.61)"><rect class="cls-2" x="377" y="183.01" width="106.6" height="21.14"/></clipPath></defs><path class="cls-3" d="M56.77,230.63a6.67,6.67,0,0,1,4.54-1.88,6.38,6.38,0,0,1,2,.34,4.77,4.77,0,0,1,4.78-4.23,5.08,5.08,0,0,1,3.55,1.2,5.36,5.36,0,0,1,1.59-2.83,6,6,0,0,1,4.06-1.67,5.94,5.94,0,0,1,4,1.67,6.3,6.3,0,0,1,1.68,4,7,7,0,0,1-.43,2.16,5.19,5.19,0,0,1,1-.1,4.5,4.5,0,0,1,4.59,4.76H55A6,6,0,0,1,56.77,230.63Z" transform="translate(-48.61 -40.61)"/><path class="cls-4" d="M237.82,357.69c8.81-11.59,26.85-9.68,40.17-3.77s26.42,14.79,40.93,13.48c19.79-1.79,32.3-21.12,44.79-36.58s27.89-28.84,45.9-37.23,38.76-11.57,58.1-7c23.78,5.59,45.12,22.43,69.52,21.38,33.71-1.44,60.12-36.64,93.78-34.25,20.81,1.48,38.29,18,46.42,37.17s8.48,40.8,7.26,61.63-6.83,62.5-6.83,62.5H253.65Z" transform="translate(-48.61 -40.61)"/><path class="cls-5" d="M398.46,390.48a10.58,10.58,0,0,1,3.91-3.37,5.15,5.15,0,0,1,5,.2c2.09,1.45,2.28,4.51,1.59,7s-2,4.72-2.32,7.25a29.32,29.32,0,0,1,12.1-13.23c2.79-1.59,6.56-2.61,9-.55a6.16,6.16,0,0,1,1.7,5.85,16.72,16.72,0,0,1-2.71,5.74,54,54,0,0,1,26-4.89c2.67.17,5.76.84,6.88,3.27a5.27,5.27,0,0,1-.66,5,12.49,12.49,0,0,1-3.94,3.42,39.13,39.13,0,0,1-23.46,5.55c2.57,1.45,5.08,3.22,6.57,5.77s1.68,6-.2,8.31c-2.38,2.85-6.81,2.7-10.39,1.72a35.08,35.08,0,0,1-16.75-10.37c.58,3.07,2.67,5.61,4,8.45s1.64,6.66-.75,8.68-5.72,1.16-8.4-.12C398.26,430.61,385.59,407.69,398.46,390.48Z" transform="translate(-48.61 -40.61)"/><path class="cls-6" d="M458.47,398.93a4.92,4.92,0,0,0,1.33-.62,5.48,5.48,0,0,1-.87,4.4,12.49,12.49,0,0,1-3.94,3.42,39.13,39.13,0,0,1-23.46,5.55c2.57,1.45,5.08,3.22,6.57,5.77s1.68,6-.2,8.31c-2.38,2.85-6.81,2.7-10.39,1.72a35.08,35.08,0,0,1-16.75-10.37c.58,3.07,2.67,5.61,4,8.45s1.64,6.66-.75,8.68-5.72,1.16-8.4-.12c-4.48-2.14-10.95-11.53-12.37-22.44C415.41,410.92,437.3,405.22,458.47,398.93Z" transform="translate(-48.61 -40.61)"/><path class="cls-7" d="M425.17,407.51c-15.11,3.44-29.92,5.45-44.85,3.08" transform="translate(-48.61 -40.61)"/><path class="cls-8" d="M440.55,437a104.55,104.55,0,0,1,19.37-39.34c4.18-5.35,10.34-10.93,17.81-10.14,5.65.6,10.37,4.83,16,4.54,7-.36,10.76-7,13.51-12.6a120.19,120.19,0,0,1,15.9-24.1c3.21-3.8,7.23-7.72,12.67-8.33,8.36-1,14.66,6.08,19,12.26l18,25.66c3.11,4.42,6.47,9,11.84,11.41,3.87,1.7,8.36,2,12.53,3.09,8.92,2.31,16.15,8.12,21.2,14.81s8.19,14.27,11.29,21.78Z" transform="translate(-48.61 -40.61)"/><path class="cls-5" d="M354.54,380.63a9.93,9.93,0,0,1,.43-4.9,4.87,4.87,0,0,1,3.53-3.17c2.39-.4,4.55,1.56,5.71,3.69s1.75,4.57,3.23,6.49a28,28,0,0,1-.53-17.08c.84-2.94,2.73-6.14,5.78-6.36a5.86,5.86,0,0,1,5.05,2.87,15.62,15.62,0,0,1,2,5.72,51.41,51.41,0,0,1,14.5-20.62c1.92-1.66,4.48-3.26,6.86-2.34a5,5,0,0,1,2.87,3.84,11.76,11.76,0,0,1-.41,5,37.31,37.31,0,0,1-12.32,19.39,15.93,15.93,0,0,1,8.32-.44c2.7.76,5.16,3,5.38,5.81.28,3.53-2.85,6.37-5.95,8.08a33.4,33.4,0,0,1-18.32,4.06c2.44,1.7,5.55,2.05,8.33,3.12s5.56,3.45,5.26,6.42c-.28,2.81-3.13,4.6-5.81,5.5C381.08,408.15,357.19,400.93,354.54,380.63Z" transform="translate(-48.61 -40.61)"/><path class="cls-6" d="M401.11,346.5a4.63,4.63,0,0,0,.49-1.31,5.22,5.22,0,0,1,2.33,3.58,11.76,11.76,0,0,1-.41,5,37.31,37.31,0,0,1-12.32,19.39,15.93,15.93,0,0,1,8.32-.44c2.7.76,5.16,3,5.38,5.81.28,3.53-2.85,6.37-5.95,8.08a33.4,33.4,0,0,1-18.32,4.06c2.44,1.7,5.55,2.05,8.33,3.12s5.56,3.45,5.26,6.42c-.28,2.81-3.13,4.6-5.81,5.5-4.48,1.52-15.13-.59-23.36-7.09C379.69,383.31,390.84,364.87,401.11,346.5Z" transform="translate(-48.61 -40.61)"/><path class="cls-9" d="M384.08,374.49c-8,12.4-16.79,23.62-28.55,31.93" transform="translate(-48.61 -40.61)"/><path class="cls-8" d="M68.8,435l33-129.4c3.37-13.23,8.22-28.29,14.72-26.5,10.82,3,14.89,49.81,25.24,41.8,4.74-3.67,6.37-17.28,9.76-25.92,8.36-21.32,23.93-5.86,31.77,16.55s13.28,51.8,24.46,64c15.64-4,16.13-63,29.91-80.94,9.24-12,20.66-.92,29.79,11.52,19.06,26,37.2,96.61,52,95.05s20.51-25.91,30.84-26c19.92-.13,49.18,45.78,61.55,59.86Z" transform="translate(-48.61 -40.61)"/><polygon class="cls-10" points="70.76 394.73 91.62 394.73 88.41 245.26 73.97 245.26 70.76 394.73"/><path class="cls-5" d="M169.64,172.07c-.7,11.27-6.84,22.74-2.88,33.32,5.12,13.7,23.31,16.66,33.44,27.2a28.43,28.43,0,0,1-11,46.48c-6.86,2.44-15.47,2.82-19.33,9-5.18,8.31,3,18.94,1.69,28.64C170.68,323.61,165,329,159,332.43s-12.82,5.58-18.64,9.42-10.81,10.07-10.38,17c-8.49-11.85-21.89-19-33.14-28.28s-21.11-23.17-18-37.42c1.86-8.56,8.15-15.69,9.72-24.3,1.52-8.29-1.53-16.65-4.22-24.63-5.24-15.51-9.37-31.66-9-48s5.72-33.09,17.22-44.73c10.54-10.68,31-17.69,46.1-16.49C156.68,136.43,170.72,154.6,169.64,172.07Z" transform="translate(-48.61 -40.61)"/><path class="cls-6" d="M88.53,268.88c1.52-8.29-1.53-16.65-4.22-24.63-5.24-15.51-9.37-31.66-9-48s5.72-33.09,17.22-44.73c10.54-10.68,31-17.69,46.1-16.49a30.07,30.07,0,0,1,11.65,3.43c-13.07-1.66-25.71,6.11-34.16,17.18-11.41,14.95-15.21,32.14-12.94,50.7a167.67,167.67,0,0,0,6.11,29.62c2.74,8.76,5.82,17.3-.57,25.1-6.19,7.56-10.56,15-12.12,24.86-1.62,10.21-.38,20.18,4.66,29.26,4.7,8.47,11.57,15.54,16.48,23.91,2.67,4.54,5.06,9.23,7.31,14-8.24-8.59-19-14.8-28.25-22.45-11.24-9.27-21.11-23.17-18-37.42C80.67,284.62,87,277.49,88.53,268.88Z" transform="translate(-48.61 -40.61)"/><path class="cls-5" d="M183.66,414.71a11.43,11.43,0,0,0,3.7-4.21,5.57,5.57,0,0,0-.16-5.4c-1.56-2.28-4.88-2.52-7.54-1.8s-5.14,2.16-7.89,2.44a31.85,31.85,0,0,0,14.48-13c1.75-3,2.9-7.09.68-9.77a6.67,6.67,0,0,0-6.33-1.9,18,18,0,0,0-6.25,2.88,58.55,58.55,0,0,0,5.56-28.15c-.15-2.89-.85-6.26-3.47-7.49A5.7,5.7,0,0,0,171,349a13.3,13.3,0,0,0-3.75,4.24,42.45,42.45,0,0,0-6.26,25.4c-1.54-2.81-3.44-5.55-6.19-7.19s-6.54-1.89-9,.14c-3.12,2.55-3,7.35-2,11.25A38.06,38.06,0,0,0,154.9,401.1c-3.33-.67-6.06-3-9.13-4.41s-7.21-1.85-9.42.73-1.32,6.2,0,9.11C140.12,414.52,164.87,428.5,183.66,414.71Z" transform="translate(-48.61 -40.61)"/><path class="cls-6" d="M175.1,349.51a5.41,5.41,0,0,1,.69-1.43,5.94,5.94,0,0,0-4.78.9,13.3,13.3,0,0,0-3.75,4.24,42.45,42.45,0,0,0-6.26,25.4c-1.54-2.81-3.44-5.55-6.19-7.19s-6.54-1.89-9,.14c-3.12,2.55-3,7.35-2,11.25A38.06,38.06,0,0,0,154.9,401.1c-3.33-.67-6.06-3-9.13-4.41s-7.21-1.85-9.42.73-1.32,6.2,0,9.11c2.28,4.88,12.4,12,24.22,13.65C161.66,396.12,168.06,372.42,175.1,349.51Z" transform="translate(-48.61 -40.61)"/><path class="cls-11" d="M165.46,385.56c-3.88,16.36-6.21,32.41-3.8,48.63" transform="translate(-48.61 -40.61)"/><path class="cls-12" d="M136.18,435.44a82.19,82.19,0,0,0-3.83-17.82,18.48,18.48,0,0,1,7,9.37,21.48,21.48,0,0,0,1.74-11.94,14.93,14.93,0,0,1,4.61,12.28,16.05,16.05,0,0,1,9.34-7.47,81.11,81.11,0,0,0-6.09,15.58Z" transform="translate(-48.61 -40.61)"/><path class="cls-3" d="M225.33,217.26a6.18,6.18,0,0,1,.82-3.66,6.25,6.25,0,0,1,3.71-2.86l1.65-.22a6.59,6.59,0,0,1,1.27.14,2.43,2.43,0,0,1,0-.27A6.27,6.27,0,0,1,234.6,206a6.47,6.47,0,0,1,4.39-1.82,6.38,6.38,0,0,1,4.39,1.82,4.61,4.61,0,0,1,1.29,2,4.69,4.69,0,0,1,.53,2.39,7.16,7.16,0,0,1-.82,3.11,5.33,5.33,0,0,1,2.25-.5,5.84,5.84,0,0,1,4,1.65,4.24,4.24,0,0,1,1.16,1.82,3.5,3.5,0,0,1,.31.79Z" transform="translate(-48.61 -40.61)"/><path class="cls-12" d="M244.29,436.67q-.09-7.34-.2-14.67a32.3,32.3,0,0,1,5.4,10.81,14.89,14.89,0,0,1,7.1-7.75,40.51,40.51,0,0,0-3.82,11.61Z" transform="translate(-48.61 -40.61)"/><path class="cls-3" d="M183.56,174.29a6,6,0,0,1,.5-.63l2-1.71a9.75,9.75,0,0,1,4.7-1.57,11,11,0,0,1,6.69,2.11c0-.11,0-.22,0-.33a7.28,7.28,0,0,1,1.7-3.46l1.49-1.3a7.47,7.47,0,0,1,3.57-1.19,5.51,5.51,0,0,1,2.79.42,5.9,5.9,0,0,1,1,.37c.42-4.15,3.92-8.06,8.28-8.11a9.1,9.1,0,0,1,9.45,8.31,8.55,8.55,0,0,1-.31,2.8c.17,0,.33-.06.5-.07a7,7,0,0,1,6.73,3.78Z" transform="translate(-48.61 -40.61)"/><path class="cls-3" d="M707.76,178.47a6,6,0,0,0-6.14-4.49,6.35,6.35,0,0,0-3.79,1.21,7.13,7.13,0,0,0-1.11-1.65l-1.45-1.22a7,7,0,0,0-3.43-1.07,5.13,5.13,0,0,0-2.51.42c-.08-3.31-2.85-6.55-6.26-6.51a6.72,6.72,0,0,0-6.8,6.35,2.44,2.44,0,0,0,0,.27,5.43,5.43,0,0,0-3.59-1.51h-.21a6.23,6.23,0,0,0-6.26,5.9,6.1,6.1,0,0,0,.15,1.54s-.1.1-.15.13A3.65,3.65,0,0,0,664,177a4.27,4.27,0,0,0-2.92,1.08,3,3,0,0,0-.79.9Z" transform="translate(-48.61 -40.61)"/><path class="cls-13" d="M568,80.86v8.52a.82.82,0,0,1-.81.81H556.67a.82.82,0,0,1-.81-.81V80.86a.81.81,0,0,0-.81-.81h-2.39a.81.81,0,0,1-.62-1.33l9.28-11.17a.81.81,0,0,1,1.25,0l9.28,11.17a.81.81,0,0,1-.62,1.33h-2.39A.81.81,0,0,0,568,80.86Z" transform="translate(-48.61 -40.61)"/><path class="cls-14" d="M543.83,110.61v15.58a1.48,1.48,0,0,1-1.48,1.48H523.06a1.48,1.48,0,0,1-1.48-1.48V110.61a1.48,1.48,0,0,0-1.48-1.48h-4.38a1.48,1.48,0,0,1-1.14-2.43l17-20.43a1.5,1.5,0,0,1,2.29,0l17,20.43a1.48,1.48,0,0,1-1.14,2.43h-4.38A1.48,1.48,0,0,0,543.83,110.61Z" transform="translate(-48.61 -40.61)"/><path class="cls-8" d="M536.35,58.07V69a1,1,0,0,1-1,1H521.77a1,1,0,0,1-1-1V58.07a1,1,0,0,0-1-1h-3.07a1,1,0,0,1-.8-1.71L527.74,41a1,1,0,0,1,1.6,0l11.92,14.34a1,1,0,0,1-.8,1.71h-3.07A1,1,0,0,0,536.35,58.07Z" transform="translate(-48.61 -40.61)"/><path class="cls-13" d="M173.36,80.19v8.52a.81.81,0,0,1-.81.81H162a.81.81,0,0,1-.81-.81V80.19a.82.82,0,0,0-.82-.81H158a.81.81,0,0,1-.62-1.33l9.28-11.16a.81.81,0,0,1,1.25,0l9.29,11.16a.81.81,0,0,1-.63,1.33h-2.39A.81.81,0,0,0,173.36,80.19Z" transform="translate(-48.61 -40.61)"/><path class="cls-15" d="M203.71,101.26V114a1.21,1.21,0,0,1-1.21,1.21H186.72a1.21,1.21,0,0,1-1.21-1.21V101.26a1.22,1.22,0,0,0-1.22-1.22h-3.58a1.21,1.21,0,0,1-.93-2l13.9-16.71a1.21,1.21,0,0,1,1.86,0l13.9,16.71a1.21,1.21,0,0,1-.93,2h-3.58A1.22,1.22,0,0,0,203.71,101.26Z" transform="translate(-48.61 -40.61)"/><path class="cls-8" d="M199.59,57.74v7a.67.67,0,0,1-.66.67h-8.64a.67.67,0,0,1-.66-.67v-7a.67.67,0,0,0-.66-.66h-2A.67.67,0,0,1,186.5,56l7.6-9.14a.66.66,0,0,1,1,0l7.6,9.14a.66.66,0,0,1-.51,1.09h-2A.67.67,0,0,0,199.59,57.74Z" transform="translate(-48.61 -40.61)"/><path class="cls-3" d="M656.81,147.65a5.67,5.67,0,0,0-5.89-1.38,4.29,4.29,0,0,0-4.3-3.8,4.57,4.57,0,0,0-3.2,1.07A4.79,4.79,0,0,0,642,141a5.41,5.41,0,0,0-3.66-1.5,5.33,5.33,0,0,0-3.64,1.5,5.77,5.77,0,0,0-1.51,3.63,6.09,6.09,0,0,0,.39,1.93,5.08,5.08,0,0,0-.89-.08,4,4,0,0,0-4.13,4.28h29.83A5.39,5.39,0,0,0,656.81,147.65Z" transform="translate(-48.61 -40.61)"/><path class="cls-3" d="M532.11,252.13a5.08,5.08,0,0,0-.65-1.76,5.8,5.8,0,0,0-3.43-2.63l-1.52-.21a6.46,6.46,0,0,0-1.18.14c0-.09,0-.17,0-.25a5.8,5.8,0,0,0-1.68-4.06,5.76,5.76,0,0,0-8.11,0,4.38,4.38,0,0,0-1.18,1.85,4.3,4.3,0,0,0-.49,2.21,6.52,6.52,0,0,0,.76,2.86,5,5,0,0,0-2.08-.45,5.36,5.36,0,0,0-3.68,1.52,4,4,0,0,0-.65.78Z" transform="translate(-48.61 -40.61)"/><path class="cls-16" d="M560.52,170.9c-.67,2.38-2.25,4.41-2.93,6.78s0,5.53,2.38,6.22c1.39.41,2.85-.17,4.18-.74,3.13-1.34,6.47-2.87,8.12-5.84,2.87-5.14.79-16.22-5.12-18.61C558.5,155.21,561.74,166.52,560.52,170.9Z" transform="translate(-48.61 -40.61)"/><path class="cls-17" d="M568.81,208.91A7.63,7.63,0,0,0,559,213.4l-.13.35c-.12.34-.25.75-.35,1.13s-.14.61-.18.8l-.12.58c-.12.68-.21,1.31-.29,1.89-.14,1.16-.24,2.26-.32,3.33-.17,2.14-.28,4.21-.38,6.28-.2,4.13-.25,8.2-.35,12.27-.17,7.87-.18,15.71-.25,23.49-1,2.87-2,5.75-3,8.67-.56,1.7-1,3.43-1.56,5.14l-1.52,5.15c-1,3.43-2,6.87-3.18,10.23-.3.84-.54,1.71-.88,2.53a15.09,15.09,0,0,1-1.37,2.31,9.93,9.93,0,0,0-1.24,2.37,5.57,5.57,0,0,0-.25,2.79,3.44,3.44,0,0,0,4,2.74,3.25,3.25,0,0,0,1.23-.49,5.55,5.55,0,0,0,1.85-2.1,10.51,10.51,0,0,0,.87-2.53,14,14,0,0,1,.72-2.59c.36-.81.82-1.58,1.22-2.38,1.64-3.16,3.43-6.26,5.23-9.36l2.68-4.65c.88-1.55,1.8-3.09,2.64-4.66,1.74-3.13,3.34-6.31,4.94-9.49a4.47,4.47,0,0,0,.45-1.57l.06-.64q.58-6.14,1-12.2c.33-4,.59-8.1.85-12.12l.86-12c.13-2,.29-4,.47-5.85l.31-2.72c0-.42.11-.79.16-1.11l0-.17v0l0-.05A7.66,7.66,0,0,0,568.81,208.91Zm4.46,10a1.76,1.76,0,0,1-.15.39l.13-.35,0-.1Z" transform="translate(-48.61 -40.61)"/><path class="cls-17" d="M604.07,198.51c-12.08-1-11.19-15.89-11.19-15.89l-5.38,5.16-8,.25s1.43,10.61-10.51,11c-1.79.05-5.74,12.26-5.74,12.26H607C605.85,207.09,605.29,202.67,604.07,198.51Z" transform="translate(-48.61 -40.61)"/><path class="cls-16" d="M579.86,421.43l.85,8a5.2,5.2,0,0,1-5,5.36l-17.21.56a2.15,2.15,0,0,1-2.11-2.84h0a2.16,2.16,0,0,1,1.89-1.46l1.56-.08c5.38-.28,10.74-4.22,11.62-9.53Z" transform="translate(-48.61 -40.61)"/><path class="cls-16" d="M579.86,421.43l.85,8a5.2,5.2,0,0,1-5,5.36l-17.21.56a2.15,2.15,0,0,1-2.11-2.84h0a2.16,2.16,0,0,1,1.89-1.46l1.56-.08c5.38-.28,10.74-4.22,11.62-9.53Z" transform="translate(-48.61 -40.61)"/><path class="cls-17" d="M586.54,270.36a18.06,18.06,0,0,0-19.21,4.76,110.61,110.61,0,0,0-3,27.07,2.26,2.26,0,0,1-.73,1.8c.11,1.94.21,4,.31,6.25.15,3.15.3,6.57.39,10.18s.26,7.42.31,11.35.22,8,.24,12.16q0,3.15.11,6.32l.08,3.53c0,.61.07,1.06.1,1.6l0,.39v.05s0,.5,0,.3v.13l0,.26.1,1c.32,2.59.72,4.71,1,6.85s.59,4.18.79,6.2c.44,4,.72,7.86,1.07,11.37.08.83.16,1.64.24,2.45s.14,1.78.2,2.65c.13,1.78.22,3.57.3,5.32.14,3.5.37,6.85.51,9.95s.36,5.94.58,8.47.4,4.73.56,6.55c.36,3.64.65,5.72.65,5.72a4.12,4.12,0,0,0,8.08.43s.52-2.06,1.23-5.66c.35-1.81.77-4,1.17-6.52s.83-5.37,1.28-8.49.82-6.5,1.12-10.13c.15-1.81.31-3.67.43-5.64l.05-.74,0-.86,0-1.42c0-1,0-2.32-.1-3.32a102.88,102.88,0,0,0-1.8-12.42c-.39-2-.7-4-1-6a30.41,30.41,0,0,1-.25-5.5l.06-.53v-.2c0-.23,0,.28,0,.21v0l.05-.39c.08-.49.14-1.08.24-1.5l.54-2.66q.6-3,1.2-6c.79-4,1.74-7.89,2.61-11.69s1.79-7.46,2.68-10.93,1.75-6.76,2.59-9.78c1.64-6.05,3.16-11.08,4.26-14.57.53-1.74,1-3.11,1.32-4s.47-1.35.47-1.35A18.06,18.06,0,0,0,586.54,270.36Z" transform="translate(-48.61 -40.61)"/><path class="cls-16" d="M614.43,420.76l1.42,7.94a5.19,5.19,0,0,1-4.54,5.77l-17.1,2a2.16,2.16,0,0,1-2.35-2.66h0a2.15,2.15,0,0,1,1.75-1.61l1.56-.22c5.33-.74,10.08-5.15,10.5-10.52h0Z" transform="translate(-48.61 -40.61)"/><path class="cls-16" d="M614.43,420.76l1.42,7.94a5.19,5.19,0,0,1-4.54,5.77l-17.1,2a2.16,2.16,0,0,1-2.35-2.66h0a2.15,2.15,0,0,1,1.75-1.61l1.56-.22c5.33-.74,10.08-5.15,10.5-10.52h0Z" transform="translate(-48.61 -40.61)"/><path class="cls-17" d="M616,386l0-.75-.06-.85-.12-1.42c-.12-1-.26-2.22-.44-3.19-.65-4.1-1.8-8-2.83-12-.54-2-1-3.93-1.41-5.87a34.5,34.5,0,0,1-.7-5.55c.08-4,.15-8.08.23-12.05s.25-8.12.4-12,.34-7.66.57-11.22c0-.9.1-1.79.15-2.66H585.85c.36,1.52.72,3.09,1.07,4.69.81,3.52,1.65,7.22,2.45,11.06s1.7,7.78,2.48,11.81,1.65,8.33,2.49,12.53c.52,2.44,1.06,4.53,1.53,6.63s.89,4.12,1.25,6.13c.75,4,1.39,7.87,2.11,11.41.18.84.35,1.67.52,2.49s.33,1.74.5,2.59c.32,1.7.59,3.44.84,5.14.5,3.46,1,6.72,1.41,9.73.91,6.09,1.76,11.19,2.38,14.76S606,423,606,423h0c1,2.25,2.6,3.66,4.82,3.19a4.05,4.05,0,0,0,3.15-3.29s.37-2.1.82-5.75c.2-1.82.46-4,.67-6.59s.39-5.43.57-8.59.25-6.59.19-10.26C616.19,389.91,616.15,388,616,386Z" transform="translate(-48.61 -40.61)"/><path class="cls-18" d="M614.25,204.25a19.42,19.42,0,0,0-10.76-5.88s-3.36,9.46-15.62,9.62c-12.26-.16-15.62-9.62-15.62-9.62a15,15,0,0,0-11.25,4.3c-5,5-5.33,22.66-5.33,22.66s7.33,4.42,8.43,6.41c-2.35,9.26,6.53,21.8,5.4,29.76,0,0,5,2.7,18.37,2.7s21.94-4.63,21.94-4.63c-1.13-8,.94-29.57.94-29.57S622.41,213,614.25,204.25Z" transform="translate(-48.61 -40.61)"/><path class="cls-17" d="M562.54,166c0-9.15,5.21-14.47,15.48-15.63a18.06,18.06,0,0,1,16,6.8l.56.69c3.2,4,4.74,10.72,3.88,15.74l-5.63,11.67s2.3,9.94,5.34,11.61c3.33,1.84-13.35,7.16-17.22.63l-.54-8.1s-5.51,3-10.06,1.26C568,189.69,562.48,184.63,562.54,166Z" transform="translate(-48.61 -40.61)"/><path class="cls-19" d="M579.62,189.75s6.26-2.37,8.13-3.13c0,0-4.5,4.13-8.5,5.38Z" transform="translate(-48.61 -40.61)"/><path d="M569.67,259c-1-.36-6.92,23.5-7,52-.09,28,0,41,2,49.67s4.66,48.66,4.66,48.66,10,2.67,14.67.34c0,0,2.67-36.67-1-50.34l4.67-29,15,78s10.66,3,14.66.34c0,0,.34-22.67-3-41s-2.66-29.34-1-49,10.29-37.87-3.52-59.1C609.81,259.57,591.67,267,569.67,259Z" transform="translate(-48.61 -40.61)"/><path class="cls-20" d="M528.36,217.49l-7-3.69a1.94,1.94,0,0,1-1-1.57l-1.55-19.39a2,2,0,0,1,2.86-1.88l7,3.7a1.92,1.92,0,0,1,1,1.57l1.55,19.38A2,2,0,0,1,528.36,217.49Z" transform="translate(-48.61 -40.61)"/><path class="cls-17" d="M589.25,223S563.87,238.63,563,239c-.41.17-.75.27-.92.33s-.16.06.11.17a6.13,6.13,0,0,1-2.32-1,34.12,34.12,0,0,1-3.37-2.22c-2.3-1.67-4.61-3.55-6.78-5.47s-4.26-3.86-6.2-5.75-3.72-3.76-5.33-5.51c-.79-.89-1.55-1.74-2.28-2.54a16.35,16.35,0,0,1-1.9-2.42c-1-1.67-1.68-3.26-2.53-4.35a9.91,9.91,0,0,0-2.27-2.31,5,5,0,0,0-1.06-.62l-.19-.07a3.55,3.55,0,0,0-1.46-.22,3.7,3.7,0,0,0-3.48,3.89,5.65,5.65,0,0,0,.28,1.26,9.68,9.68,0,0,0,1.55,2.94,40.51,40.51,0,0,0,3.52,3.76,18.15,18.15,0,0,1,1.88,2.52c.63.91,1.29,1.88,2,2.88l4.48,6.52c1.6,2.32,3.34,4.75,5.25,7.24a84.52,84.52,0,0,0,6.39,7.53,40.25,40.25,0,0,0,4.08,3.7,28,28,0,0,0,2.6,1.78,17,17,0,0,0,1.61.86l.56.24.48.2.28.12.14.05c-.18-.05.27.09.26.09l.09,0,.16.05a13.9,13.9,0,0,0,4.88.47,19.37,19.37,0,0,0,3.75-.67,33.18,33.18,0,0,0,5.74-2.26c3.38-1.69,24-14.22,24-14.22Z" transform="translate(-48.61 -40.61)"/><path d="M587.67,331.33s-1.9-10.6-2.79-22.08c-.78-10-1.38-20-4.33-22.53,0,0,5.78,47.85,5,57.35Z" transform="translate(-48.61 -40.61)"/><path class="cls-16" d="M569.33,165.29c1.95.7,4.21,1.22,5.31,3,1.54,2.44.31,6.49,2.83,7.87,1.78,1,3.93-.34,5.45-1.69s3.37-2.9,5.33-2.35c2.44.68,2.88,3.95,2.54,6.47s-.81,5.52,1.08,7.21c2.36-3,7.83.38,11-1.88,1.62-1.18,1.94-3.52,1.53-5.48s-1.38-3.78-1.79-5.75c-.82-3.85.54-7.91-.23-11.78-.93-4.67-4.73-8.15-8.32-11.27-2.5-2.18-5.11-4.42-8.29-5.37-5-1.5-10.27.43-15.11,2.33a25,25,0,0,0-6.58,3.37,8.45,8.45,0,0,0-3.47,6.28C560.52,159.76,566.25,164.19,569.33,165.29Z" transform="translate(-48.61 -40.61)"/><polygon class="cls-4" points="466.39 152.39 399.39 120.39 399.39 202.39 468.39 164.89 466.39 152.39"/><rect class="cls-3" x="328.39" y="10.6" width="107" height="107.65"/><rect class="cls-1" x="333.96" y="15.37" width="95.86" height="76.77"/><g class="cls-21"><path class="cls-14" d="M455.67,102.45c-9.83-3-20.85,9.77-31.37,10.74-9,.83-14.05-6.17-22.29-7.07-11.95-1.31-17.86,16.46-23.57,24.52a10.85,10.85,0,0,1-1.19,1.38v3.75h106.1C477.52,122.38,469.58,106.76,455.67,102.45Z" transform="translate(-48.61 -40.61)"/><path class="cls-5" d="M414.13,61c2.11-20.18-25.62-18.71-35.5-8.93-9.45,9.36-11.7,25.58-9.79,38.21,1.37,9,5.22,21.43,16.24,16.36,8.15-3.75,7.46-16.3,11.8-23C402,75.63,413,71.41,414.13,61Z" transform="translate(-48.61 -40.61)"/><path class="cls-10" d="M450.55,112.36c1.87,1.64,3.71,3.31,5.54,5s3.64,3.4,5.45,5.12,3.61,3.44,5.38,5.19,3.57,3.48,5.33,5.25l.53.54a5.65,5.65,0,0,1,0,8,6.36,6.36,0,0,1-1.11.86L468,144.46c-1.24.7-2.45,1.44-3.7,2.12s-2.49,1.37-3.75,2l-3.77,2c-1.24.69-2.49,1.38-3.71,2.08s-2.41,1.46-3.53,2.25c-.57.39-1.13.77-1.65,1.19a4,4,0,0,0-1.08,1.47,2.18,2.18,0,0,0-.09.29c0,.07,0,.12.09,0a1.87,1.87,0,0,0,.2-.49,3,3,0,0,0-.22-2,3.13,3.13,0,0,0-.93-1.15,3.78,3.78,0,0,0-.46-.28,2.53,2.53,0,0,0-.36-.15,1.83,1.83,0,0,0-.7-.13c-.37,0-.06.09.16.15a5.4,5.4,0,0,1,1,.32l.4.19a3.18,3.18,0,0,1,1.51,4.23,4.33,4.33,0,0,1-.31.51,3.17,3.17,0,0,1-1.08.91,3.9,3.9,0,0,1-2,.45,4.1,4.1,0,0,1-1.23-.22c-.16-.06-.29-.11-.48-.2a4.48,4.48,0,0,1-.57-.36,3.65,3.65,0,0,1-.6-.58,3.51,3.51,0,0,1-.5-.77,3.75,3.75,0,0,1-.24-2.48,3.86,3.86,0,0,1,.39-1,4,4,0,0,1,.67-.91,4.71,4.71,0,0,1,.58-.54c.74-.6,1.4-1,1.95-1.56l1.59-1.63,6.26-6.25c2.1-2.05,4.18-4.1,6.37-6,1.08-1,2.2-1.89,3.31-2.83l3.41-2.73-.6,9.39c-2-1.54-3.9-3.11-5.85-4.67s-3.86-3.15-5.79-4.73-3.83-3.19-5.72-4.81-3.77-3.25-5.63-4.91a6.93,6.93,0,0,1,9.21-10.36Z" transform="translate(-48.61 -40.61)"/><path class="cls-10" d="M410.32,109.37c10.25-.31,9.33-9,9.33-9l6.85-.21,6.86.21s-.93,8.71,9.32,9c3.33.1,10,10.92,10,10.92h-47S408.79,109.42,410.32,109.37Z" transform="translate(-48.61 -40.61)"/><path class="cls-22" d="M433.68,103.06a9.93,9.93,0,0,0,1,2.59c-3.21,7-12.1,7.84-16.09-.48a7.47,7.47,0,0,0,.68-2.11Z" transform="translate(-48.61 -40.61)"/><path class="cls-10" d="M440.76,81.79c-.85-9-7.44-14.17-13.92-14.07S413.9,73.2,413.27,82.23a48.6,48.6,0,0,0,1.62,14.27,11.91,11.91,0,0,0,2.69,5.12c2.94,3.2,6.75,5.76,9.74,5.71s6.74-2.73,9.6-6a12,12,0,0,0,2.57-5.21A48.63,48.63,0,0,0,440.76,81.79Z" transform="translate(-48.61 -40.61)"/><path class="cls-23" d="M447.18,110.69a19.86,19.86,0,0,0-6.95-1.46s-2.89,8.12-13.41,8.25c-10.52-.13-13.35-8.6-13.35-8.6a11,11,0,0,0-9.05,3.39c-4.32,4.25.57,11.88.57,11.88s5.77,19.57,3.13,36.12c0,0,7.25,3.75,18.7,3.75s18.7-3.75,18.7-3.75c-2.57-12.63,1.2-19.27,2.11-24.92S443.56,123.81,447.18,110.69Z" transform="translate(-48.61 -40.61)"/><path class="cls-16" d="M419,76.8c2.06,4,6.73,5.85,11,7.43s8.88,3.65,10.59,7.84c1-3.72,2-7.5,1.94-11.35s-1.28-7.85-4.13-10.44c-2.48-2.27-5.88-3.22-9.2-3.69-2.95-.41-6.08-.46-8.74.87s-4.66,4.09-5.92,6.91a26.85,26.85,0,0,0-2,6.56c-.22,1.37.7,8.95.7,8.95S418.49,78.58,419,76.8Z" transform="translate(-48.61 -40.61)"/><path class="cls-10" d="M400.12,160.3c0-.6-1.35-27.59-.15-36.64s4-13.35,8-11.92c3.77,1.36,6.63,12.67,3.16,49.62Z" transform="translate(-48.61 -40.61)"/></g><path class="cls-10" d="M331.76,204.83l.45.62c.29.41.73,1,1.26,1.76,1.07,1.53,2.57,3.71,4.31,6.39.87,1.35,1.82,2.8,2.78,4.38s2,3.22,3,5,2.05,3.62,3.1,5.79l.39.83c.13.27.28.66.42,1l.21.51.1.26,0,.07v0l.18.5,0,.1.09.35a9.81,9.81,0,0,1,.21,1.08,5.6,5.6,0,0,1,.05.8c0,.22,0,.43,0,.65a10.77,10.77,0,0,1-.75,3.37,18.25,18.25,0,0,1-1,2.15,26.85,26.85,0,0,1-2.15,3.22,33.5,33.5,0,0,1-2.23,2.67c-1.49,1.68-3.07,3.14-4.56,4.55s-3,2.69-4.39,3.9-2.71,2.36-3.92,3.42l-1.72,1.52a9.63,9.63,0,0,0-1.47,1.45,23.36,23.36,0,0,1-2,2.77,4.47,4.47,0,0,1-2.69,1.46,3.69,3.69,0,0,1-3.94-3.43,2.94,2.94,0,0,1,0-.42v-.15a4.29,4.29,0,0,1,1.37-2.62,27.88,27.88,0,0,1,2.66-2,8.52,8.52,0,0,0,1.34-1.5l1.38-1.77c.93-1.26,1.94-2.61,2.92-4.1s2-3.06,3-4.69,2-3.34,2.93-5a34.85,34.85,0,0,0,2.29-4.69,4.32,4.32,0,0,0,.21-.76c0-.13-.07-.18-.13.31a2.09,2.09,0,0,0,0,.25c0,.1,0,.12,0,.42a4,4,0,0,0,.15.69c.06.18,0,.09,0,.07l0-.09,0-.09.16.45h0v0l-.07-.1-.12-.19-.25-.42-.35-.54c-.93-1.45-2.05-3.07-3.16-4.59L328.65,226l-3-4-4.43-6.06-1.66-2.3v0a7.5,7.5,0,0,1,12.17-8.77Z" transform="translate(-48.61 -40.61)"/><path class="cls-10" d="M284.42,421l-.23,7.14a4.91,4.91,0,0,0,4.74,5.07l16.25.53a2,2,0,0,0,2-2.69h0a2,2,0,0,0-1.78-1.38l-1.48-.08a10.82,10.82,0,0,1-10.12-9h0Z" transform="translate(-48.61 -40.61)"/><path class="cls-10" d="M286,428.22s-.44-2-1.05-5.6c-.29-1.79-.67-4-1-6.45s-.74-5.32-1.08-8.41-.65-6.44-.94-10-.47-7.34-.42-11.54c0-1.84.12-4.1.32-6.1s.51-4.11.86-6.15a111.67,111.67,0,0,0,1.7-11.92,20.55,20.55,0,0,0,0-2.61l0-.58v0c0-.34,0-.13,0-.21v-.29l0-.39V356c0-2.2.05-4.25.08-6.31s.07-4.07.11-6.07,0-4,.07-5.9c.05-3.86.09-7.58.05-11.12s0-6.85-.13-9.91-.18-5.85-.34-8.29-.31-4.51-.5-6.13a14.44,14.44,0,0,0-.58-3.16l-.11-.21c0-.06,0,.05,0,.08l0,.13a1.47,1.47,0,0,0,0,.24,14.48,14.48,0,0,1,12.58-16.19,14.69,14.69,0,0,1,16.39,12.58,1.87,1.87,0,0,1,.22,1v.54c0,.19-.2.47-.22.59,0,.31-.15.66-.19,1.06a52.07,52.07,0,0,1-1,5.15c-.43,2-1,4.21-1.61,6.74s-1.33,5.32-2.1,8.39-1.58,6.32-2.42,9.78-1.72,7.1-2.59,10.85-1.77,7.64-2.6,11.55c-.41,1.94-.81,3.93-1.16,5.78a17.79,17.79,0,0,0-.4,2.7c-.12,1.26-.28,2.4-.45,3.51-.32,2.21-.64,4.29-.9,6.32s-.45,4-.63,6-.35,3.86-.52,5.76-.35,3.56-.57,5.55c-.35,3.47-.5,7.16-.66,10.59s-.28,6.76-.4,9.8-.22,5.85-.34,8.34-.23,4.66-.31,6.45c-.2,3.59-.36,5.63-.36,5.63a3.35,3.35,0,0,1-6.62.44Z" transform="translate(-48.61 -40.61)"/><path class="cls-16" d="M307.18,431a2,2,0,0,0-1.78-1.38l-1.48-.08a10.83,10.83,0,0,1-9.22-6.17,6.57,6.57,0,0,1-6.22,4,5.83,5.83,0,0,1-4.22-1.57l-.07,2.28a4.91,4.91,0,0,0,4.74,5.07l16.25.53A2,2,0,0,0,307.18,431Z" transform="translate(-48.61 -40.61)"/><path class="cls-10" d="M324,421.21l-.08,7.15a4.9,4.9,0,0,0,4.85,5l16.26.19a2,2,0,0,0,1.94-2.73h0a2,2,0,0,0-1.81-1.34l-1.48,0a10.84,10.84,0,0,1-10.31-8.83h0Z" transform="translate(-48.61 -40.61)"/><path class="cls-10" d="M325.75,428.41s-.5-2.11-1.21-5.82c-.34-1.85-.77-4.1-1.18-6.7s-.86-5.52-1.29-8.74-.81-6.7-1.16-10.44c-.15-1.87-.31-3.79-.4-5.81-.06-1-.08-2-.11-3.08l0-1.59c0-.5,0-1,0-1.49a89.53,89.53,0,0,1,1.28-12.8c.32-2.11.65-4.21.86-6.26a34.21,34.21,0,0,0,.21-5.8l-.06-.6,0-.15v-.08c0,.51,0,.11,0,.21v-.05l-.06-.39c-.1-.54-.13-.39-.26-1-.21-.89-.48-1.89-.74-2.87-.53-2-1.11-4-1.7-6-1.17-4-2.45-7.92-3.66-11.73s-2.45-7.49-3.64-11-2.32-6.79-3.41-9.83-2.08-5.84-3-8.32l-2.38-6.48c-.66-1.81-1.21-3.29-1.58-4.4-.09-.29-.18-.54-.25-.76s-.15-.5-.2-.68l-.16-.58-.79-2.82A15.13,15.13,0,1,1,330.28,291l0,.19a1.19,1.19,0,0,0,0,.27V292c0,.85,0,2.25.12,4.09.19,3.67.56,9,1.16,15.45.28,3.21.6,6.69,1,10.37s.76,7.56,1.23,11.58.9,8.19,1.36,12.42c.23,2.15.45,4.32.68,6.49.1,1.12.21,2.21.29,3.44,0,.44,0,1.65,0,2.17l-.08.41v.05l.08.31,0,.12v.25l-.06,1c-.23,2.54-.58,4.76-.83,6.94s-.46,4.27-.63,6.34-.29,4.05-.43,6.05-.26,3.91-.44,5.72l-.12,1.5-.06.67,0,.69c-.05.92-.12,1.83-.15,2.76-.08,1.84-.14,3.68-.18,5.47-.12,3.6-.13,7-.21,10.21l-.17,8.7c0,2.59-.13,4.86-.17,6.73-.13,3.74-.25,5.87-.25,5.87a3.36,3.36,0,0,1-6.62.58Z" transform="translate(-48.61 -40.61)"/><path class="cls-16" d="M309,324.46c9.2-.22,17.17-3.79,25.26-7-1.13-40.73-9.51-59.25-9.51-59.25L284.5,258c-7.51,18.39-5.25,29.84-5.83,36.83-.92,10.76-1.05,19.24-1.77,25.23C286.53,324.79,298.73,324.71,309,324.46Z" transform="translate(-48.61 -40.61)"/><path class="cls-16" d="M347,430.78a2,2,0,0,0-1.81-1.34l-1.48,0a10.86,10.86,0,0,1-9.35-6,6.57,6.57,0,0,1-6.13,4.14,5.81,5.81,0,0,1-4.25-1.48l0,2.28a4.9,4.9,0,0,0,4.85,5l16.26.19A2,2,0,0,0,347,430.78Z" transform="translate(-48.61 -40.61)"/><path class="cls-10" d="M286.33,199.83c12.51-1,11.09-16.9,11.09-16.9l5.57,5.34,8.27.26s-1.54,11.18,10.82,11.55c1.85.06,6,12.51,6,12.51H282.76C284,208.27,285.06,204.14,286.33,199.83Z" transform="translate(-48.61 -40.61)"/><path class="cls-10" d="M328.85,165.66c0-9.47-5.41-15-16-16.2a18.74,18.74,0,0,0-16.58,7l-.58.72c-3.31,4.1-4.91,11.1-4,16.3l5.83,12.09s-2.41,10.82-5.55,12.55c-3.46,1.9,13.84,6.89,17.85.13l.56-8.39s5.71,3.14,10.43,1.3C323.22,190.25,328.9,185,328.85,165.66Z" transform="translate(-48.61 -40.61)"/><path class="cls-22" d="M311.14,190.31s-6.47-2.46-8.41-3.23c0,0,4.66,4.27,8.8,5.56Z" transform="translate(-48.61 -40.61)"/><path class="cls-23" d="M327.52,201.4c-3.11-1.54-8-1.64-8-1.64s-3.26,9.31-15.31,9.51c-12-.1-15.32-9.79-15.32-9.79a13.5,13.5,0,0,0-11.26,3.69c-4.94,4.88,1.61,13.83,1.61,13.83s6.7,22.38,3.76,41.34c0,0,8.31,4.26,21.42,4.2S325,258.68,325,258.68c-3-14.45,2.14-22.57,3.15-29.05S323.44,216.44,327.52,201.4Z" transform="translate(-48.61 -40.61)"/><path class="cls-16" d="M302.81,174.17c-1.88.29-1.55-2.93-3.7-2.8-1.29.07-2.07,1.56-2.31,2.83a21.5,21.5,0,0,0,0,3.85,5,5,0,0,1-1.17,3.58c-2.29-4.08-4.62-8.26-5.38-12.87a20.72,20.72,0,0,1,7.94-19.59,21,21,0,0,1,21.07-2A21.24,21.24,0,0,1,331,164.76c.13,2.3-.25,4.86-2,6.34a11.32,11.32,0,0,0-9-6.52c-2-.2-4,.14-6-.18a6.37,6.37,0,0,1-4-2.33C308.06,166.83,304.69,173.88,302.81,174.17Z" transform="translate(-48.61 -40.61)"/><path class="cls-10" d="M287.93,212l-.14,1c-.05.55-.13,1.36-.24,2.38a89,89,0,0,0-.11,9.52c.07,2,.17,4.29.33,6.7s.33,5.07.51,7.76c.09,1.39.15,2.83.18,4.4,0,.81,0,1.62,0,2.6,0,.51-.07,1-.16,1.72l0,.27,0,.13-.06.31-.12.61c-.6,2.76-1.21,5.57-1.83,8.37s-1.2,5.53-1.77,8.25-1,5.4-1.43,8-.71,5.1-.86,7.48a48.73,48.73,0,0,0,0,6.6c.07,1,.15,2,.3,2.83a8.36,8.36,0,0,0,.78,2.34c.71,1.34,1.42,2.26,1.84,2.95a11.91,11.91,0,0,1,.9,1.54l.23.47.07.19.53,1.34a2.74,2.74,0,0,1-2.95,3.72l-.39-.06a5.62,5.62,0,0,1-1.1-.33,7.83,7.83,0,0,1-3.25-2.57,10.29,10.29,0,0,1-1.31-2.36,17.79,17.79,0,0,1-.81-2.85c-.21-1-.39-2-.66-3.07s-.52-2.15-.73-3.3c-.42-2.29-.72-4.75-1-7.34s-.38-5.32-.44-8.12,0-5.7.05-8.63.27-5.89.52-8.83.62-5.91,1-8.64l0-.44,0-.21,0-.14c0,.05,0,0,0,0a2.14,2.14,0,0,1-.05-.39c0-.43-.1-1-.17-1.6-.16-1.21-.38-2.51-.58-3.81-.4-2.61-.85-5.23-1.2-7.75s-.67-4.95-.87-7.23-.34-4.42-.36-6.34,0-3.63.08-5.07c.56-9,4.62-12.7,8.72-12.13S288.5,207.92,287.93,212Z" transform="translate(-48.61 -40.61)"/><path class="cls-5" d="M696.73,283.54c-11.93-.13-8.3,16.95-8.44,26.64s-2,21.28-10.87,25.22q1.46-64.23-3.12-128.41c-.3-4.14-1.64-9.41-5.77-9.83-4.44-.45-7.07,5.14-7.3,9.61-1.56,30.23,1.41,65.13,1.1,76.23s.11,27.6-4.28,27.46-5.06-3.54-5.52-6.57-.23-11.17-.2-14.22c.34-32.34,4-50.67-6.22-50.34-12.54.41-10.06,44.56-9,67.55.48,10.5,2.18,23,11.61,27.62,3,1.5,6.6,2,9.25,4.06,4.42,3.49,1.81,25.71,2.95,30.44h15.7c-.25-5,.82-9.73,4.67-12.76,2.66-2.1,6.14-2.84,9-4.62,7-4.32,9-13.54,9.63-21.76C701.15,314.38,708.67,283.67,696.73,283.54Z" transform="translate(-48.61 -40.61)"/><polygon class="cls-8" points="601.73 393.73 636.06 393.73 645.06 329.73 593.73 329.73 601.73 393.73"/><rect class="cls-14" x="638.33" y="365.67" width="59.33" height="16" rx="3.98" transform="translate(1287.39 706.73) rotate(180)"/><path class="cls-20" d="M249.2,76.73l26.08.33a6,6,0,0,1,5.84,6L280.87,103a6.17,6.17,0,0,1-6,6l-26.08-.33a5.94,5.94,0,0,1-5.57-6.19l.25-19.94A5.81,5.81,0,0,1,249.2,76.73Z" transform="translate(-48.61 -40.61)"/><path class="cls-1" d="M270.67,85.4a5,5,0,0,0-5.78.23,9.47,9.47,0,0,0-2.71,3.21,9.47,9.47,0,0,0-2.79-3.14,5,5,0,0,0-5.78-.08A5.09,5.09,0,0,0,252.36,91a12.57,12.57,0,0,0,3,4.84c2.13,2.23,6.45,6.43,6.45,6.43s4.4-4.32,6.47-6.59c1.32-1.46,2.89-3,3.44-4.92S272.22,86.61,270.67,85.4Z" transform="translate(-48.61 -40.61)"/><path class="cls-24" d="M280.13,122.65a3.71,3.71,0,1,1-3.31-4.12A3.74,3.74,0,0,1,280.13,122.65Z" transform="translate(-48.61 -40.61)"/><path class="cls-24" d="M289.34,134.35a2.05,2.05,0,1,1-1.81-2.36A2.11,2.11,0,0,1,289.34,134.35Z" transform="translate(-48.61 -40.61)"/><path class="cls-25" d="M338.56,45.9l-29.6.37a6.85,6.85,0,0,0-6.62,6.86l.29,22.63a7,7,0,0,0,6.79,6.86l29.6-.37c3.64,0,6.36-3.38,6.32-7l-.29-22.63A6.58,6.58,0,0,0,338.56,45.9Z" transform="translate(-48.61 -40.61)"/><path class="cls-1" d="M320.66,71.74h12.81a2.8,2.8,0,0,0,2.8-2.8V60.67a2.81,2.81,0,0,0-2.8-2.8h-2.4l.44-.75a9.08,9.08,0,0,0,1.23-4.57V52.1A2.13,2.13,0,0,0,330.61,50h0a2.13,2.13,0,0,0-2.13,2.1h0A4.54,4.54,0,0,1,327.4,55h0A5.8,5.8,0,0,1,323,57h-2.32Z" transform="translate(-48.61 -40.61)"/><rect class="cls-16" x="265.5" y="15.41" width="7.52" height="16.28" rx="2.55"/><circle class="cls-25" cx="267.81" cy="57.77" r="4.13"/><circle class="cls-25" cx="263.64" cy="73.89" r="2.09"/><g class="cls-26"><line class="cls-27" x1="301.77" y1="139" x2="484.42" y2="101.27"/><line class="cls-27" x1="301.77" y1="143.79" x2="484.42" y2="106.06"/><line class="cls-27" x1="301.77" y1="148.59" x2="484.42" y2="110.86"/><line class="cls-27" x1="301.77" y1="153.38" x2="484.42" y2="115.65"/><line class="cls-27" x1="301.77" y1="158.18" x2="484.42" y2="120.45"/><line class="cls-27" x1="301.77" y1="162.97" x2="484.42" y2="125.24"/><line class="cls-27" x1="301.77" y1="167.76" x2="484.42" y2="130.03"/><line class="cls-27" x1="301.77" y1="172.56" x2="484.42" y2="134.83"/><line class="cls-27" x1="301.77" y1="177.35" x2="484.42" y2="139.62"/><line class="cls-27" x1="301.77" y1="182.15" x2="484.42" y2="144.42"/><line class="cls-27" x1="301.77" y1="186.94" x2="484.42" y2="149.21"/><line class="cls-27" x1="301.77" y1="191.74" x2="484.42" y2="154"/><line class="cls-27" x1="301.77" y1="196.53" x2="484.42" y2="158.8"/><line class="cls-27" x1="301.77" y1="201.32" x2="484.42" y2="163.59"/><line class="cls-27" x1="301.77" y1="206.12" x2="484.42" y2="168.39"/><line class="cls-27" x1="301.77" y1="210.91" x2="484.42" y2="173.18"/><line class="cls-27" x1="301.77" y1="215.71" x2="484.42" y2="177.98"/></g><rect class="cls-14" x="377" y="167.73" width="78.75" height="7.7" transform="translate(784.15 302.55) rotate(180)"/><path class="cls-6" d="M48.61,435.46h0a2,2,0,0,0,2,2H699.42a2,2,0,0,0,2-2h0a2,2,0,0,0-2-2H50.58A2,2,0,0,0,48.61,435.46Z" transform="translate(-48.61 -40.61)"/></svg>