<svg id="Слой_1" data-name="Слой 1" xmlns="http://www.w3.org/2000/svg" xmlns:xlink="http://www.w3.org/1999/xlink" viewBox="0 0 2097.27 1473.85"><defs><style>.cls-1,.cls-3,.cls-6{opacity:0.95;}.cls-1{fill:url(#linear-gradient);}.cls-2{fill:#96bfe6;}.cls-3{fill:url(#linear-gradient-2);}.cls-4{fill:#4598e6;}.cls-5{fill:url(#linear-gradient-3);}.cls-6{fill:url(#linear-gradient-4);}.cls-7{fill:url(#linear-gradient-5);}.cls-8{fill:url(#linear-gradient-6);}.cls-9{fill:url(#linear-gradient-7);}.cls-10{fill:url(#linear-gradient-8);}.cls-11{fill:url(#linear-gradient-9);}.cls-12{fill:#fff;}.cls-13{fill:url(#linear-gradient-10);}.cls-14{fill:url(#linear-gradient-11);}.cls-15{fill:#e65353;}.cls-16{fill:#eea987;}.cls-17{fill:#d98b52;}.cls-18{fill:#b84343;}.cls-19{fill:#c78d71;}.cls-20{fill:#eea886;}.cls-21{fill:#16202e;}.cls-22{fill:#faa146;}.cls-23{fill:#8e4f3a;}.cls-24{fill:#633029;}.cls-25{fill:#353a3d;}.cls-26{fill:#81807e;}.cls-27{fill:#2d3133;}.cls-28{fill:#decbc4;}.cls-29{fill:#495055;}.cls-30{fill:#a77860;}.cls-31{fill:#252e3b;}.cls-32{fill:#3c4145;}.cls-33{fill:#b3a5a0;}.cls-34{fill:#51565c;}.cls-35{fill:#f5e2d9;}.cls-36{fill:#ad9f99;}.cls-37{fill:#69737a;}.cls-38{fill:#181929;}.cls-39{fill:#22243b;}.cls-40{fill:#292c47;}.cls-41{fill:#cfbeb6;}.cls-42{fill:#3a3f47;}.cls-43{fill:#23263d;}.cls-44{fill:#d44040;}.cls-45{fill:#eddad3;}.cls-46{fill:#8f5c28;}.cls-47{fill:url(#linear-gradient-12);}.cls-48{fill:url(#linear-gradient-13);}</style><linearGradient id="linear-gradient" x1="1062.55" y1="997.28" x2="1021.36" y2="250.71" gradientUnits="userSpaceOnUse"><stop offset="0" stop-color="#d1d7e0"/><stop offset="1" stop-color="#ebebff"/></linearGradient><linearGradient id="linear-gradient-2" x1="1736.33" y1="1205.41" x2="1736.33" y2="436.81" xlink:href="#linear-gradient"/><linearGradient id="linear-gradient-3" x1="498.84" y1="1873.23" x2="2480.29" y2="1873.23" gradientUnits="userSpaceOnUse"><stop offset="0.01" stop-color="#1a2257"/><stop offset="1" stop-color="#5e60f2"/></linearGradient><linearGradient id="linear-gradient-4" x1="1024.87" y1="730.78" x2="1024.87" y2="168.78" xlink:href="#linear-gradient"/><linearGradient id="linear-gradient-5" x1="-3593.55" y1="1498.36" x2="-3466.16" y2="1498.36" gradientTransform="matrix(-1, 0, 0, 1, -2645.54, 0)" xlink:href="#linear-gradient-3"/><linearGradient id="linear-gradient-6" x1="-3494.57" y1="1603.51" x2="-3262.99" y2="1603.51" gradientTransform="matrix(-1, 0, 0, 1, -2645.54, 0)" xlink:href="#linear-gradient-3"/><linearGradient id="linear-gradient-7" x1="-3474.78" y1="1637.19" x2="-3300.95" y2="1637.19" gradientTransform="matrix(-1, 0, 0, 1, -2645.54, 0)" xlink:href="#linear-gradient-3"/><linearGradient id="linear-gradient-8" x1="-3684.89" y1="1460.61" x2="-3423.87" y2="1460.61" gradientTransform="matrix(-1, 0, 0, 1, -2645.54, 0)" xlink:href="#linear-gradient-3"/><linearGradient id="linear-gradient-9" x1="883.93" y1="1745.54" x2="731.95" y2="1289.61" xlink:href="#linear-gradient-3"/><linearGradient id="linear-gradient-10" x1="267.51" y1="1597.56" x2="343.5" y2="1269.99" gradientUnits="userSpaceOnUse"><stop offset="0" stop-color="#c9c4c1"/><stop offset="1" stop-color="#fff6de"/></linearGradient><linearGradient id="linear-gradient-11" x1="732.12" y1="1787.67" x2="918.92" y2="1787.67" gradientTransform="translate(19.53)" xlink:href="#linear-gradient-10"/><linearGradient id="linear-gradient-12" x1="1004.33" y1="658.79" x2="1075" y2="658.79" xlink:href="#linear-gradient"/><linearGradient id="linear-gradient-13" x1="979.01" y1="658.79" x2="1008.46" y2="658.79" xlink:href="#linear-gradient"/></defs><rect class="cls-1" x="761.14" y="50.72" width="527.46" height="527.46" rx="58.67"/><rect class="cls-2" x="902.77" y="458.1" width="244.21" height="12.06"/><rect class="cls-2" x="937.36" y="496.11" width="175.03" height="12.06"/><rect class="cls-3" x="1375.38" y="233.66" width="721.89" height="847.34" rx="69.12"/><rect class="cls-4" x="1702.69" y="733.54" width="57.25" height="10.6"/><rect class="cls-2" x="1485.32" y="830.71" width="333.16" height="20.53"/><rect class="cls-2" x="1485.32" y="929.27" width="269.41" height="20.53"/><rect class="cls-2" x="1485.32" y="879.99" width="157.94" height="20.53"/><path class="cls-4" d="M2404.48,763.9v10.37h61.05v57.3h10.37V763.9Zm-414.59,67.67h10.37v-57.3h61V763.9h-71.42Zm475.64,295.66v57.31h-61.05v10.37h71.42v-67.68Zm-465.27,0h-10.37v67.68h71.42v-10.37h-61Z" transform="translate(-498.84 -445.74)"/><path class="cls-4" d="M2443.58,1397.05a61.06,61.06,0,1,1,61.05-61A61.13,61.13,0,0,1,2443.58,1397.05Zm0-110.29a49.24,49.24,0,1,0,49.24,49.24A49.29,49.29,0,0,0,2443.58,1286.76Z" transform="translate(-498.84 -445.74)"/><polygon class="cls-4" points="1940.85 914.29 1913.11 886.55 1921.46 878.19 1940.85 897.57 1968.02 870.4 1976.38 878.76 1940.85 914.29"/><path class="cls-5" d="M2480.29,1873.22c0,25.61-443.56,46.37-990.73,46.37s-990.72-20.76-990.72-46.37,443.56-46.36,990.72-46.36S2480.29,1847.62,2480.29,1873.22Z" transform="translate(-498.84 -445.74)"/><rect class="cls-6" x="847.11" y="70.44" width="355.53" height="305.04"/><path class="cls-7" d="M823.43,1738.05c29.6-20.82,64.25-165.89,66.31-252.29,1.06-44.26,14.15-62.7,25.69-79,11-15.55,20.56-29,15-59.82-10.61-58.94,17.28-84.38,17.57-84.63l-3.23-3.68c-1.24,1.09-30.29,27.33-19.16,89.18,5.19,28.81-3.36,40.86-14.18,56.12-11.36,16-25.5,35.92-26.59,81.68-2.22,92.73-37.64,229.7-64.23,248.4Z" transform="translate(-498.84 -445.74)"/><path class="cls-8" d="M761.39,1695.74c-2.8-6.34-5.68-12.89-9-19.8-16.91-35.69-31.89-41.57-56.7-51.31-6.07-2.38-12.94-5.08-20.48-8.46-35.55-16-28.67-39.52-22.6-60.29.85-2.91,1.7-5.81,2.43-8.67,3.13-12.22-2.88-18.35-12-27.63-6.76-6.89-15.17-15.47-21.65-29-7.1-14.83-3.48-22.78.8-26.84,9-8.55,29.82-7,49.45,3.74,6.1,3.33,11.12,8.59,16.43,14.16,12.52,13.1,28.1,29.41,67.49,29.6,22.46.1,34.77,3.2,41.14,10.36,7.23,8.13,5.87,20.29,4,37.13-.65,5.82-1.39,12.42-1.84,19.56-2.68,42.54,22.43,73.24,22.68,73.54,15,17.87,33.5,54.94,25.52,77.75-3.35,9.57-10.83,15.59-22.24,17.9a63,63,0,0,1-12.51,1.35C784.8,1748.8,774.72,1726,761.39,1695.74Zm-92-224c-17.53-9.57-36.33-11.5-43.73-4.49-5.62,5.33-3,14.46.25,21.18,6.13,12.82,13.88,20.73,20.73,27.72,9.51,9.7,17,17.37,13.22,32.26-.75,2.92-1.61,5.87-2.48,8.83-6.05,20.68-11.76,40.22,19.9,54.45,7.44,3.34,14.25,6,20.27,8.38,25.05,9.83,41.6,16.32,59.34,53.77,3.3,7,6.2,13.55,9,19.91,15.31,34.71,24.55,55.66,58,48.89,9.6-1.94,15.85-6.89,18.59-14.71,7-20.11-9.8-55.32-24.65-73-1.09-1.3-26.62-32.44-23.82-77,.46-7.25,1.21-13.92,1.86-19.79,1.75-15.58,3-26.84-2.77-33.33-5.28-5.94-16.85-8.63-37.5-8.73-41.48-.19-57.85-17.34-71-31.11-5.26-5.52-9.81-10.28-15.24-13.24Z" transform="translate(-498.84 -445.74)"/><path class="cls-9" d="M824.35,1777.06l4.88-.25c-.24-4.6-6.4-112.86-49.87-144.54-47.69-34.76-62.73-72.12-69.89-97.2-8.44-29.54-51.38-37.44-53.21-37.76l-.85,4.82c.42.08,41.76,7.69,49.35,34.29,7.36,25.77,22.8,64.15,71.71,99.8C818.08,1666.55,824.29,1776,824.35,1777.06Z" transform="translate(-498.84 -445.74)"/><path class="cls-10" d="M816.07,1801.41c-10.23-5.09-9.86-25.57-9.29-56.57.7-39.17,1.68-92.82-18.83-142.17-21.78-52.42-2.36-67.74,16.43-82.55,21-16.6,40.92-32.27,2.78-103-17.53-32.49-23.09-54.47-17.51-69.17,5.51-14.52,21-20.18,37.35-26.17,28.27-10.35,60.3-22.07,56.16-81.89-1.27-18.34.89-29.62,6.79-35.49,6.41-6.38,15.85-5.69,26.78-4.89,16.52,1.21,35.23,2.58,51.52-18.69,1.7-5.31,17.28-52.74,35.92-60.86a13.16,13.16,0,0,1,11.4.06h0c12.87,6.16,20.34,13.45,22.83,22.32,4.34,15.41-7,32.79-20,52.92-20.55,31.64-43.83,67.49-19.68,110.16,31.93,56.41,15.06,76.16-8.28,103.48-13.37,15.66-28.53,33.4-38.66,62.34-8.15,23.28,5.75,45.47,19.19,66.93,16.87,26.92,34.31,54.76-2.41,78.92-60.7,39.94-120.66,170.31-121.26,171.62l-.24.54-.47.37c-11.19,8.77-19.33,13-25.46,13A11.08,11.08,0,0,1,816.07,1801.41ZM965.85,1613c32.72-21.53,18-45,1-72.23-13.41-21.4-28.6-45.65-19.67-71.15,10.43-29.8,25.91-47.92,39.56-63.9,22.87-26.77,38-44.46,7.74-97.89-25.62-45.25-.42-84,19.83-115.23,12.43-19.13,23.16-35.66,19.42-48.94-2.09-7.42-8.7-13.71-20.23-19.22h0a8.34,8.34,0,0,0-7.33,0c-17.3,7.53-33.18,57.74-33.34,58.25l-.12.4-.26.34c-18,23.74-39.07,22.2-56,20.95-10.14-.74-18.14-1.33-23,3.48s-6.5,15.09-5.35,31.68c4.39,63.49-31,76.43-59.37,86.82-15.95,5.84-29.74,10.89-34.45,23.32-5,13.27.44,34,17.23,65.11,40.1,74.36,17.66,92.06-4.05,109.18-18.15,14.32-35.3,27.84-14.94,76.83,20.9,50.29,19.92,104.53,19.2,144.14-.49,27-.88,48.38,6.58,52.1,4.37,2.17,12.72-1.5,24.83-10.92C847.93,1775.56,905.35,1652.78,965.85,1613Z" transform="translate(-498.84 -445.74)"/><path class="cls-11" d="M720.25,1233.17c30.9-10.59,24.48,49,37.53,93s145.24,19.22,89.75,129.55,70.17,36.89,32.64,133.17-3.26,199.25-44.06,173.06-22.92-147.43-65.35-161.84-49.35-31.21-7.34-70.37-110.07-78-72.54-157.13S684.55,1245.41,720.25,1233.17Z" transform="translate(-498.84 -445.74)"/><path class="cls-12" d="M821.89,1755.64c3.89-16.48,37.07-161.52,6.11-179.06-27.29-15.45-26.62-75.55-22.36-132.31,3.77-50.24-60.76-73.72-63.51-74.7l-1.64,4.62c.64.22,63.75,23.21,60.26,69.71-4.37,58.29-4.84,120.14,24.83,136.94,23.51,13.32,1.87,129.89-8.46,173.68Z" transform="translate(-498.84 -445.74)"/><polygon class="cls-13" points="439.62 1258.26 395.51 1425.61 296.93 1425.61 252.82 1258.26 439.62 1258.26"/><path class="cls-14" d="M938.46,1704s-97.11,18.23-97.11,167.35H795.77L751.66,1704Z" transform="translate(-498.84 -445.74)"/><rect class="cls-4" x="1004.35" y="399.16" width="41.05" height="7.6"/><path class="cls-4" d="M1646.74,551.26v7.43h43.78v41.09H1698V551.26Zm-297.27,48.52h7.43V558.69h43.78v-7.43h-51.21Zm341,212v41.1h-43.78v7.44H1698V811.77Zm-333.62,0h-7.43v48.54h51.21v-7.44H1356.9Z" transform="translate(-498.84 -445.74)"/><path class="cls-15" d="M2453.16,1084.58h-68.48c-4.51-32.79-10-70.22-10-70.22s-2.77,30.89-6.14,70.22h-274c-2.5-35.37-5.51-61.83-6.6-62.37-1.57-.79-11.35,30.59-19.46,62.37h-74.19c19.08-82.19,54.67-214.06,75.25-222,29.28-11.26,148.72-48.07,148.72-48.07h68.16s121.11,34.56,132.38,72.13C2427.68,916.61,2447.44,1015.34,2453.16,1084.58Z" transform="translate(-498.84 -445.74)"/><path class="cls-16" d="M2255.39,593.44s63.64,10,54,109.6-65.86,91.42-69.61,91.32-56.39,1.81-60.49-119.76C2179.24,674.6,2177.44,584.7,2255.39,593.44Z" transform="translate(-498.84 -445.74)"/><path class="cls-16" d="M2285.1,765s-1.75,41,2.22,49.82-52.52,37.35-87,5.61c0,0,8.32-44.51,6-60.29S2285.1,765,2285.1,765Z" transform="translate(-498.84 -445.74)"/><path class="cls-16" d="M2310.33,674.92s7-7.45,9.52.09-10.81,41.21-9.94,42.72c0,0-1.27,2.92-2.94,1.31S2310.33,674.92,2310.33,674.92Z" transform="translate(-498.84 -445.74)"/><path class="cls-16" d="M2180,673.66s-6.82-7.58-9.52-.1,10,41.41,9.11,42.91c0,0,1.22,2.94,2.92,1.37S2180,673.66,2180,673.66Z" transform="translate(-498.84 -445.74)"/><path class="cls-17" d="M2310.3,690.19l-9.11,12.18s.25-26.71-1.21-30.89-3.7-17-4.92-20-54.65-18-101.85,4.37c0,0,2.08,19.21-2.44,20.92s-2.31,31.27-2.31,31.27l-7.49-8.45S2169.5,623,2172.33,615s11.86-56,108.68-27.49c0,0,30.19-6.39,36.25,14.45S2310.3,690.19,2310.3,690.19Z" transform="translate(-498.84 -445.74)"/><path class="cls-16" d="M2287.32,814.85s14.36,3.06-45.73,60.65c0,0-42.62-47.15-41.24-55S2287.32,814.85,2287.32,814.85Z" transform="translate(-498.84 -445.74)"/><polygon class="cls-18" points="1742.75 429.76 1759.15 457.8 1807.79 375.2 1786.73 360.51 1742.75 429.76"/><polygon class="cls-18" points="1742.75 429.76 1702.96 366.44 1680.4 380.94 1720.85 457.8 1742.75 429.76"/><path class="cls-18" d="M2229.25,1050.92c.49,9.34.71,20.8.74,33.66h-2.26c0-12.81-.24-24.24-.73-33.55-3.69-70.25,13.33-155.72,13.44-175.76l2.2.44C2242.53,895.74,2225.56,981,2229.25,1050.92Z" transform="translate(-498.84 -445.74)"/><path class="cls-19" d="M2212.28,782.64s15.12,16,36.48,11.72,30.84-14,30.84-14-8.43,21.14-33.12,23.08S2212.28,782.64,2212.28,782.64Z" transform="translate(-498.84 -445.74)"/><path class="cls-20" d="M1474.86,554.08l-.14,0c-1.44-.35-3.71-7.23-4.16-8.61-.1-.38-.32-1.07-.63-2-1.79-5.51-6-18.42-4.33-23.36.51-1.56,1.31-2.46,2.38-2.68,2.28-.48,4.89,2.42,5,2.55l.06.06v.08c.59,5.43,3.49,32.58,2.24,33.82A.63.63,0,0,1,1474.86,554.08Zm-6.36-36.23a2,2,0,0,0-.42,0c-.87.18-1.54,1-2,2.33-1.57,4.79,2.72,18,4.34,23,.31,1,.53,1.66.64,2,1,3.3,2.93,8,3.77,8.25a.08.08,0,0,0,.08,0c.79-1.08-1-21-2.39-33.3C1472.18,519.84,1470.24,517.85,1468.5,517.85Z" transform="translate(-498.84 -445.74)"/><path class="cls-21" d="M1522.17,445.86s35-3.67,47.66,30.16,24.51,44.91,26,62.68c6,71.89,39.58,55.63,30.14,97.06s-16,47.71-16,47.71l-80.26-15.74-81.3.27s31.81-15.89,24.73-49.72-24.73-89.28-14.76-127S1501.24,448.74,1522.17,445.86Z" transform="translate(-498.84 -445.74)"/><path class="cls-20" d="M1565,554.08a.63.63,0,0,1-.43-.19c-1.25-1.24,1.65-28.39,2.24-33.82V520l.06-.06c.11-.13,2.72-3,5-2.55,1.07.22,1.87,1.12,2.38,2.68,1.63,4.94-2.54,17.85-4.33,23.36-.31,1-.53,1.65-.63,2-.45,1.39-2.72,8.27-4.16,8.62Zm2.33-33.86c-1.35,12.34-3.18,32.22-2.38,33.31a.07.07,0,0,0,.07,0c.84-.21,2.72-4.95,3.78-8.26.1-.37.32-1.07.63-2,1.62-5,5.91-18.25,4.34-23-.46-1.36-1.12-2.15-2-2.33C1569.91,517.51,1567.66,519.81,1567.29,520.22Z" transform="translate(-498.84 -445.74)"/><path class="cls-22" d="M1686.89,769.08h-50c-10.37-18.9-18.79-33.69-18.79-33.69s-6.74,12.3-12,33.69H1437.76a146,146,0,0,1-2.19-35.23s-9,16.26-19.43,35.23h-56.56c15-28.11,43.13-79.28,49.52-86,8-8.4,54.55-40.56,87.76-51s52.11-.36,52.11-.36,34.12,6.15,65.66,18.65C1627,655.28,1661.29,718.54,1686.89,769.08Z" transform="translate(-498.84 -445.74)"/><path class="cls-23" d="M1526.79,465.65s46.4,6.69,39.61,75.18-47.74,63.06-50.48,63-41.08,1.43-44.4-82.15C1471.52,521.68,1470,459.88,1526.79,465.65Z" transform="translate(-498.84 -445.74)"/><path class="cls-23" d="M1547.41,591.68s-2.87,35.63,4,46.3-5.87,25.16-32.1,20.21-24.71-19.82-24.71-19.82,7.35-22,5.2-39.59S1547.41,591.68,1547.41,591.68Z" transform="translate(-498.84 -445.74)"/><path class="cls-21" d="M1521.49,490.47s21.67,22.79,31.74,34.33,11.23,33.83,11.23,33.83,17-20.72,9.87-44.85-23.88-71.07-66.36-56.64S1463.91,535,1468.89,566.5C1468.89,566.5,1488,497,1521.49,490.47Z" transform="translate(-498.84 -445.74)"/><path class="cls-23" d="M1563.7,634.84s-32.18,81.5-51.74,95.66c0,0-25.68-83.12-23.89-95.29C1488.07,635.21,1526.82,620,1563.7,634.84Z" transform="translate(-498.84 -445.74)"/><path class="cls-21" d="M1495.7,615.13s-57.36,51-42.47,82.88c12.7,27.17,57.75,10.5,50.32-18S1495.7,615.13,1495.7,615.13Z" transform="translate(-498.84 -445.74)"/><path class="cls-24" d="M1503.2,600.73s19.77,9.34,39-4.46a25.09,25.09,0,0,1-19.5,12.61C1508.55,610.45,1503.2,600.73,1503.2,600.73Z" transform="translate(-498.84 -445.74)"/><path class="cls-20" d="M1526.06,1250.3s13.07-.18,17.72-5.21,12.86-9.55,15.5-10.83c3.52-1.71,13.26-11.19,14.49-6.56s-15.52,16.36-18.71,19.53,13.91,4.55,16.42,7.63-6.22,35.42-17.61,32.91-20.72-14-22.87-14-8.42-1.44-8.42-1.44Z" transform="translate(-498.84 -445.74)"/><path class="cls-20" d="M1569.06,1253.54s34,10.38,35.4,13.32.45,5.1-2.79,4.28-33.28-8.9-33.28-8.9,37.15,20.32,38.83,22.35c1,1.19-.65,5.44-2.45,5.19s-40.06-17.79-40.06-17.79,34.66,19,35.52,21.31c.76,2-1.57,5.63-4.26,4.43s-36.08-16.64-36.08-16.64,24.15,15.82,23.77,18.42c-.23,1.59-1.49,5.31-7.57,1s-21.67-12.62-21.67-12.62Z" transform="translate(-498.84 -445.74)"/><path class="cls-25" d="M1454.54,1823.89s10.91,16.32,26.21,19.85,30.37,9.13,30.48,18.79-44.23,15.41-61.74,5.68c-26.13-14.53-28.79-10.15-31.69-17.41s3.48-26.68,3.29-29C1420.86,1819,1454.54,1823.89,1454.54,1823.89Z" transform="translate(-498.84 -445.74)"/><path class="cls-26" d="M1452.84,1815.84s2,7.89,1.7,8.05-34.48,4.24-33.45-2.08c.84-5.13,2-10.71,2-10.71Z" transform="translate(-498.84 -445.74)"/><path class="cls-25" d="M1239.89,1822.81s7.78,15.61,21.07,20.93c14.21,5.68,25.61,12.22,25.35,21.62s-34.74,18.94-59.82.89c-15.85-11.41-20.87-11.46-23.42-18.65s4.42-25.85,4.32-28.11C1207.28,1816.71,1239.89,1822.81,1239.89,1822.81Z" transform="translate(-498.84 -445.74)"/><path class="cls-26" d="M1240.28,1814.71s-.1,8-.39,8.1-33.34,2.87-32.5-3.32a51,51,0,0,1,3.21-10.85Z" transform="translate(-498.84 -445.74)"/><path class="cls-27" d="M1361.41,1337.84s43.39,166.24,59.92,204.67c15.3,35.61,20.35,85.41,22.46,110.42,2.65,31.45,18.43,154,20.29,163.16s-51,5.08-51,5.08-36.47-211.81-51.62-242.72c-10.1-20.62-68.74-168.55-75.45-160s-15,156.73-20,181.34-20.23,219-20.23,219-34.11,5-43.21-2.67c0,0-4.15-166-1-212.13,1.21-17.58-20.59-210.78,7.37-288.55C1223.67,1274.3,1361.41,1337.84,1361.41,1337.84Z" transform="translate(-498.84 -445.74)"/><path class="cls-28" d="M1119.71,1218.63c0,1.9,3.59,9.5,9.33,20.44,8.37-16.76,15-30.53,17.11-35.59,7.06-16.68,43.46-54.91,43.46-54.91a.45.45,0,0,0,0,.08s0,0,0,0,0,0,0,0,0,.11,0,.16a3.29,3.29,0,0,0,.09.32c0,.07,0,.14,0,.21s0,.1,0,.15c2,7.38,14.15,53.52,14.6,76.25.49,24.74,7,70.52,7,70.52h0l7.6,1.06,16.82,2.37,2,.28,4.89.69,44.59,6.27,15.81,2.23,2.14.3,9,1.27,25,3.51,6.37.89h0l4.77.67,6.59.93h0c.18-.24,6.41-8.77,5.45-27.72-.61-12.23-2.09-35.21-1.47-56.53,0-.11,0-.22,0-.33,0-.27,0-.53,0-.8a2.53,2.53,0,0,0,0-.27v0c.39-11.72,1.42-22.82,3.61-31.25a131.3,131.3,0,0,0,3.1-16.66l.09-.77c.12-1,.22-2,.31-2.92a147.23,147.23,0,0,0,.24-26.7l0,.05c.45,1,3.71,12.91,8,27.64,7.21,24.89,17.31,57.77,21.61,59.35,6.25,2.31,107.55,32.31,129.43,35.38,2.53.36,4,.35,4.14-.09l.3-1c2.66-8.77,6.31-23.66,6.9-26.06l.08-.34-3.92-1.17-110.22-33-50.39-145.3c-1.05-.84-13.43-6.83-22.47-11.13-9.21-4.39-20.32-10.83-30.38-16.34-5.14-2.81-10-5.37-14.19-7.3l-.64-.29h0l-11.55-5.27h0l-3-.29c-9.68-.92-39.75-3.74-49.83-4.33-.83,0-1.53-.08-2.06-.09s-.81,0-1,0c-1.28.08-7.47,2.24-15.62,5.34h0l-.93.36-1.15.43-2.15.83-4.48,1.76-1.59.62c-16.31,6.48-35,14.47-39.43,17.66-2.93,2.1-12.06,19.32-22.65,40.61-13.64,43.69-30.93,110.58-31.47,127.07C1119.72,1218.14,1119.71,1218.39,1119.71,1218.63Z" transform="translate(-498.84 -445.74)"/><path class="cls-29" d="M1357.09,1316.83s3.35,4,4.32,21c0,0-137.93-16.09-152.51-22.43,0,0-.57-18.73,2.52-19.06C1214.82,1296,1357.09,1316.83,1357.09,1316.83Z" transform="translate(-498.84 -445.74)"/><path class="cls-20" d="M1239.46,1018.52c.43,21.65,42.34,33.49,42.34,33.49s17.53-22,13.35-24.08c-1.65-.83-2.32-4.11-2.52-7.79a75.19,75.19,0,0,1,.24-9.82c.12-1.53.24-2.51.24-2.51s-6-6.32-13.61-13.85c-13.31-13.16-31.61-30-31.64-23.32a6.46,6.46,0,0,0,.15,1.27C1251.23,987,1239.46,1018.52,1239.46,1018.52Z" transform="translate(-498.84 -445.74)"/><path class="cls-25" d="M1242.94,1299.67s-3,19-3.28,23.94l-6.38-1.28s1.76-20.08,2.79-23.45Z" transform="translate(-498.84 -445.74)"/><path class="cls-25" d="M1345.58,1314.62s2.42,17.25,2.47,23.77l-6.75-.88s-1.38-21.55-2.15-23.8Z" transform="translate(-498.84 -445.74)"/><path class="cls-30" d="M1255.6,986.8h0c.09.12,1.86,2.78,4.9,6.6,6.43,8.09,18.53,21.39,32.13,26.73a75.19,75.19,0,0,1,.24-9.82,21.78,21.78,0,0,0,4.16-.5,129.56,129.56,0,0,0-9.11-13.34L1279.5,994Z" transform="translate(-498.84 -445.74)"/><path class="cls-20" d="M1247.56,970.93c3.62,7.89,7.06,13.61,8,15.87h0a28.22,28.22,0,0,0,4.9,6.6c6.91,7.44,19.75,17.26,32.37,16.91a21.78,21.78,0,0,0,4.16-.5c5.1-1.11,11.11-3.48,14.43-10,26.14-51.19,7.21-93.06,7.21-93.06s-71.5-20.21-82.68,1.31C1228.14,923.2,1239,952.4,1247.56,970.93Z" transform="translate(-498.84 -445.74)"/><path class="cls-31" d="M1318.67,906.79s6.64-.36,8.29-12.95S1325.3,878,1325.3,878s-29.52-12.35-40.12-14-36.66-3.15-42.77,3.84c0,0-14.85-3.45-18.89,21.19-6.42,39.09,21.86,77.05,21.86,77.05s-.24-25.54,5.39-28.92,10.5,4.66,10.5,4.66l11.52,2.07s-17.5-37.79,3.49-39.19S1306.66,909,1318.67,906.79Z" transform="translate(-498.84 -445.74)"/><path class="cls-20" d="M1261,931.63c-1.1-11.25-21.45-15.55-20.08-3.75s11.38,23.12,16,22.72S1261.78,940.21,1261,931.63Z" transform="translate(-498.84 -445.74)"/><path class="cls-32" d="M1129,1239.07c8.86,16.91,22.84,41.79,36.65,65.92q-2.73,5.09-5.29,10.08a201.17,201.17,0,0,0-10.46,23.32c-3.15,8.82-7.52,31.4.85,35.6l44.13,24.35.89-2.46c1.46-4,4.63-12.44,9-23.42.14-.35.58-1.4,1.24-2.94.88-2.07,2.14-5,3.59-8.4.65-1.51,1.33-3.11,2-4.75l2.46-5.72c1.2-2.79,2.39-5.58,3.5-8.15,3-7,5.36-12.46,5.36-12.46l.45-1c1.43-3.11,2.91-6.22,4.4-9.33,2.32-4.81,4.71-9.6,7.15-14.29l.74-1.42c.44-.82.87-1.65,1.31-2.46l.81-1.5.18-.33.33-.59c12.76-23.27,27.13-42.73,31.71-71.26.44-2.76.86-5.49,1.26-8.21.66-4.53,1.28-9,1.83-13.39.21-1.65.42-3.29.62-4.92,2.29-19,3.66-36,4.77-47.81,3.45-36.81-19.09-76.66-36.4-101.28a271.21,271.21,0,0,0-18.51-23.65l-.09-.09-.93.36-1.15.43-2.15.83-4.48,1.76-1.59.62c-16.76,6.58-52.06,16.29-56.5,19.47-2.56,1.83-8.3,18.63-14.92,39.85-13.64,43.69-21.73,109.57-22.13,126,0,.26,0,.51,0,.75C1119.71,1220.53,1123.3,1228.13,1129,1239.07Zm67-8.22c0,8.21-2.67,17.61-6.77,27.63-.11.25-.21.51-.32.76-2.83-6-5.49-11.82-7.88-17.17,0,0,0,0,0,0-6.56-14.7-11.07-26.16-11.32-30.7-1.62-29.14,19.84-62.69,19.84-62.69s0,0,0,0,0,0,0,0,0,.11,0,.16l.09.32c0,.07,0,.14,0,.21s0,.1,0,.15C1194.27,1166.9,1196.08,1230.85,1196.08,1230.85Z" transform="translate(-498.84 -445.74)"/><path class="cls-33" d="M1279.89,1340.67l-125.77,56a14.12,14.12,0,0,1-18.62-7.15l-34.43-77.36a14.12,14.12,0,0,1,7.15-18.62l125.77-56a14.11,14.11,0,0,1,18.62,7.15l34.43,77.36A14.1,14.1,0,0,1,1279.89,1340.67Z" transform="translate(-498.84 -445.74)"/><path class="cls-32" d="M1307,1033.75s5.9,19.64,13.53,68.65c0,0,0,0,0,0,.26,1.65.51,3.32.77,5l.09.59c.17,1.13.35,2.28.52,3.45l.06.41c.12.78.24,1.56.35,2.36.29,1.94.57,3.91.86,5.92,3.4,23.86,8.18,64.46,12.77,105.45v0c3.62,32.31,11.89,65.46,14.51,90.21,0,0,0,0,0,0a171.49,171.49,0,0,0,3.43,18.6c.19.83.39,1.66.58,2.51,7.4,31.23,21.75,75.43,21.75,75.43l4.18-3.86,12.37-11.43a10,10,0,0,0,2.79-10.35c-6.87-22.15-30.2-100.52-34.48-155.63v0c2.1-19.37,7.46-45.35,6.66-49.09,0,.14.1.27.14.41,2.46,6.83,5.18,14.26,7.93,21.49h0c7.36,19.41,14.9,37.41,18,38.56,7,2.57,132.39,39.56,133.3,34.4.09-.52.2-1.07.32-1.66s.24-1.18.37-1.81c1.55-7.07,4.36-17.2,6.32-24,.3-1,.57-2,.81-2.79l1.36-4.64-106-34.8-53.51-139.94c-1-.83-14.7-8.18-23.74-12.48-9.42-4.48-21.33-10-31.89-14.89l-13.82-6.36Z" transform="translate(-498.84 -445.74)"/><path class="cls-34" d="M1235.21,1082.26l20.39,11.5-8.71,8.89,23.2,125.24c4.73-29.35,6.88-57.23,8.48-74.33,5.34-56.9-51.46-121.09-55-125-2.73,1-5.68,2.17-8.72,3.38Z" transform="translate(-498.84 -445.74)"/><path class="cls-34" d="M1306.7,1033.2s7.62,24.88,16.5,87c3.4,23.86,8.18,64.47,12.77,105.45l4.75-117.29-9.72-10.53,8.64-10.79-18.48-47.18c-5.05-2.33-9.8-4.52-13.82-6.36Z" transform="translate(-498.84 -445.74)"/><path class="cls-35" d="M1222.44,1029l17-10.45s.47,9.27,42.34,33.49l-11.89,33.49Z" transform="translate(-498.84 -445.74)"/><path class="cls-35" d="M1292.94,1023.19s-.66,10-11.14,28.82l23.21,30.25,1.69-49.06Z" transform="translate(-498.84 -445.74)"/><path class="cls-22" d="M1281.74,1052s-4.5,18-2.88,23c0,0,9.89,3.59,17-.9C1295.86,1074.14,1290.82,1061.54,1281.74,1052Z" transform="translate(-498.84 -445.74)"/><path class="cls-36" d="M1305,1311.45c2.51-12.69.12-50.72,0-52.33l-2.16.13c0,.39,2.48,39.37,0,51.78Z" transform="translate(-498.84 -445.74)"/><path class="cls-37" d="M1287.38,1305.6s20.29,2.42,27,4.1l-.88,22.75-26.58-2.84Z" transform="translate(-498.84 -445.74)"/><path class="cls-22" d="M1291.82,1072.52s22.64,57.16,18.94,121.15c-3.82,66.34-10.1,90.39-10.1,90.39l-14,17.5-6.16-21.51s18.73-84.58,6.64-166.88c-2.19-14.91-5.44-43.17-5.44-43.17Z" transform="translate(-498.84 -445.74)"/><path class="cls-20" d="M1223.8,1342.48s4.86,9.72,9.72,11.33,11.94,9.52,11.94,9.52l-34.21,18s-9.1-17.81-9.51-29.14S1223.8,1342.48,1223.8,1342.48Z" transform="translate(-498.84 -445.74)"/><path class="cls-28" d="M1227.05,1343.39l2.26,4.56s-21.72,15.88-27.57,16.89l-2-6.07Z" transform="translate(-498.84 -445.74)"/><path class="cls-32" d="M1229.31,1343.59s-16.27,13.46-30,19.67l-61.45-107.75,39.22-21.45S1228.23,1335.5,1229.31,1343.59Z" transform="translate(-498.84 -445.74)"/><path class="cls-27" d="M1367.12,1153.05c.76,15.35.65,29,.65,29h0c0,.08,0,.49,0,1.18l.09-.77c2.46,6.83,5.18,14.26,7.93,21.49a228.59,228.59,0,0,0,.61-23.42c-1.1-43-14.63-65.62-14.63-65.62C1364.92,1122.4,1366.41,1138.5,1367.12,1153.05Z" transform="translate(-498.84 -445.74)"/><path class="cls-20" d="M1901.1,1011.14s-.64-7.91.29-11.6c1.61-6.37-.76-16.7,7.26-21.71s31.07,16,32.88,21.83-6.8,15.85-24.83,24.24S1901.1,1011.14,1901.1,1011.14Z" transform="translate(-498.84 -445.74)"/><path class="cls-20" d="M1906.2,979.91a273.49,273.49,0,0,1,18-23.68c9-10.49,21.67-22.27,24.34-20,4.05,3.39-7.43,11.86-15.66,22.87-7.57,10.14-4.36,9.42-4.36,9.42s-.92.15,9.51-9.28c11.21-10.13,23.68-20.55,25.9-18.76,2.76,2.21,2.91,2.72-.55,7.07,2.54-2.07,3.47-1.66,4.45-.68,5,5.07-9.08,22.55-14.69,29.49,4.34-5.31,8.11-8.73,9.19-3.63,1.24,5.83-19.86,29.64-26.59,38.89C1928.45,1021.69,1906.2,979.91,1906.2,979.91Z" transform="translate(-498.84 -445.74)"/><path class="cls-38" d="M1636.56,1820.93s21.94,13,31.87,17.79,48.52,6.2,52.34,9.82,2.41,15.16-4,16.34-53.31,5.42-69,1.76-44.92,2.5-51.4.3-2.31-37.15.2-45S1636.56,1820.93,1636.56,1820.93Z" transform="translate(-498.84 -445.74)"/><path class="cls-39" d="M1638.38,1806.64l-1.82,14.29s-29.33,5.48-38.22,1l2.2-14.84Z" transform="translate(-498.84 -445.74)"/><path class="cls-40" d="M1756,1318.58c-.31,9.89-2.12,31.36-4.21,53.91-.47,5-1,10.07-1.45,15.07-2.92,30.34-5.88,58.4-5.88,58.4-3.7,24.15-11.34,66.08-19.88,97.79h0c-2.47,9.15-5,17.45-7.54,24.22-2.48,6.59-5,11.74-7.37,14.82-18.18,23.22-59.85,229-59.85,229l-56.88-.43s12.51-139.37,25.08-174.7c14-39.46,38.4-92.63,32.35-130.68-3.79-23.88-8.67-99.89-8.67-99.89s-4.76-85.41,17.58-148C1664.9,1242.53,1756,1318.58,1756,1318.58Z" transform="translate(-498.84 -445.74)"/><path class="cls-38" d="M1796.41,1826.27s21.78,13.24,31.65,18.18,48.45,6.78,52.22,10.45,2.24,15.18-4.17,16.29-53.37,4.78-69,.93-44.94,2-51.4-.32-1.86-37.17.74-45S1796.41,1826.27,1796.41,1826.27Z" transform="translate(-498.84 -445.74)"/><path class="cls-39" d="M1798.41,1812l-2,14.26s-29.39,5.14-38.22.51l2.38-14.82Z" transform="translate(-498.84 -445.74)"/><path class="cls-40" d="M1730.41,1607.91c-1.48-45.52-5.5-75.76-17.21-102.06-9.84-22.09-18.26-91.44-18.26-91.44s-26.66-81.28-21.25-147.49c1.35-16.54,104.39,25,104.39,25,2.26,9.64,9.15,40,11.6,62.48,14,128.57,8.73,212.32,8.73,212.32-8,28.39,12.16,251.75,12.16,251.75h-58s-15.2-79.46-16.8-128.87C1735.77,1689.64,1729.84,1615.78,1730.41,1607.91Z" transform="translate(-498.84 -445.74)"/><path class="cls-41" d="M1729.12,1018.87s27,44.31,34.92,69,1.54,96.59,2.93,111c4.33,44.82,10.64,94.16,10.64,94.16L1687,1351a895.43,895.43,0,0,1-30.44-85.27c-14.18-47.29-15.32-89.87-15.19-118.32.42-89.24,48.65-139.63,48.65-139.63Z" transform="translate(-498.84 -445.74)"/><path class="cls-20" d="M1762.41,900.05s18.58,19.88,13.33,25.1c-4.33,4.32,12.74,24.13,15.17,27.46s-7.58,8.85-9.23,11.84-.68,34.17-9.27,37.37-52-.18-65.81-8.6-36-57-34.44-80.32S1729.74,865.38,1762.41,900.05Z" transform="translate(-498.84 -445.74)"/><path class="cls-20" d="M1744.85,995.08s-.32,2.65-.75,6.76c-.16,1.72-.37,3.68-.55,5.83-.11,1.27-.22,2.62-.35,4,0,.37-.08.74-.1,1.11-.06.64-.11,1.27-.16,1.94-.21,3-.43,6.09-.59,9.16-.39,7.93-.45,15.5.4,19.72,2.28,11.55-47.48-37.2-47.48-37.2a569,569,0,0,0,2.18-80.31C1695.38,883.59,1744.85,995.08,1744.85,995.08Z" transform="translate(-498.84 -445.74)"/><path class="cls-42" d="M1766.22,904.41s8.79-20.73-18.31-35.12c-31.9-16.94-65.73,25.59-70.22,28.1s-24.88,25.46-4.92,55.89c25.19,38.39,23.86,37.1,23.86,37.1s2.52-28.32,2.36-33.79c-.3-10,25.9-11.17,25.9-11.17s-10.76-14.32,1.2-20.75S1752.05,903,1766.22,904.41Z" transform="translate(-498.84 -445.74)"/><path class="cls-20" d="M1711.13,941.8c-1.91-2.68-8.91-14.52-17.91-4.13s15.14,29.82,17.14,29.63S1727.18,964.35,1711.13,941.8Z" transform="translate(-498.84 -445.74)"/><path class="cls-43" d="M1782.55,1312.2s-4.5-21.2-5.38-24.37l-132.48,22.05,1.36,17.12S1741.5,1321.29,1782.55,1312.2Z" transform="translate(-498.84 -445.74)"/><path class="cls-22" d="M1632.9,1218.83s20.35,87.89-11.52,190.43c-3.89,12.52,88.23-2,88.23-2Z" transform="translate(-498.84 -445.74)"/><path class="cls-22" d="M1749.92,1400.88s-65.43,14.36-83.81,7.86c0,0-26.74-97.28-36.07-196-.72-7.63-1.34-15.27-1.83-22.86h0c-5.2-80.33,15.24-161.83,61.83-182.09,1.31.88,66.93,58.73,65.68,111.68q-.13,5.38-.16,10.78c0,6.51,0,13,.14,19.55h0c.42,20.14,1.67,40.23,3.45,59.74.17,2,.37,4.07.57,6.08q.48,4.92,1,9.78.7,6.46,1.46,12.82C1772.78,1326.57,1749.92,1400.88,1749.92,1400.88Z" transform="translate(-498.84 -445.74)"/><path class="cls-44" d="M1747.24,1057.56a728.8,728.8,0,0,1,17,110.21c3.93,51.37,9.18,87.7,9.18,87.7l7.87,25.43,3.23-24.53s-2.88-66.3-6.73-93.27c-3.88-27.19-5.57-61.71-27.31-106.49Z" transform="translate(-498.84 -445.74)"/><path class="cls-44" d="M1745.86,1057.6a7.32,7.32,0,0,0,3.59,1.74c2.1.31,5.11-3-5.64-17.24Z" transform="translate(-498.84 -445.74)"/><path class="cls-45" d="M1695.85,1000.42s30.47,28.69,48.6,35l3.46,27.48L1690,1007.75Z" transform="translate(-498.84 -445.74)"/><path class="cls-22" d="M1716.31,1111.51c-12-4.27-61.93-28.5-48.65-56.78s47.5-13.24,73.26-1.73c26.95,12,90.57,49,95.61,45.58s27-34.94,31-42,28-51.88,30.26-55.26,37.11,26,37.11,26-62.66,111.28-79.52,129S1716.31,1111.51,1716.31,1111.51Z" transform="translate(-498.84 -445.74)"/><path class="cls-38" d="M1724.62,1543.75h0c-2.47,9.15-5,17.45-7.54,24.22h0l-19.84-118.35C1702.25,1460.84,1724.62,1543.75,1724.62,1543.75Z" transform="translate(-498.84 -445.74)"/><path class="cls-46" d="M1755.7,1149.77l-57.41-46.89c15.21,8.15,52.58,25.21,57.27,27.34C1755.51,1136.73,1755.56,1143.26,1755.7,1149.77Z" transform="translate(-498.84 -445.74)"/><path class="cls-30" d="M1744.1,1001.84c-.16,1.72-.37,3.68-.55,5.83-.11,1.27-.22,2.62-.35,4-19-1.27-33.73-16.43-34.63-17.35C1716.31,1000.46,1744.1,1001.84,1744.1,1001.84Z" transform="translate(-498.84 -445.74)"/><polygon class="cls-47" points="1020.89 675.97 1075 675.97 1058.43 641.62 1004.33 641.62 1020.89 675.97"/><polygon class="cls-48" points="995.57 675.97 1008.47 675.97 991.9 641.62 979.01 641.62 995.57 675.97"/></svg>