<svg width="696" height="124" viewBox="0 0 696 124" fill="none" xmlns="http://www.w3.org/2000/svg">
<path d="M61.55 0C49.3766 0 37.4765 3.60984 27.3547 10.373C17.2328 17.1362 9.34382 26.749 4.68524 37.9958C0.026669 49.2426 -1.19223 61.6183 1.18269 73.5578C3.55761 85.4973 9.41968 96.4645 18.0276 105.072C26.6355 113.68 37.6027 119.542 49.5422 121.917C61.4817 124.292 73.8574 123.073 85.1042 118.415C96.351 113.756 105.964 105.867 112.727 95.7453C119.49 85.6235 123.1 73.7234 123.1 61.55C123.1 45.2259 116.615 29.5704 105.072 18.0276C93.5296 6.48471 77.8741 0 61.55 0V0ZM92.18 81.94C88.8284 86.9829 84.2814 91.1184 78.9441 93.978C73.6069 96.8377 67.6451 98.3328 61.59 98.33H61.51C51.7676 98.3247 42.4257 94.4522 35.5368 87.5632C28.6478 80.6743 24.7753 71.3324 24.77 61.59V61.52C24.7621 55.4914 26.2386 49.5536 29.0691 44.2308C31.8997 38.908 35.9973 34.364 41 31C41.1571 30.8913 41.336 30.8181 41.5242 30.7853C41.7123 30.7525 41.9054 30.7609 42.09 30.81C45.4728 31.6385 48.7861 32.7284 52 34.07C52.2669 34.2077 52.488 34.42 52.6365 34.681C52.785 34.942 52.8544 35.2406 52.8364 35.5403C52.8184 35.8401 52.7137 36.1282 52.5351 36.3696C52.3564 36.6109 52.1115 36.7952 51.83 36.9C46.8879 38.8473 42.6463 42.237 39.6572 46.628C36.668 51.019 35.0696 56.2081 35.07 61.52V61.59C35.0833 68.5972 37.8755 75.3131 42.8341 80.2642C47.7927 85.2153 54.5128 87.9974 61.52 88H61.58C66.9088 88 72.1137 86.393 76.5149 83.3887C80.916 80.3844 84.3088 76.1226 86.25 71.16C86.3559 70.8791 86.541 70.635 86.783 70.4573C87.0249 70.2796 87.3133 70.176 87.613 70.1591C87.9127 70.1421 88.2108 70.2126 88.4713 70.3618C88.7317 70.5111 88.9432 70.7328 89.08 71C89.8134 72.74 90.48 74.51 91.08 76.31C91.57 77.82 92 79.31 92.38 80.87C92.4228 81.0525 92.4271 81.2418 92.3927 81.426C92.3582 81.6103 92.2858 81.7853 92.18 81.94ZM98.33 61.55C98.33 61.93 98.33 62.31 98.33 62.69C98.3159 62.9875 98.2001 63.2712 98.0018 63.4936C97.8036 63.7159 97.535 63.8634 97.2411 63.9114C96.9471 63.9595 96.6455 63.9051 96.3869 63.7574C96.1282 63.6096 95.9281 63.3776 95.82 63.1C93.7097 58.7948 91.2057 54.694 88.34 50.85C88.1372 50.6112 88.0179 50.3128 88 50V46.71C88 43.66 88 41.79 87.91 40.37C87.9055 39.8187 87.8452 39.2692 87.73 38.73C87.4687 37.938 87.0248 37.2185 86.4342 36.6296C85.8436 36.0408 85.1228 35.599 84.33 35.34C83.7914 35.2203 83.2418 35.1566 82.69 35.15C81.28 35.07 79.4 35.07 76.35 35.07H73C72.6972 35.0693 72.4027 34.9711 72.16 34.79L71.6 34.38C67.8824 31.6807 63.9337 29.3149 59.8 27.31C59.5229 27.2025 59.2911 27.0032 59.1431 26.7455C58.9951 26.4877 58.9399 26.187 58.9866 25.8935C59.0334 25.6 59.1793 25.3314 59.4001 25.1324C59.6209 24.9334 59.9032 24.8161 60.2 24.8H61.5H76.39C82.27 24.8 85.21 24.8 87.58 25.58C89.9156 26.3435 92.0382 27.6468 93.7757 29.3843C95.5132 31.1218 96.8166 33.2444 97.58 35.58C98.36 37.96 98.36 40.9 98.36 46.77L98.33 61.55Z" fill="#0000FF"/>
<path fill-rule="evenodd" clip-rule="evenodd" d="M657.25 10.1098C656.956 10.1256 656.675 10.2417 656.456 10.4388C656.237 10.636 656.092 10.9023 656.045 11.1934C655.998 11.4845 656.053 11.7829 656.199 12.0388C656.346 12.2947 656.575 12.4927 656.85 12.5998C660.96 14.5865 664.888 16.9288 668.59 19.5998L669.15 19.9998C669.391 20.1852 669.686 20.287 669.99 20.2898H673.34C676.34 20.2898 678.25 20.2898 679.65 20.3598C680.202 20.3652 680.752 20.4289 681.29 20.5498C682.088 20.8138 682.811 21.2647 683.398 21.8648C683.986 22.465 684.422 23.197 684.67 23.9998C684.788 24.5352 684.848 25.0817 684.85 25.6298C684.93 27.0398 684.93 28.8998 684.93 31.9398V35.2398C684.933 35.547 685.035 35.845 685.22 36.0898C688.067 39.9193 690.561 43.9994 692.67 48.2798C692.778 48.5556 692.978 48.7858 693.236 48.9317C693.493 49.0776 693.793 49.1303 694.086 49.081C694.378 49.0318 694.644 48.8835 694.839 48.6611C695.035 48.4387 695.148 48.1558 695.16 47.8598C695.16 47.4898 695.16 47.1198 695.16 46.7398V31.9098C695.16 26.0598 695.16 23.1398 694.39 20.7798C693.632 18.4636 692.338 16.3584 690.615 14.635C688.891 12.9116 686.786 11.6183 684.47 10.8598C682.11 10.0898 679.18 10.0898 673.33 10.0898H658.53L657.25 10.1098Z" fill="#0000FF"/>
<path d="M255.26 33.0007H261.85C261.982 32.9997 262.112 33.0305 262.23 33.0907C262.35 33.1556 262.453 33.2482 262.53 33.3607C262.603 33.4689 262.651 33.5918 262.67 33.7207C262.705 33.8483 262.705 33.9831 262.67 34.1107L242.67 89.1607C242.613 89.3214 242.508 89.4609 242.37 89.5607C242.226 89.6508 242.06 89.6992 241.89 89.7007H233.9C233.728 89.7015 233.561 89.6491 233.42 89.5507C233.282 89.4505 233.178 89.3111 233.12 89.1507L213.23 34.1507C213.199 34.0225 213.199 33.8889 213.23 33.7607C213.248 33.6298 213.3 33.5059 213.38 33.4007C213.455 33.286 213.558 33.1928 213.68 33.1307C213.777 33.0659 213.886 33.0217 214 33.0007H220.84C221.013 32.9931 221.182 33.0462 221.32 33.1507C221.463 33.248 221.571 33.388 221.63 33.5507L238.17 80.8707L254.46 33.5607C254.515 33.3991 254.62 33.2591 254.76 33.1607C254.898 33.0562 255.067 33 255.24 33.0007H255.26Z" fill="#000066"/>
<path d="M367.17 31.0007C368.86 30.994 370.542 31.2195 372.17 31.6707C372.349 31.7249 372.503 31.8376 372.61 31.9907C372.722 32.14 372.779 32.324 372.77 32.5107V38.1607C372.765 38.29 372.731 38.4165 372.67 38.5307C372.609 38.6505 372.52 38.7535 372.41 38.8307C372.302 38.9035 372.179 38.9513 372.05 38.9707C371.925 39.0008 371.795 39.0008 371.67 38.9707C370.225 38.4463 368.697 38.1855 367.16 38.2007C363.716 38.1866 360.344 39.1921 357.47 41.0907C354.325 43.2158 351.811 46.1485 350.19 49.5807C348.319 53.6537 347.403 58.0999 347.51 62.5807V88.8407C347.511 89.0595 347.429 89.2704 347.28 89.4307C347.117 89.583 346.903 89.6687 346.68 89.6707H340.11C339.89 89.6702 339.678 89.5841 339.52 89.4307C339.366 89.2724 339.276 89.0618 339.27 88.8407V33.8407C339.276 33.6196 339.366 33.409 339.52 33.2507C339.597 33.1716 339.688 33.1086 339.79 33.0657C339.891 33.0227 340 33.0006 340.11 33.0007H346.68C346.79 32.9993 346.9 33.0202 347.002 33.062C347.104 33.1039 347.196 33.1659 347.274 33.2443C347.351 33.3227 347.412 33.4159 347.453 33.5184C347.493 33.6209 347.513 33.7305 347.51 33.8407V44.3407C349.439 40.4514 352.271 37.0807 355.77 34.5107C359.117 32.1925 363.099 30.9665 367.17 31.0007Z" fill="#000066"/>
<path d="M402.81 91.6C397.735 91.7102 392.718 90.5007 388.25 88.09C384.435 85.9404 381.299 82.7633 379.2 78.92C379.147 78.8204 379.113 78.7119 379.1 78.6C379.076 78.488 379.076 78.372 379.1 78.26C379.133 78.1565 379.188 78.0612 379.26 77.98C379.336 77.8934 379.427 77.8221 379.53 77.77L385.4 74.89C385.5 74.8479 385.607 74.8262 385.715 74.8262C385.823 74.8262 385.93 74.8479 386.03 74.89C386.134 74.9249 386.23 74.98 386.312 75.0521C386.394 75.1241 386.462 75.2118 386.51 75.31C389.597 81.1967 395.343 84.14 403.75 84.14C407.366 84.2751 410.956 83.4834 414.18 81.84C415.485 81.1719 416.568 80.1402 417.299 78.8696C418.031 77.599 418.378 76.1439 418.3 74.68C418.3 71.3467 417.17 68.8867 414.91 67.3C412.74 65.67 408.86 64.63 403.27 64.14C395.477 63.4733 389.9 61.7367 386.54 58.93C384.907 57.5533 383.608 55.8234 382.742 53.8709C381.876 51.9185 381.465 49.7946 381.54 47.66C381.54 42.4 383.443 38.3167 387.25 35.41C391.057 32.5033 396.307 31.0333 403 31C413.933 31 421.453 35.1967 425.56 43.59C425.608 43.6871 425.639 43.7921 425.65 43.9C425.659 44.0124 425.642 44.1252 425.6 44.23C425.559 44.3297 425.505 44.4238 425.44 44.51C425.363 44.593 425.272 44.6609 425.17 44.71L419.34 47.59C419.236 47.6387 419.124 47.6692 419.01 47.68C418.786 47.687 418.568 47.6083 418.4 47.46C418.32 47.3828 418.256 47.2912 418.21 47.19C417.009 44.5288 415.015 42.3039 412.5 40.82C409.414 39.1629 405.939 38.3684 402.44 38.52C398.24 38.52 395.007 39.2867 392.74 40.82C391.683 41.5448 390.826 42.5252 390.25 43.67C389.68 44.8133 389.411 46.0836 389.47 47.36C389.461 48.6581 389.778 49.9376 390.391 51.0818C391.004 52.226 391.894 53.1983 392.98 53.91C395.413 55.53 399.537 56.5833 405.35 57.07C412.543 57.7367 417.877 59.51 421.35 62.39C423.068 63.714 424.447 65.427 425.374 67.3881C426.3 69.3491 426.748 71.5021 426.68 73.67C426.765 77.2225 425.604 80.6928 423.4 83.48C421.089 86.2477 418.078 88.3441 414.68 89.55C410.889 90.9351 406.876 91.613 402.84 91.55L402.81 91.6Z" fill="#000066"/>
<path d="M444.49 88.8401V40.4702H435.63C435.41 40.4697 435.198 40.3836 435.04 40.2302C434.961 40.1533 434.899 40.0615 434.856 39.9603C434.813 39.859 434.791 39.7502 434.79 39.6402V33.8002C434.791 33.6902 434.813 33.5813 434.856 33.4801C434.899 33.3788 434.961 33.287 435.04 33.2102C435.117 33.131 435.208 33.0681 435.31 33.0251C435.411 32.9822 435.52 32.9601 435.63 32.9602H444.49V15.0002C444.493 14.7799 444.581 14.5692 444.735 14.4125C444.89 14.2558 445.1 14.1653 445.32 14.1602H451.9C452.01 14.1606 452.119 14.183 452.22 14.2259C452.321 14.2688 452.413 14.3315 452.49 14.4102C452.569 14.4865 452.631 14.5783 452.672 14.6799C452.713 14.7815 452.733 14.8905 452.73 15.0002V33.0002H465C465.22 33.0027 465.431 33.0885 465.59 33.2402C465.742 33.403 465.828 33.6172 465.83 33.8402V39.6702C465.831 39.7795 465.811 39.8881 465.77 39.9894C465.728 40.0907 465.667 40.1827 465.59 40.26C465.513 40.3374 465.421 40.3985 465.319 40.4397C465.218 40.4809 465.109 40.5015 465 40.5002H452.73V88.8202C452.731 88.9295 452.711 89.0381 452.67 89.1394C452.628 89.2407 452.567 89.3328 452.49 89.4102C452.331 89.5619 452.12 89.6476 451.9 89.6502H445.32C445.104 89.6477 444.897 89.5622 444.743 89.4114C444.588 89.2605 444.498 89.056 444.49 88.8401V88.8401Z" fill="#000066"/>
<path d="M521.77 33.7894V41.4394C519.544 38.2151 516.555 35.5908 513.07 33.7994C509.611 31.9266 505.733 30.9631 501.8 30.9994C496.67 30.92 491.619 32.2667 487.21 34.8894C482.976 37.5026 479.542 41.228 477.28 45.6594C474.869 50.4684 473.661 55.7907 473.76 61.1694C473.655 66.6426 474.905 72.0568 477.4 76.9294C479.681 81.3914 483.166 85.1257 487.46 87.7094C491.853 90.3261 496.887 91.6694 502 91.5894C505.883 91.627 509.715 90.7101 513.16 88.9194C516.564 87.0547 519.503 84.4468 521.76 81.2894V88.7994C521.76 88.9081 521.782 89.0157 521.825 89.1155C521.868 89.2153 521.931 89.3051 522.01 89.3794C522.084 89.4615 522.176 89.5265 522.277 89.5696C522.379 89.6128 522.489 89.6332 522.6 89.6294H529.17C529.28 89.6313 529.39 89.61 529.492 89.5669C529.593 89.5239 529.685 89.46 529.76 89.3794C529.838 89.3046 529.9 89.2145 529.941 89.1146C529.982 89.0148 530.002 88.9074 530 88.7994V33.7994C530.001 33.69 529.981 33.5815 529.94 33.4802C529.898 33.3789 529.837 33.2869 529.76 33.2095C529.683 33.1322 529.591 33.0711 529.489 33.0299C529.388 32.9886 529.279 32.9681 529.17 32.9694H522.6C522.49 32.9681 522.382 32.9885 522.28 33.0294C522.176 33.0715 522.081 33.1325 522 33.2094C521.924 33.2951 521.863 33.3932 521.82 33.4994C521.779 33.6046 521.759 33.7166 521.76 33.8294L521.77 33.7894ZM519.22 73.0594C517.657 76.3874 515.181 79.2033 512.08 81.1794C509.002 83.146 505.412 84.1617 501.76 84.0994C498.156 84.1517 494.617 83.1357 491.59 81.1794C488.549 79.1747 486.125 76.3632 484.59 73.0594C482.823 69.3554 481.937 65.2929 482 61.1894C481.923 57.1629 482.797 53.1751 484.55 49.5494C486.082 46.2467 488.507 43.4378 491.55 41.4394C494.575 39.4787 498.115 38.4623 501.72 38.5194C505.373 38.4524 508.964 39.4684 512.04 41.4394C515.14 43.412 517.616 46.2245 519.18 49.5494C520.928 53.2194 521.801 57.245 521.73 61.3094C521.802 65.3708 520.929 69.3933 519.18 73.0594H519.22Z" fill="#000066"/>
<path d="M592.16 33.79V41.43C589.917 38.2114 586.92 35.5917 583.43 33.8C579.971 31.9272 576.093 30.9637 572.16 31C567.044 30.9253 562.007 32.272 557.61 34.89C553.352 37.4952 549.893 41.221 547.61 45.66C545.202 50.4697 543.998 55.7921 544.1 61.17C544.001 66.6425 545.251 72.0553 547.74 76.93C550.029 81.3831 553.508 85.1145 557.79 87.71C562.19 90.3283 567.231 91.6717 572.35 91.59C576.23 91.6288 580.059 90.7118 583.5 88.92C586.904 87.0515 589.846 84.4444 592.11 81.29V87.47C592.11 92.97 590.533 97.4967 587.38 101.05C585.904 102.768 584.062 104.135 581.99 105.05C579.916 105.974 577.659 106.415 575.39 106.34H552.69C552.581 106.34 552.474 106.362 552.374 106.405C552.274 106.448 552.184 106.511 552.11 106.59C552.029 106.663 551.965 106.753 551.922 106.853C551.879 106.953 551.858 107.061 551.86 107.17V113.02C551.858 113.13 551.879 113.24 551.923 113.341C551.966 113.443 552.029 113.535 552.11 113.61C552.265 113.763 552.473 113.849 552.69 113.85H575.39C579.954 113.94 584.454 112.763 588.39 110.45C592.178 108.209 595.248 104.935 597.24 101.01C599.405 96.8163 600.492 92.1489 600.4 87.43V33.79C600.398 33.565 600.309 33.3496 600.15 33.19C599.996 33.0372 599.787 32.951 599.57 32.95H593C592.78 32.9526 592.569 33.0383 592.41 33.19C592.25 33.349 592.161 33.5648 592.16 33.79V33.79ZM589.65 73.06C588.093 76.3949 585.611 79.213 582.5 81.18C579.424 83.089 575.875 84.1005 572.255 84.1005C568.635 84.1005 565.086 83.089 562.01 81.18C558.975 79.1682 556.553 76.3586 555.01 73.06C553.262 69.3511 552.389 65.2898 552.46 61.19C552.385 57.1648 553.255 53.1781 555 49.55C556.537 46.2477 558.96 43.4367 562 41.43C565.035 39.4757 568.581 38.4632 572.19 38.52C575.835 38.4528 579.419 39.4652 582.49 41.43C585.599 43.3996 588.08 46.217 589.64 49.55C591.371 53.2245 592.23 57.2491 592.15 61.31C592.22 65.37 591.35 69.3913 589.61 73.06H589.65Z" fill="#000066"/>
<path fill-rule="evenodd" clip-rule="evenodd" d="M205.43 55.2798C205 51.8376 203.928 48.5066 202.27 45.4598C201.34 43.7302 200.22 42.1101 198.93 40.6298C198.71 40.3598 198.47 40.1198 198.24 39.8598C198.01 39.5998 197.78 39.3498 197.53 39.1198L196.66 38.2898C195.465 37.206 194.169 36.2383 192.79 35.3998C189.562 33.4418 185.93 32.2448 182.17 31.8998C181.25 31.8098 180.32 31.7598 179.41 31.7598C177.494 31.7685 175.583 31.9492 173.7 32.2998C168.364 33.6447 163.492 36.4092 159.6 40.2998C158.678 41.2185 157.807 42.1866 156.99 43.1998L156.85 43.3698L156.6 43.6898C156.11 44.3498 155.6 45.0998 155.11 45.8798C151 52.5286 149.683 60.5316 151.446 68.1467C153.208 75.7618 157.907 82.3725 164.52 86.5398C168.686 89.1682 173.44 90.7182 178.355 91.0499C183.269 91.3816 188.189 90.4846 192.67 88.4398C193.41 88.1198 194.14 87.7898 194.83 87.4398C198.516 85.4014 201.702 82.5698 204.16 79.1498V79.1498L204.46 78.7498C204.568 78.5967 204.643 78.4231 204.68 78.2398C204.705 78.0573 204.705 77.8722 204.68 77.6898C204.189 75.6007 203.582 73.5408 202.86 71.5198C202.771 71.2616 202.607 71.0355 202.39 70.8698C202.178 70.7016 201.92 70.6006 201.65 70.5798C201.375 70.5618 201.1 70.6243 200.86 70.7598C200.62 70.8894 200.427 71.0927 200.31 71.3398C198.036 75.8971 194.28 79.5465 189.66 81.6898C186.597 82.9654 183.318 83.6442 180 83.6898H179.13C178.852 83.6997 178.574 83.6795 178.3 83.6298L177.75 83.5298H177.41C176.398 83.3842 175.397 83.1772 174.41 82.9098H174.21L173.57 82.7198L172.74 82.4698L172.55 82.3998L171.71 82.0598C169.761 81.2306 167.94 80.1297 166.3 78.7898L166.21 78.7198L165.48 78.0898C165.48 78.0898 165.43 78.0898 165.41 78.0198L164.77 77.4098L164.44 77.0198L164.37 76.9498C163.484 76.011 162.669 75.0083 161.93 73.9498C159.937 70.978 158.695 67.5671 158.31 64.0098C158.59 63.5798 159.44 62.8698 161.93 63.0798H204C204.282 63.079 204.56 63.0104 204.81 62.8798C205.049 62.7332 205.248 62.5307 205.39 62.2898C205.546 62.0408 205.629 61.7534 205.63 61.4598V59.4698C205.64 58.0694 205.56 56.6699 205.39 55.2798H205.43ZM196.69 54.2798C196.448 54.8716 196.038 55.3793 195.51 55.7398C194.975 56.0989 194.344 56.2872 193.7 56.2798L159.83 56.2098C159.648 56.1783 159.48 56.0909 159.35 55.9598C158.97 55.5698 159.09 54.8498 159.35 54.1598C159.88 52.6051 160.584 51.1156 161.45 49.7198C162.156 48.5974 162.952 47.5339 163.83 46.5398L163.99 46.3698L164.07 46.2798C164.18 46.1598 164.29 46.0298 164.41 45.9198C164.69 45.6298 165.06 45.2698 165.51 44.8698L165.57 44.7998L165.85 44.5398L166.33 44.1498L166.48 44.0198L166.99 43.6298L167.23 43.4598L167.49 43.2798C168.893 42.2794 170.402 41.4376 171.99 40.7698V40.7698C174.349 39.7291 176.884 39.1454 179.46 39.0498C181.455 39.0159 183.445 39.265 185.37 39.7898C186.159 40.0094 186.931 40.2868 187.68 40.6198C189.258 41.2989 190.706 42.2462 191.96 43.4198C194.303 45.681 195.975 48.5468 196.79 51.6998C196.79 51.8598 196.89 52.0298 196.93 52.1798C197.114 52.8805 197.047 53.6235 196.74 54.2798H196.69Z" fill="#000066"/>
<path fill-rule="evenodd" clip-rule="evenodd" d="M324.65 55.2798C324.219 51.8392 323.151 48.5091 321.5 45.4598C320.563 43.7345 319.444 42.1151 318.16 40.6298C317.93 40.3598 317.7 40.1198 317.47 39.8598C317.24 39.5998 317.01 39.3498 316.77 39.1198L315.89 38.2898C311.86 34.6649 306.775 32.4256 301.38 31.8998C300.444 31.798 299.502 31.7513 298.56 31.7598C296.645 31.7828 294.735 31.9668 292.85 32.3098C287.514 33.6619 282.64 36.4252 278.74 40.3098C277.844 41.2197 277.003 42.1813 276.22 43.1898L276.08 43.3598L275.83 43.6798C275.296 44.3833 274.798 45.1143 274.34 45.8698C271.34 50.689 269.802 56.2743 269.91 61.9498C269.994 66.8761 271.303 71.7039 273.72 75.9976C276.136 80.2912 279.584 83.9155 283.752 86.5432C287.92 89.1709 292.676 90.7193 297.592 91.0487C302.508 91.3781 307.429 90.478 311.91 88.4298C312.66 88.1098 313.38 87.7798 314.07 87.4298C317.76 85.3945 320.951 82.5625 323.41 79.1398C323.5 78.9998 323.61 78.8798 323.71 78.7398C323.81 78.5839 323.882 78.4111 323.92 78.2298C323.96 78.0486 323.96 77.8609 323.92 77.6798C323.433 75.5909 322.828 73.531 322.11 71.5098C322.021 71.2516 321.857 71.0255 321.64 70.8598C321.425 70.6897 321.164 70.5886 320.89 70.5698C320.618 70.552 320.347 70.6146 320.11 70.7498C319.871 70.8849 319.677 71.0864 319.55 71.3298C317.285 75.8907 313.532 79.542 308.91 81.6798C305.843 82.9545 302.561 83.6333 299.24 83.6798H298.37C298.092 83.6887 297.814 83.6686 297.54 83.6198L296.98 83.5498H296.63C295.618 83.4144 294.616 83.214 293.63 82.9498L293.45 82.8898L292.85 82.7098L292.05 82.4298L291.86 82.3598L291.03 82.0198C289.078 81.1915 287.253 80.0905 285.61 78.7498L285.53 78.6798L284.8 78.0498L284.72 77.9798L284.08 77.3698L283.75 77.0098L283.68 76.9498C282.785 76.016 281.966 75.0129 281.23 73.9498C279.218 70.9649 277.971 67.5305 277.6 63.9498C277.92 63.5198 278.76 62.8298 281.24 63.0298H323.41C323.69 63.0351 323.966 62.9661 324.21 62.8298C324.458 62.692 324.662 62.4876 324.8 62.2398C324.955 61.9903 325.038 61.7032 325.04 61.4098V59.5098C325.019 58.0935 324.902 56.6803 324.69 55.2798H324.65ZM315.93 54.2798C315.685 54.8736 315.269 55.3811 314.735 55.7373C314.201 56.0936 313.572 56.2824 312.93 56.2798L279.07 56.2098C278.887 56.1739 278.717 56.0873 278.58 55.9598C278.21 55.5698 278.32 54.8498 278.53 54.1598C279.068 52.6065 279.775 51.1174 280.64 49.7198C281.338 48.6064 282.128 47.5528 283 46.5698L283.14 46.3998L283.23 46.3098C283.33 46.1898 283.45 46.0598 283.56 45.9498C283.85 45.6598 284.21 45.2998 284.66 44.8998L284.73 44.8298L285.01 44.5698L285.49 44.1798L285.64 44.0498L286.14 43.6598L286.39 43.4898C286.467 43.421 286.551 43.3607 286.64 43.3098C288.045 42.3135 289.554 41.472 291.14 40.7998V40.7998C293.483 39.7638 296 39.177 298.56 39.0698C300.569 39.0386 302.572 39.2911 304.51 39.8198C305.296 40.0409 306.064 40.3183 306.81 40.6498C308.388 41.3421 309.839 42.2955 311.1 43.4698C313.433 45.7374 315.1 48.6011 315.92 51.7498C315.97 51.9098 316.02 52.0798 316.06 52.2398C316.241 52.9273 316.189 53.6556 315.91 54.3098L315.93 54.2798Z" fill="#000066"/>
<path fill-rule="evenodd" clip-rule="evenodd" d="M669.3 55.2805C668.876 51.837 667.804 48.5049 666.14 45.4605C665.207 43.733 664.087 42.1133 662.8 40.6305C662.57 40.3605 662.35 40.1205 662.11 39.8605C661.87 39.6005 661.65 39.3505 661.41 39.1205C661.17 38.8905 660.83 38.5705 660.53 38.2905C659.336 37.2052 658.04 36.2374 656.66 35.4005C653.422 33.4259 649.776 32.2184 646 31.8705C645.06 31.7805 644.12 31.7305 643.18 31.7305C641.268 31.745 639.361 31.9257 637.48 32.2705C632.142 33.6175 627.267 36.3815 623.37 40.2705C622.48 41.203 621.639 42.1809 620.85 43.2005L620.72 43.3705L620.48 43.6805C619.94 44.386 619.44 45.1204 618.98 45.8805C615.636 51.292 614.121 57.6351 614.658 63.9735C615.195 70.3118 617.756 76.3097 621.962 81.0817C626.168 85.8537 631.797 89.1471 638.017 90.4757C644.238 91.8044 650.721 91.0978 656.51 88.4605C657.25 88.1405 657.98 87.8105 658.68 87.4605C662.375 85.4136 665.561 82.5594 668 79.1105V79.1105C668.114 78.9861 668.218 78.8523 668.31 78.7105C668.414 78.5604 668.486 78.39 668.52 78.2105C668.555 78.0255 668.555 77.8355 668.52 77.6505C668.032 75.5649 667.428 73.5083 666.71 71.4905C666.628 71.2283 666.468 70.9977 666.25 70.8305C666.03 70.6632 665.766 70.5657 665.49 70.5505C665.218 70.5296 664.946 70.5924 664.71 70.7305C664.469 70.8628 664.274 71.065 664.15 71.3105C661.881 75.8857 658.116 79.548 653.48 81.6905C650.42 82.9756 647.139 83.6549 643.82 83.6905H643C642.72 83.7153 642.439 83.7153 642.16 83.6905L641.6 83.6205H641.26C640.247 83.487 639.245 83.2832 638.26 83.0105L638.07 82.9505L637.47 82.7805L636.64 82.4905L636.44 82.4305L635.6 82.0905C633.646 81.2617 631.821 80.1572 630.18 78.8105L630.09 78.7505L629.36 78.1105L629.29 78.0505L628.65 77.4405L628.31 77.0805L628.25 77.0105C627.353 76.0788 626.534 75.0755 625.8 74.0105C623.753 71.03 622.469 67.5928 622.06 64.0005C622.39 63.5705 623.23 62.8705 625.72 63.0705H667.88C668.092 63.0737 668.302 63.0364 668.5 62.9605C668.819 62.8254 669.086 62.5902 669.26 62.2905C669.422 62.0444 669.505 61.755 669.5 61.4605V59.5705C669.533 58.1376 669.467 56.7041 669.3 55.2805V55.2805ZM660.58 54.2805C660.332 54.872 659.915 55.3772 659.382 55.733C658.848 56.0887 658.221 56.2792 657.58 56.2805L623.71 56.2105C623.531 56.1783 623.367 56.0909 623.24 55.9605C622.85 55.5705 622.98 54.8405 623.18 54.1605C623.718 52.6092 624.422 51.1206 625.28 49.7205C625.993 48.6002 626.792 47.537 627.67 46.5405L627.82 46.3605L627.9 46.2805L628.24 45.9205C628.54 45.6305 628.89 45.2705 629.33 44.8605L629.41 44.8005L629.7 44.5405L630.16 44.1505L630.32 44.0205L630.82 43.6305L631.06 43.4605L631.31 43.2805C632.719 42.2841 634.231 41.4426 635.82 40.7705V40.7705C638.158 39.7394 640.667 39.1528 643.22 39.0405C645.222 39.0142 647.218 39.2666 649.15 39.7905C649.939 40.0117 650.711 40.2891 651.46 40.6205C653.036 41.3019 654.484 42.249 655.74 43.4205C658.08 45.6843 659.751 48.5491 660.57 51.7005C660.62 51.8605 660.67 52.0305 660.71 52.1805C660.906 52.8742 660.864 53.6136 660.59 54.2805H660.58Z" fill="#000066"/>
</svg>
