<svg height="200px" width="200px" version="1.1" id="Layer_1" xmlns="http://www.w3.org/2000/svg" xmlns:xlink="http://www.w3.org/1999/xlink" viewBox="0 0 512 512" xml:space="preserve" fill="#000000"><g id="SVGRepo_bgCarrier" stroke-width="0"></g><g id="SVGRepo_tracerCarrier" stroke-linecap="round" stroke-linejoin="round"></g><g id="SVGRepo_iconCarrier"> <path style="fill:#FFEBE3;" d="M427.604,421.978v67.517H256V22.505h171.604v67.516c0,24.756-15.225,58.368-33.837,74.696 L289.758,256l104.009,91.282C412.379,363.61,427.604,397.222,427.604,421.978z"></path> <path style="fill:#FFF8F5;" d="M393.846,421.978v67.517H84.396v-67.517c0-24.756,15.225-58.368,33.837-74.696L222.242,256 l-104.009-91.282c-18.612-16.328-33.837-49.94-33.837-74.696V22.505h309.451v67.516c0,24.756-12.232,58.368-27.175,74.696 L283.119,256l83.552,91.282C381.614,363.61,393.846,397.222,393.846,421.978z"></path> <path style="fill:#FFC1A6;" d="M256,346.31c-4.661,0-8.44-3.779-8.44-8.44V218.205c0-4.661,3.779-8.44,8.44-8.44 c4.661,0,8.44,3.779,8.44,8.44V337.87C264.44,342.531,260.661,346.31,256,346.31z"></path> <path style="fill:#FEA680;" d="M360.088,67.516L256,240.708l115.509-101.354c11.275-9.902,22.337-34.332,22.337-49.332V67.516 H360.088z"></path> <g> <path style="fill:#FFC1A6;" d="M360.088,67.516v22.505c0,15-8.361,39.43-16.868,49.332L256,240.708L140.491,139.343 c-11.275-9.891-22.337-34.321-22.337-49.321V67.516H360.088z"></path> <path style="fill:#FFC1A6;" d="M256,427.242c-4.661,0-8.44-3.779-8.44-8.44v-47.174c0-4.661,3.779-8.44,8.44-8.44 c4.661,0,8.44,3.779,8.44,8.44v47.174C264.44,423.463,260.661,427.242,256,427.242z"></path> </g> <path style="fill:#ABECEC;" d="M84.396,486.681c-4.661,0-8.44-3.779-8.44-8.44v-56.264c0-27.382,16.123-62.982,36.704-81.043 L209.446,256l-96.786-84.935c-20.581-18.062-36.704-53.661-36.704-81.043V33.758c0-4.661,3.779-8.44,8.44-8.44s8.44,3.779,8.44,8.44 v56.264c0,22.327,14.177,53.629,30.959,68.357l104.015,91.278c1.826,1.602,2.873,3.915,2.873,6.343c0,2.428-1.046,4.741-2.873,6.343 l-104.015,91.278c-16.781,14.728-30.959,46.03-30.959,68.357v56.264C92.835,482.903,89.056,486.681,84.396,486.681z"></path> <g> <circle style="fill:#FEA680;" cx="174.418" cy="106.901" r="8.44"></circle> <circle style="fill:#FEA680;" cx="219.429" cy="129.407" r="8.44"></circle> </g> <path style="fill:#ABECEC;" d="M427.604,486.681c-4.661,0-8.44-3.779-8.44-8.44v-56.264c0-22.327-14.177-53.629-30.959-68.357 l-104.015-91.278c-1.826-1.602-2.873-3.915-2.873-6.343c0-2.428,1.046-4.741,2.873-6.343l104.015-91.278 c16.781-14.728,30.959-46.03,30.959-68.357V33.758c0-4.661,3.779-8.44,8.44-8.44c4.661,0,8.44,3.779,8.44,8.44v56.264 c0,27.382-16.123,62.982-36.704,81.043L302.554,256l96.786,84.935c20.581,18.062,36.704,53.661,36.704,81.043v56.264 C436.044,482.903,432.265,486.681,427.604,486.681z"></path> <path style="fill:#FEA680;" d="M303.149,448.917L256,407.552l22.505,93.195h33.758V469.06 C312.264,462.938,307.751,452.957,303.149,448.917z"></path> <path style="fill:#FFC1A6;" d="M278.505,469.06v31.688h-78.769V469.06c0-6.121,4.512-16.103,9.115-20.142L256,407.552l18.86,41.365 C276.694,452.957,278.505,462.938,278.505,469.06z"></path> <path style="fill:#FE5F1A;" d="M421.978,0l-16.879,33.758h33.758c9.317,0,16.879-7.562,16.879-16.879s0-16.879,0-16.879H421.978z"></path> <path style="fill:#FE834D;" d="M421.978,0c0,0,0,7.562,0,16.879s-7.562,16.879-16.879,16.879H73.143 c-9.317,0-16.879-7.562-16.879-16.879s0-16.879,0-16.879H421.978z"></path> <path style="fill:#FE5F1A;" d="M421.978,512l-16.879-33.758h33.758c9.317,0,16.879,7.562,16.879,16.879c0,9.317,0,16.879,0,16.879 H421.978z"></path> <path style="fill:#FE834D;" d="M421.978,512c0,0,0-7.562,0-16.879c0-9.317-7.562-16.879-16.879-16.879H73.143 c-9.317,0-16.879,7.562-16.879,16.879c0,9.317,0,16.879,0,16.879H421.978z"></path> </g></svg>